# Blender v2.93.3 OBJ File: 'unit shapes.blend'
# www.blender.org
o Cylinder
v 2.000000 -0.000000 1.000000
v 0.000000 -0.000000 1.000000
v 2.000000 -0.382684 0.923879
v 0.000000 -0.382683 0.923880
v 2.000000 -0.707107 0.707107
v -0.000000 -0.707107 0.707107
v 2.000000 -0.923880 0.382683
v -0.000000 -0.923880 0.382683
v 2.000000 -1.000000 -0.000000
v -0.000000 -1.000000 -0.000000
v 2.000000 -0.923880 -0.382684
v -0.000000 -0.923880 -0.382683
v 2.000000 -0.707107 -0.707107
v -0.000000 -0.707107 -0.707107
v 2.000000 -0.382684 -0.923880
v -0.000000 -0.382683 -0.923880
v 2.000000 -0.000000 -1.000000
v -0.000000 0.000000 -1.000000
v 2.000000 0.382683 -0.923880
v -0.000000 0.382683 -0.923880
v 2.000000 0.707106 -0.707107
v 0.000000 0.707107 -0.707107
v 2.000000 0.923879 -0.382684
v 0.000000 0.923880 -0.382684
v 2.000000 1.000000 -0.000000
v 0.000000 1.000000 0.000000
v 2.000000 0.923879 0.382684
v 0.000000 0.923879 0.382684
v 2.000000 0.707107 0.707107
v 0.000000 0.707107 0.707107
v 2.000000 0.382683 0.923879
v 0.000000 0.382683 0.923880
vt 0.937500 0.500000
vt 1.000000 1.000000
vt 1.000000 0.500000
vt 0.875000 1.000000
vt 0.937500 1.000000
vt 0.875000 0.500000
vt 0.812500 1.000000
vt 0.812500 0.500000
vt 0.750000 1.000000
vt 0.687500 0.500000
vt 0.750000 0.500000
vt 0.625000 0.500000
vt 0.687500 1.000000
vt 0.562500 0.500000
vt 0.625000 1.000000
vt 0.500000 1.000000
vt 0.562500 1.000000
vt 0.437500 0.500000
vt 0.500000 0.500000
vt 0.375000 0.500000
vt 0.437500 1.000000
vt 0.312500 0.500000
vt 0.375000 1.000000
vt 0.250000 1.000000
vt 0.312500 1.000000
vt 0.187500 0.500000
vt 0.250000 0.500000
vt 0.125000 0.500000
vt 0.187500 1.000000
vt 0.250000 0.490000
vt 0.490000 0.250000
vt 0.250000 0.010000
vt 0.062500 0.500000
vt 0.125000 1.000000
vt 0.000000 1.000000
vt 0.062500 1.000000
vt 0.528269 0.341844
vt 0.658156 0.028269
vt 0.971731 0.158156
vt 0.341844 0.471731
vt 0.419706 0.419706
vt 0.471731 0.341844
vt 0.471731 0.158156
vt 0.419706 0.080294
vt 0.341844 0.028269
vt 0.158156 0.028269
vt 0.010000 0.250000
vt 0.080294 0.080294
vt 0.028269 0.158156
vt 0.028269 0.341844
vt 0.080294 0.419706
vt 0.158156 0.471731
vt 0.000000 0.500000
vt 0.841844 0.471731
vt 0.750000 0.490000
vt 0.658156 0.471731
vt 0.580294 0.419706
vt 0.510000 0.250000
vt 0.528269 0.158156
vt 0.580294 0.080294
vt 0.750000 0.010000
vt 0.841844 0.028269
vt 0.919706 0.080294
vt 0.990000 0.250000
vt 0.971731 0.341844
vt 0.919706 0.419706
vn -0.6657 0.2855 -0.6894
vn 0.6657 0.0000 -0.7462
vn -0.6657 0.0000 -0.7462
vn 0.6657 0.5276 -0.5276
vn 0.6657 0.2855 -0.6894
vn -0.6657 0.5276 -0.5276
vn 0.6657 0.6894 -0.2855
vn -0.6657 0.6894 -0.2855
vn 0.6657 0.7462 0.0000
vn -0.6657 0.6894 0.2855
vn -0.6657 0.7462 0.0000
vn -0.6657 0.5276 0.5276
vn 0.6657 0.6894 0.2855
vn -0.6657 0.2855 0.6894
vn 0.6657 0.5276 0.5276
vn 0.6657 0.0000 0.7462
vn 0.6657 0.2855 0.6894
vn -0.6657 -0.2855 0.6894
vn -0.6657 0.0000 0.7462
vn -0.6657 -0.5276 0.5276
vn 0.6657 -0.2855 0.6894
vn -0.6657 -0.6894 0.2855
vn 0.6657 -0.5276 0.5276
vn 0.6657 -0.7462 0.0000
vn 0.6657 -0.6894 0.2855
vn -0.6657 -0.6894 -0.2855
vn -0.6657 -0.7462 0.0000
vn -0.6657 -0.5276 -0.5276
vn 0.6657 -0.6894 -0.2855
vn -0.6657 -0.2855 -0.6894
vn 0.6657 -0.5276 -0.5276
vn 0.6657 -0.2855 -0.6894
s 1
f 3/1/1 2/2/2 1/3/3
f 3/1/1 6/4/4 4/5/5
f 5/6/6 8/7/7 6/4/4
f 7/8/8 10/9/9 8/7/7
f 11/10/10 10/9/9 9/11/11
f 13/12/12 12/13/13 11/10/10
f 15/14/14 14/15/15 13/12/12
f 15/14/14 18/16/16 16/17/17
f 19/18/18 18/16/16 17/19/19
f 21/20/20 20/21/21 19/18/18
f 23/22/22 22/23/23 21/20/20
f 23/22/22 26/24/24 24/25/25
f 27/26/26 26/24/24 25/27/27
f 29/28/28 28/29/29 27/26/26
f 2/30/2 10/31/9 18/32/16
f 31/33/30 30/34/31 29/28/28
f 31/33/30 2/35/2 32/36/32
f 27/37/26 19/38/18 11/39/10
f 3/1/1 4/5/5 2/2/2
f 3/1/1 5/6/6 6/4/4
f 5/6/6 7/8/8 8/7/7
f 7/8/8 9/11/11 10/9/9
f 11/10/10 12/13/13 10/9/9
f 13/12/12 14/15/15 12/13/13
f 15/14/14 16/17/17 14/15/15
f 15/14/14 17/19/19 18/16/16
f 19/18/18 20/21/21 18/16/16
f 21/20/20 22/23/23 20/21/21
f 23/22/22 24/25/25 22/23/23
f 23/22/22 25/27/27 26/24/24
f 27/26/26 28/29/29 26/24/24
f 29/28/28 30/34/31 28/29/29
f 2/30/2 4/40/5 6/41/4
f 6/41/4 8/42/7 10/31/9
f 10/31/9 12/43/13 14/44/15
f 14/44/15 16/45/17 10/31/9
f 16/45/17 18/32/16 10/31/9
f 18/32/16 20/46/21 26/47/24
f 20/46/21 22/48/23 26/47/24
f 22/48/23 24/49/25 26/47/24
f 26/47/24 28/50/29 30/51/31
f 30/51/31 32/52/32 2/30/2
f 2/30/2 6/41/4 10/31/9
f 26/47/24 30/51/31 18/32/16
f 30/51/31 2/30/2 18/32/16
f 31/33/30 32/36/32 30/34/31
f 31/33/30 1/53/3 2/35/2
f 3/54/1 1/55/3 27/37/26
f 1/55/3 31/56/30 27/37/26
f 31/56/30 29/57/28 27/37/26
f 27/37/26 25/58/27 23/59/22
f 23/59/22 21/60/20 19/38/18
f 19/38/18 17/61/19 11/39/10
f 17/61/19 15/62/14 11/39/10
f 15/62/14 13/63/12 11/39/10
f 11/39/10 9/64/11 7/65/8
f 7/65/8 5/66/6 3/54/1
f 27/37/26 23/59/22 19/38/18
f 11/39/10 7/65/8 3/54/1
f 3/54/1 27/37/26 11/39/10
