{
    "asset" : {
        "generator" : "Khronos glTF Blender I/O v1.6.16",
        "version" : "2.0"
    },
    "scene" : 0,
    "scenes" : [
        {
            "name" : "Scene",
            "nodes" : [
                0
            ]
        }
    ],
    "nodes" : [
        {
            "mesh" : 0,
            "name" : "Cube"
        }
    ],
    "meshes" : [
        {
            "name" : "Cube",
            "primitives" : [
                {
                    "attributes" : {
                        "POSITION" : 0,
                        "NORMAL" : 1,
                        "TEXCOORD_0" : 2
                    },
                    "indices" : 3
                }
            ]
        }
    ],
    "accessors" : [
        {
            "bufferView" : 0,
            "componentType" : 5126,
            "count" : 1011,
            "max" : [
                2.2056760787963867,
                2.4329686164855957,
                1
            ],
            "min" : [
                -2.2056760787963867,
                -4,
                -1.519788146018982
            ],
            "type" : "VEC3"
        },
        {
            "bufferView" : 1,
            "componentType" : 5126,
            "count" : 1011,
            "type" : "VEC3"
        },
        {
            "bufferView" : 2,
            "componentType" : 5126,
            "count" : 1011,
            "type" : "VEC2"
        },
        {
            "bufferView" : 3,
            "componentType" : 5123,
            "count" : 2340,
            "type" : "SCALAR"
        }
    ],
    "bufferViews" : [
        {
            "buffer" : 0,
            "byteLength" : 12132,
            "byteOffset" : 0
        },
        {
            "buffer" : 0,
            "byteLength" : 12132,
            "byteOffset" : 12132
        },
        {
            "buffer" : 0,
            "byteLength" : 8088,
            "byteOffset" : 24264
        },
        {
            "buffer" : 0,
            "byteLength" : 4680,
            "byteOffset" : 32352
        }
    ],
    "buffers" : [
        {
            "byteLength" : 37032,
            "uri" : "data:application/octet-stream;base64,"
        }
    ]
}
