# Blender v2.93.3 OBJ File: 'ore_mine.blend'
# www.blender.org
o Plane
v -1.717737 -1.717737 0.000000
v 1.717737 -1.717737 0.000000
v -1.717737 1.717737 0.000000
v 1.717737 1.717737 0.000000
v -0.200000 -0.200000 1.800000
v -0.200000 -0.200000 1.400000
v -0.000000 0.118438 -0.000000
v -0.000000 0.118438 2.000000
v 0.059219 0.102570 -0.000000
v 0.059219 0.102570 2.000000
v 0.102570 0.059219 -0.000000
v 0.102570 0.059219 2.000000
v 0.118438 -0.000000 -0.000000
v 0.118438 -0.000000 2.000000
v 0.102570 -0.059219 -0.000000
v 0.102570 -0.059219 2.000000
v 0.059219 -0.102570 -0.000000
v 0.059219 -0.102570 2.000000
v -0.000000 -0.118438 -0.000000
v -0.000000 -0.118438 2.000000
v -0.059219 -0.102570 -0.000000
v -0.059219 -0.102570 2.000000
v -0.102570 -0.059219 -0.000000
v -0.102570 -0.059219 2.000000
v -0.118438 -0.000000 -0.000000
v -0.118438 -0.000000 2.000000
v -0.102570 0.059219 -0.000000
v -0.102570 0.059219 2.000000
v -0.059219 0.102570 -0.000000
v -0.059219 0.102570 2.000000
v -0.200000 0.200000 1.400000
v -0.200000 0.200000 1.800000
v 0.200000 -0.200000 1.400000
v 0.200000 -0.200000 1.800000
v 0.200000 0.200000 1.400000
v 0.200000 0.200000 1.800000
v -0.064259 0.184531 1.622228
v 0.064259 0.184531 1.622228
v -0.064259 0.184531 1.500221
v 0.064259 0.184531 1.500221
v -0.064259 0.530944 1.622228
v -0.064259 0.659461 1.622228
v 0.064259 0.530944 1.622228
v 0.064259 0.659461 1.622228
v -0.064259 0.530944 1.500221
v -0.064259 0.659461 1.500221
v 0.064259 0.530944 1.500221
v 0.064259 0.659461 1.500221
v -0.064259 0.735741 0.400000
v -0.064259 0.864259 0.400000
v 0.064259 0.735741 0.400000
v 0.064259 0.864259 0.400000
v -0.080000 0.720000 0.400000
v -0.080000 0.720000 -0.000000
v -0.080000 0.880000 0.400000
v -0.080000 0.880000 -0.000000
v 0.080000 0.720000 0.400000
v 0.080000 0.720000 -0.000000
v 0.080000 0.880000 -0.000000
v 0.080000 0.880000 0.400000
v -0.080000 -0.880000 0.400000
v -0.080000 -0.880000 -0.000000
v -0.080000 -0.720000 -0.000000
v -0.080000 -0.720000 0.400000
v 0.080000 -0.880000 -0.000000
v 0.080000 -0.880000 0.400000
v 0.080000 -0.720000 -0.000000
v 0.080000 -0.720000 0.400000
v -0.064259 -0.864259 0.400000
v -0.064259 -0.735741 0.400000
v 0.064259 -0.864259 0.400000
v 0.064259 -0.735741 0.400000
v -0.064259 -0.659461 1.500220
v -0.064259 -0.530944 1.500220
v 0.064259 -0.659461 1.500220
v 0.064259 -0.530944 1.500220
v -0.064259 -0.659461 1.622227
v -0.064259 -0.530944 1.622227
v 0.064259 -0.659461 1.622227
v 0.064259 -0.530944 1.622227
v -0.064259 -0.184531 1.500220
v 0.064259 -0.184531 1.500220
v -0.064259 -0.184531 1.622227
v 0.064259 -0.184531 1.622227
v -0.184531 -0.064259 1.622228
v -0.184531 0.064259 1.622228
v -0.184531 -0.064259 1.500221
v -0.184531 0.064259 1.500221
v -0.530944 -0.064259 1.622228
v -0.659462 -0.064259 1.622228
v -0.530944 0.064259 1.622228
v -0.659462 0.064259 1.622228
v -0.530944 -0.064259 1.500221
v -0.659462 -0.064259 1.500221
v -0.530944 0.064259 1.500221
v -0.659462 0.064259 1.500221
v -0.735741 -0.064259 0.400000
v -0.864259 -0.064259 0.400000
v -0.735741 0.064259 0.400000
v -0.864259 0.064259 0.400000
v -0.720000 -0.080000 0.400000
v -0.720000 -0.080000 -0.000000
v -0.880000 -0.080000 0.400000
v -0.880000 -0.080000 -0.000000
v -0.720000 0.080000 0.400000
v -0.720000 0.080000 -0.000000
v -0.880000 0.080000 -0.000000
v -0.880000 0.080000 0.400000
v 0.880000 -0.080000 0.400000
v 0.880000 -0.080000 -0.000000
v 0.720000 -0.080000 -0.000000
v 0.720000 -0.080000 0.400000
v 0.880000 0.080000 -0.000000
v 0.880000 0.080000 0.400000
v 0.720000 0.080000 -0.000000
v 0.720000 0.080000 0.400000
v 0.864259 -0.064259 0.400000
v 0.735741 -0.064259 0.400000
v 0.864259 0.064259 0.400000
v 0.735741 0.064259 0.400000
v 0.659461 -0.064259 1.500221
v 0.530944 -0.064259 1.500221
v 0.659461 0.064259 1.500221
v 0.530944 0.064259 1.500221
v 0.659461 -0.064259 1.622228
v 0.530944 -0.064259 1.622228
v 0.659461 0.064259 1.622228
v 0.530944 0.064259 1.622228
v 0.184531 -0.064259 1.500221
v 0.184531 0.064259 1.500221
v 0.184531 -0.064259 1.622228
v 0.184531 0.064259 1.622228
vt 0.500000 0.000000
vt 0.000000 0.500000
vt 0.000000 0.000000
vt 0.500000 0.500000
vt 1.000000 0.500000
vt 0.958333 0.250000
vt 1.000000 0.250000
vt 0.958333 0.500000
vt 0.916667 0.250000
vt 0.916667 0.500000
vt 0.875000 0.250000
vt 0.875000 0.500000
vt 0.833333 0.250000
vt 0.833333 0.500000
vt 0.791667 0.250000
vt 0.791667 0.500000
vt 0.750000 0.250000
vt 0.750000 0.500000
vt 0.708333 0.250000
vt 0.708333 0.500000
vt 0.666667 0.250000
vt 0.666667 0.500000
vt 0.625000 0.250000
vt 0.625000 0.500000
vt 0.583333 0.250000
vt 0.521077 0.185000
vt 0.521077 0.065000
vt 0.625000 0.005000
vt 0.583333 0.500000
vt 0.541667 0.250000
vt 0.541667 0.500000
vt 0.500000 0.250000
vt 0.728923 0.185000
vt 0.685000 0.228923
vt 0.625000 0.245000
vt 0.565000 0.228923
vt 0.505000 0.125000
vt 0.565000 0.021077
vt 0.685000 0.021077
vt 0.728923 0.065000
vt 0.745000 0.125000
vt 0.500000 0.500000
vt 0.804605 0.551822
vt 0.710974 0.500103
vt 0.810478 0.516776
vt 0.922666 0.826042
vt 0.885236 0.926933
vt 0.885236 0.826042
vt 0.667979 0.867219
vt 0.562603 0.848847
vt 0.662107 0.832174
vt 0.699023 0.825988
vt 0.922873 0.625977
vt 0.969472 0.742475
vt 0.922873 0.742475
vt 0.885030 0.899006
vt 0.847600 0.861576
vt 0.885030 0.861576
vt 0.810478 0.877706
vt 0.841521 0.558007
vt 0.847393 0.883892
vt 0.567188 0.930698
vt 0.562603 0.888683
vt 0.567188 0.884098
vt 0.969472 0.859179
vt 0.927457 0.863764
vt 0.922873 0.859179
vt 0.964887 0.621392
vt 0.969472 0.625977
vt 0.500000 0.875000
vt 0.375000 0.750000
vt 0.500000 0.750000
vt 0.885030 0.826042
vt 0.847600 0.826042
vt 0.375000 0.875000
vt 0.250000 0.750000
vt 0.375000 0.750000
vt 0.922873 0.504688
vt 0.964887 0.500103
vt 0.969472 0.504688
vt 0.250000 0.875000
vt 0.125000 0.750000
vt 0.250000 0.750000
vt 0.667980 0.506289
vt 0.125000 0.875000
vt 0.000000 0.750000
vt 0.125000 0.750000
vt 0.885030 0.500103
vt 0.847600 0.500103
vt 0.250000 0.750000
vt 0.125000 0.625000
vt 0.250000 0.625000
vt 0.250000 1.000000
vt 0.125000 0.875000
vt 0.250000 0.875000
vt 0.969472 0.621186
vt 0.922873 0.621186
vt 0.885236 0.500103
vt 0.683686 0.884098
vt 0.683686 0.930698
vt 0.847393 0.522962
vt 0.922873 0.742681
vt 0.969472 0.742681
vt 0.847600 0.899006
vt 0.885030 0.999897
vt 0.847600 0.999897
vt 0.885030 0.899006
vt 0.847600 0.999897
vt 0.847600 0.899006
vt 0.969472 0.859179
vt 0.922873 0.742681
vt 0.969472 0.742681
vt 0.804605 0.551822
vt 0.847393 0.522962
vt 0.841521 0.558007
vt 0.567188 0.930698
vt 0.683686 0.884098
vt 0.683686 0.930698
vt 0.922666 0.500103
vt 0.885236 0.826042
vt 0.885236 0.500103
vt 0.922873 0.504688
vt 0.969472 0.621186
vt 0.922873 0.621186
vt 0.885030 0.500103
vt 0.847600 0.826042
vt 0.847600 0.500103
vt 0.667980 0.506289
vt 0.699023 0.825988
vt 0.662107 0.832174
vt 0.964887 0.500103
vt 0.969472 0.504688
vt 0.885030 0.826042
vt 0.847600 0.861576
vt 0.922873 0.625977
vt 0.964887 0.621392
vt 0.969472 0.625977
vt 0.927457 0.863764
vt 0.922873 0.859179
vt 0.562603 0.888683
vt 0.567188 0.884098
vt 0.810478 0.877706
vt 0.847393 0.883892
vt 0.885030 0.861576
vt 0.969472 0.742475
vt 0.922873 0.742475
vt 0.667979 0.867219
vt 0.562603 0.848847
vt 0.922666 0.826042
vt 0.885236 0.926933
vt 0.710974 0.500103
vt 0.810478 0.516776
vt 0.804605 0.551822
vt 0.710974 0.500103
vt 0.810478 0.516776
vt 0.885236 0.826042
vt 0.922666 0.926933
vt 0.885236 0.926933
vt 0.667979 0.867219
vt 0.562603 0.848847
vt 0.662107 0.832174
vt 0.699023 0.825988
vt 0.922873 0.625977
vt 0.969472 0.742475
vt 0.922873 0.742475
vt 0.847600 0.899006
vt 0.885030 0.861576
vt 0.885030 0.899006
vt 0.810478 0.877706
vt 0.841521 0.558007
vt 0.847393 0.883892
vt 0.567188 0.930698
vt 0.562603 0.888683
vt 0.567188 0.884098
vt 0.969472 0.859179
vt 0.927457 0.863764
vt 0.922873 0.859179
vt 0.964887 0.621392
vt 0.969472 0.625977
vt 0.885030 0.826042
vt 0.847600 0.861576
vt 0.847600 0.826042
vt 0.922873 0.504688
vt 0.964887 0.500103
vt 0.969472 0.504688
vt 0.667980 0.506289
vt 0.885030 0.500103
vt 0.847600 0.500103
vt 0.969472 0.621186
vt 0.922873 0.621186
vt 0.922666 0.500103
vt 0.885236 0.500103
vt 0.683686 0.884098
vt 0.683686 0.930698
vt 0.847393 0.522962
vt 0.922873 0.742681
vt 0.969472 0.742681
vt 0.847600 0.999897
vt 0.885030 0.899006
vt 0.847600 0.999897
vt 0.847600 0.899006
vt 0.969472 0.859179
vt 0.922873 0.742681
vt 0.969472 0.742681
vt 0.804605 0.551822
vt 0.847393 0.522962
vt 0.841521 0.558007
vt 0.567188 0.930698
vt 0.683686 0.884098
vt 0.683686 0.930698
vt 0.922666 0.500103
vt 0.885236 0.826042
vt 0.885236 0.500103
vt 0.922873 0.504688
vt 0.969472 0.621186
vt 0.922873 0.621186
vt 0.885030 0.500103
vt 0.847600 0.826042
vt 0.847600 0.500103
vt 0.667980 0.506289
vt 0.699023 0.825988
vt 0.662107 0.832174
vt 0.969472 0.504688
vt 0.927457 0.500103
vt 0.964887 0.500103
vt 0.885030 0.826042
vt 0.847600 0.861576
vt 0.922873 0.625977
vt 0.964887 0.621392
vt 0.969472 0.625977
vt 0.927457 0.863764
vt 0.922873 0.859179
vt 0.562603 0.888683
vt 0.567188 0.884098
vt 0.810478 0.877706
vt 0.847393 0.883892
vt 0.885030 0.861576
vt 0.969472 0.742475
vt 0.922873 0.742475
vt 0.667979 0.867219
vt 0.562603 0.848847
vt 0.922666 0.826042
vt 0.885236 0.926933
vt 0.710974 0.500103
vt 0.810478 0.516776
vt 0.705101 0.535149
vt 0.922666 0.926933
vt 0.568475 0.883892
vt 0.704895 0.861033
vt 0.562603 0.926113
vt 0.964887 0.863764
vt 0.927457 0.621392
vt 0.375000 0.875000
vt 0.250000 0.875000
vt 0.927457 0.500103
vt 0.125000 0.875000
vt 0.704895 0.500103
vt 0.000000 0.875000
vt 0.125000 0.750000
vt 0.125000 1.000000
vt 0.922666 0.500103
vt 0.885030 0.999897
vt 0.704895 0.500103
vt 0.927457 0.500103
vt 0.927457 0.621392
vt 0.964887 0.863764
vt 0.562603 0.926113
vt 0.704895 0.861033
vt 0.568475 0.883892
vt 0.922666 0.926933
vt 0.705101 0.535149
vt 0.705101 0.535149
vt 0.922666 0.826042
vt 0.568475 0.883892
vt 0.704895 0.861033
vt 0.562603 0.926113
vt 0.964887 0.863764
vt 0.927457 0.621392
vt 0.927457 0.500103
vt 0.704895 0.500103
vt 0.885030 0.999897
vt 0.885030 0.999897
vt 0.704895 0.500103
vt 0.927457 0.621392
vt 0.964887 0.863764
vt 0.562603 0.926113
vt 0.704895 0.861033
vt 0.568475 0.883892
vt 0.922666 0.926933
vt 0.705101 0.535149
vn 0.0000 0.0000 1.0000
vn 0.2588 0.9659 0.0000
vn 0.7071 0.7071 0.0000
vn 0.9659 0.2588 0.0000
vn 0.9659 -0.2588 0.0000
vn 0.7071 -0.7071 0.0000
vn 0.2588 -0.9659 0.0000
vn -0.2588 -0.9659 0.0000
vn -0.7071 -0.7071 0.0000
vn -0.9659 -0.2588 0.0000
vn -0.9659 0.2588 0.0000
vn -0.7071 0.7071 0.0000
vn -0.2588 0.9659 0.0000
vn -1.0000 0.0000 0.0000
vn 0.0000 0.0000 -1.0000
vn 1.0000 -0.0000 0.0000
vn 0.0000 1.0000 0.0000
vn 0.0000 -1.0000 0.0000
vn 0.0000 0.9831 0.1830
vn 0.0000 -0.9831 -0.1830
vn 0.0000 0.9831 -0.1830
vn 0.0000 -0.9831 0.1830
vn -0.9831 0.0000 0.1830
vn 0.9831 0.0000 -0.1830
vn -0.9831 0.0000 -0.1830
vn 0.9831 0.0000 0.1830
s off
f 2/1/1 3/2/1 1/3/1
f 2/1/1 4/4/1 3/2/1
f 8/5/2 9/6/2 7/7/2
f 10/8/3 11/9/3 9/6/3
f 12/10/4 13/11/4 11/9/4
f 14/12/5 15/13/5 13/11/5
f 16/14/6 17/15/6 15/13/6
f 18/16/7 19/17/7 17/15/7
f 20/18/8 21/19/8 19/17/8
f 22/20/9 23/21/9 21/19/9
f 24/22/10 25/23/10 23/21/10
f 26/24/11 27/25/11 25/23/11
f 28/26/1 24/27/1 20/28/1
f 28/29/12 29/30/12 27/25/12
f 30/31/13 7/32/13 29/30/13
f 8/5/2 10/8/2 9/6/2
f 10/8/3 12/10/3 11/9/3
f 12/10/4 14/12/4 13/11/4
f 14/12/5 16/14/5 15/13/5
f 16/14/6 18/16/6 17/15/6
f 18/16/7 20/18/7 19/17/7
f 20/18/8 22/20/8 21/19/8
f 22/20/9 24/22/9 23/21/9
f 24/22/10 26/24/10 25/23/10
f 26/24/11 28/29/11 27/25/11
f 12/33/1 10/34/1 8/35/1
f 8/35/1 30/36/1 28/26/1
f 28/26/1 26/37/1 24/27/1
f 24/27/1 22/38/1 20/28/1
f 20/28/1 18/39/1 16/40/1
f 16/40/1 14/41/1 20/28/1
f 14/41/1 12/33/1 20/28/1
f 12/33/1 8/35/1 20/28/1
f 8/35/1 28/26/1 20/28/1
f 28/29/12 30/31/12 29/30/12
f 30/31/13 8/42/13 7/32/13
f 45/43/14 37/44/14 41/45/14
f 47/46/15 39/47/15 45/48/15
f 43/49/16 40/50/16 47/51/16
f 48/52/16 43/49/16 47/51/16
f 60/53/16 58/54/16 59/55/16
f 41/56/1 44/57/1 42/58/1
f 49/59/14 46/60/14 50/61/14
f 53/62/1 50/63/1 55/64/1
f 57/65/1 49/66/1 53/67/1
f 60/53/1 51/68/1 57/69/1
f 32/70/1 34/71/1 36/72/1
f 46/73/17 44/57/17 48/74/17
f 35/75/15 6/76/15 31/77/15
f 55/78/1 52/79/1 60/80/1
f 34/81/18 6/82/18 33/83/18
f 51/84/16 48/52/16 47/51/16
f 36/85/16 33/86/16 35/87/16
f 50/88/19 48/74/19 52/89/19
f 32/90/17 35/91/17 31/92/17
f 5/93/14 31/94/14 6/95/14
f 55/78/17 59/96/17 56/97/17
f 49/98/20 47/46/20 45/48/20
f 53/62/14 56/99/14 54/100/14
f 45/43/14 42/101/14 46/60/14
f 57/65/18 54/102/18 58/103/18
f 43/104/1 37/105/1 38/106/1
f 80/107/1 83/108/1 78/109/1
f 64/110/17 67/111/17 63/112/17
f 76/113/16 79/114/16 75/115/16
f 68/116/16 65/117/16 67/118/16
f 70/119/21 76/120/21 72/121/21
f 66/122/18 62/123/18 65/124/18
f 71/125/22 73/126/22 69/127/22
f 70/128/14 73/129/14 74/130/14
f 66/122/1 69/131/1 61/132/1
f 75/133/18 77/134/18 73/126/18
f 61/135/1 70/136/1 64/137/1
f 64/110/1 72/138/1 68/139/1
f 68/116/1 71/140/1 66/141/1
f 72/142/16 75/115/16 71/143/16
f 78/109/1 79/144/1 80/107/1
f 61/135/14 63/145/14 62/146/14
f 73/129/14 78/147/14 74/130/14
f 78/147/14 81/148/14 74/130/14
f 74/149/15 82/150/15 76/120/15
f 76/113/16 84/151/16 80/152/16
f 93/153/18 85/154/18 89/155/18
f 93/156/15 88/157/15 87/158/15
f 91/159/17 88/160/17 95/161/17
f 96/162/17 91/159/17 95/161/17
f 108/163/17 106/164/17 107/165/17
f 91/166/1 90/167/1 89/168/1
f 97/169/18 94/170/18 98/171/18
f 101/172/1 98/173/1 103/174/1
f 105/175/1 97/176/1 101/177/1
f 108/163/1 99/178/1 105/179/1
f 94/180/14 92/181/14 96/182/14
f 103/183/1 100/184/1 108/185/1
f 99/186/17 96/162/17 95/161/17
f 98/187/23 96/182/23 100/188/23
f 103/183/14 107/189/14 104/190/14
f 99/191/24 93/156/24 97/192/24
f 101/172/18 104/193/18 102/194/18
f 93/153/18 90/195/18 94/170/18
f 105/175/16 102/196/16 106/197/16
f 89/168/1 86/198/1 91/166/1
f 128/199/1 131/200/1 126/201/1
f 112/202/14 115/203/14 111/204/14
f 124/205/17 127/206/17 123/207/17
f 116/208/17 113/209/17 115/210/17
f 118/211/25 124/212/25 120/213/25
f 114/214/16 110/215/16 113/216/16
f 119/217/26 121/218/26 117/219/26
f 118/220/18 121/221/18 122/222/18
f 109/223/1 119/224/1 117/225/1
f 123/226/16 125/227/16 121/218/16
f 109/228/1 118/229/1 112/230/1
f 112/202/1 120/231/1 116/232/1
f 116/208/1 119/233/1 114/234/1
f 120/235/17 123/207/17 119/236/17
f 126/201/1 127/237/1 128/199/1
f 109/228/18 111/238/18 110/239/18
f 121/221/18 126/240/18 122/222/18
f 126/240/18 129/241/18 122/222/18
f 122/242/15 130/243/15 124/212/15
f 124/205/17 132/244/17 128/245/17
f 45/43/14 39/246/14 37/44/14
f 47/46/15 40/247/15 39/47/15
f 43/49/16 38/248/16 40/50/16
f 48/52/16 44/249/16 43/49/16
f 60/53/16 57/69/16 58/54/16
f 41/56/1 43/104/1 44/57/1
f 49/59/14 45/43/14 46/60/14
f 53/62/1 49/250/1 50/63/1
f 57/65/1 51/251/1 49/66/1
f 60/53/1 52/252/1 51/68/1
f 32/70/1 5/253/1 34/71/1
f 46/73/17 42/58/17 44/57/17
f 35/75/15 33/254/15 6/76/15
f 55/78/1 50/255/1 52/79/1
f 34/81/18 5/256/18 6/82/18
f 51/84/16 52/257/16 48/52/16
f 36/85/16 34/258/16 33/86/16
f 50/88/19 46/73/19 48/74/19
f 32/90/17 36/259/17 35/91/17
f 5/93/14 32/260/14 31/94/14
f 55/78/17 60/80/17 59/96/17
f 49/98/20 51/261/20 47/46/20
f 53/62/14 55/64/14 56/99/14
f 45/43/14 41/45/14 42/101/14
f 57/65/18 53/67/18 54/102/18
f 43/104/1 41/56/1 37/105/1
f 80/107/1 84/262/1 83/108/1
f 64/110/17 68/139/17 67/111/17
f 76/113/16 80/152/16 79/114/16
f 68/116/16 66/141/16 65/117/16
f 70/119/21 74/149/21 76/120/21
f 66/122/18 61/132/18 62/123/18
f 71/125/22 75/133/22 73/126/22
f 70/128/14 69/263/14 73/129/14
f 66/122/1 71/264/1 69/131/1
f 75/133/18 79/144/18 77/134/18
f 61/135/1 69/265/1 70/136/1
f 64/110/1 70/266/1 72/138/1
f 68/116/1 72/267/1 71/140/1
f 72/142/16 76/113/16 75/115/16
f 78/109/1 77/134/1 79/144/1
f 61/135/14 64/137/14 63/145/14
f 73/129/14 77/268/14 78/147/14
f 78/147/14 83/269/14 81/148/14
f 74/149/15 81/270/15 82/150/15
f 76/113/16 82/271/16 84/151/16
f 93/153/18 87/272/18 85/154/18
f 93/156/15 95/273/15 88/157/15
f 91/159/17 86/274/17 88/160/17
f 96/162/17 92/275/17 91/159/17
f 108/163/17 105/179/17 106/164/17
f 91/166/1 92/181/1 90/167/1
f 97/169/18 93/153/18 94/170/18
f 101/172/1 97/276/1 98/173/1
f 105/175/1 99/277/1 97/176/1
f 108/163/1 100/278/1 99/178/1
f 94/180/14 90/167/14 92/181/14
f 103/183/1 98/279/1 100/184/1
f 99/186/17 100/280/17 96/162/17
f 98/187/23 94/180/23 96/182/23
f 103/183/14 108/185/14 107/189/14
f 99/191/24 95/273/24 93/156/24
f 101/172/18 103/174/18 104/193/18
f 93/153/18 89/155/18 90/195/18
f 105/175/16 101/177/16 102/196/16
f 89/168/1 85/281/1 86/198/1
f 128/199/1 132/282/1 131/200/1
f 112/202/14 116/232/14 115/203/14
f 124/205/17 128/245/17 127/206/17
f 116/208/17 114/234/17 113/209/17
f 118/211/25 122/242/25 124/212/25
f 114/214/16 109/223/16 110/215/16
f 119/217/26 123/226/26 121/218/26
f 118/220/18 117/283/18 121/221/18
f 109/223/1 114/214/1 119/224/1
f 123/226/16 127/237/16 125/227/16
f 109/228/1 117/284/1 118/229/1
f 112/202/1 118/285/1 120/231/1
f 116/208/1 120/286/1 119/233/1
f 120/235/17 124/205/17 123/207/17
f 126/201/1 125/227/1 127/237/1
f 109/228/18 112/230/18 111/238/18
f 121/221/18 125/287/18 126/240/18
f 126/240/18 131/288/18 129/241/18
f 122/242/15 129/289/15 130/243/15
f 124/205/17 130/290/17 132/244/17
