# Blender 4.0.0
# www.blender.org
o wTube.002
v 0.863287 0.000000 0.000000
v 0.610436 0.610436 -0.000000
v 0.000000 0.863287 -0.000000
v -0.610436 0.610436 -0.000000
v -0.863287 0.000000 0.000000
v -0.610436 -0.610436 0.000000
v 0.000000 -0.863287 0.000000
v 0.610436 -0.610436 0.000000
v 0.816899 0.000000 2.323719
v 0.577635 0.577635 2.323719
v 0.000000 0.816899 2.323719
v -0.577635 0.577635 2.323719
v -0.816899 0.000000 2.323719
v -0.577635 -0.577635 2.323719
v 0.000000 -0.816899 2.323719
v 0.577635 -0.577635 2.323719
v 0.000000 0.000000 0.000000
v -0.610436 0.610436 2.323719
v -0.863287 0.000000 2.323719
v -0.610436 -0.610436 2.323719
v 0.000000 0.863287 2.323719
v 0.000000 -0.863287 2.323719
v 0.610436 -0.610436 2.323719
v 0.863287 0.000000 2.323719
v 0.610436 0.610436 2.323719
v 0.816899 0.000000 2.252272
v 0.000000 0.000000 2.252272
v 0.577635 0.577635 2.252272
v 0.000000 0.816899 2.252272
v -0.577635 0.577635 2.252272
v -0.816899 0.000000 2.252272
v -0.577635 -0.577635 2.252272
v 0.000000 -0.816899 2.252272
v 0.577635 -0.577635 2.252272
vn 0.7071 0.7071 -0.0000
vn 1.0000 -0.0000 -0.0000
vn -0.0000 1.0000 -0.0000
vn -0.7071 0.7071 -0.0000
vn -1.0000 -0.0000 -0.0000
vn -0.7071 -0.7071 -0.0000
vn -0.0000 -1.0000 -0.0000
vn 0.7071 -0.7071 -0.0000
vn -0.0000 -0.0000 -1.0000
vn -0.0000 -0.0000 1.0000
vt 0.875016 0.000000
vt 0.750032 0.546316
vt 0.750032 0.000000
vt 1.000000 0.000000
vt 0.875016 0.546316
vt 0.125113 0.000000
vt 0.000129 0.546316
vt 0.000129 0.000000
vt 0.250097 0.000000
vt 0.125113 0.546316
vt 0.375081 0.000000
vt 0.250097 0.546316
vt 0.500064 0.000000
vt 0.375081 0.546316
vt 0.625048 0.000000
vt 0.500064 0.546316
vt 0.625048 0.546316
vt 0.635517 0.966482
vt 0.707697 0.792224
vt 0.779877 0.966482
vt 0.125113 0.557222
vt 0.000129 0.574019
vt 0.000129 0.557222
vt 0.881955 0.864404
vt 0.625048 0.557222
vt 0.500064 0.574019
vt 0.500064 0.557222
vt 0.881955 0.720044
vt 0.875016 0.557222
vt 0.750032 0.574019
vt 0.750032 0.557222
vt 0.779877 0.617966
vt 0.375081 0.557222
vt 0.250097 0.574019
vt 0.250097 0.557222
vt 0.635517 0.617966
vt 0.375081 0.574019
vt 0.533439 0.720044
vt 0.625048 0.574019
vt 0.533439 0.864404
vt 1.000000 0.557222
vt 0.875016 0.574019
vt 0.125113 0.574019
vt 1.000000 0.546316
vt 0.160184 0.973558
vt 0.056419 0.869792
vt 0.233557 0.796419
vt 0.056419 0.723045
vt 0.160184 0.619280
vt 0.306931 0.619280
vt 0.410696 0.723045
vt 0.410696 0.869792
vt 0.306931 0.973558
vt 1.000000 0.574019
s 1
f 2/1/1 24/2/2 1/3/2
f 3/4/3 25/5/1 2/1/1
f 4/6/4 21/7/3 3/8/3
f 5/9/5 18/10/4 4/6/4
f 6/11/6 19/12/5 5/9/5
f 7/13/7 20/14/6 6/11/6
f 8/15/8 22/16/7 7/13/7
f 1/3/2 23/17/8 8/15/8
f 1/18/9 17/19/9 2/20/9
f 12/21/8 29/22/7 11/23/7
f 2/20/9 17/19/9 3/24/9
f 16/25/4 33/26/3 15/27/3
f 3/24/9 17/19/9 4/28/9
f 10/29/6 26/30/5 9/31/5
f 4/28/9 17/19/9 5/32/9
f 14/33/1 31/34/2 13/35/2
f 5/32/9 17/19/9 6/36/9
f 15/27/3 32/37/1 14/33/1
f 6/36/9 17/19/9 7/38/9
f 9/31/5 34/39/4 16/25/4
f 7/38/9 17/19/9 8/40/9
f 11/41/7 28/42/6 10/29/6
f 8/40/9 17/19/9 1/18/9
f 13/35/2 30/43/8 12/21/8
f 12/21/10 19/12/10 13/35/10
f 13/35/10 20/14/10 14/33/10
f 11/23/10 18/10/10 12/21/10
f 14/33/10 22/16/10 15/27/10
f 15/27/10 23/17/10 16/25/10
f 16/25/10 24/2/10 9/31/10
f 9/31/10 25/5/10 10/29/10
f 10/29/10 21/44/10 11/41/10
f 26/45/10 28/46/10 27/47/10
f 28/46/10 29/48/10 27/47/10
f 29/48/10 30/49/10 27/47/10
f 30/49/10 31/50/10 27/47/10
f 31/50/10 32/51/10 27/47/10
f 32/51/10 33/52/10 27/47/10
f 33/52/10 34/53/10 27/47/10
f 34/53/10 26/45/10 27/47/10
f 2/1/1 25/5/1 24/2/2
f 3/4/3 21/44/3 25/5/1
f 4/6/4 18/10/4 21/7/3
f 5/9/5 19/12/5 18/10/4
f 6/11/6 20/14/6 19/12/5
f 7/13/7 22/16/7 20/14/6
f 8/15/8 23/17/8 22/16/7
f 1/3/2 24/2/2 23/17/8
f 12/21/8 30/43/8 29/22/7
f 16/25/4 34/39/4 33/26/3
f 10/29/6 28/42/6 26/30/5
f 14/33/1 32/37/1 31/34/2
f 15/27/3 33/26/3 32/37/1
f 9/31/5 26/30/5 34/39/4
f 11/41/7 29/54/7 28/42/6
f 13/35/2 31/34/2 30/43/8
f 12/21/10 18/10/10 19/12/10
f 13/35/10 19/12/10 20/14/10
f 11/23/10 21/7/10 18/10/10
f 14/33/10 20/14/10 22/16/10
f 15/27/10 22/16/10 23/17/10
f 16/25/10 23/17/10 24/2/10
f 9/31/10 24/2/10 25/5/10
f 10/29/10 25/5/10 21/44/10
