# Blender v2.93.4 OBJ File: ''
# www.blender.org
mtllib Blue_Barrel.mtl
o wTube.002
v 0.863287 0.000000 0.000000
v 0.610436 0.000000 -0.610436
v 0.000000 0.000000 -0.863287
v -0.610436 0.000000 -0.610436
v -0.863287 0.000000 -0.000000
v -0.610436 0.000000 0.610436
v 0.000000 0.000000 0.863287
v 0.610436 0.000000 0.610436
v 0.816899 2.323719 0.000000
v 0.577635 2.323719 -0.577635
v 0.000000 2.323719 -0.816899
v -0.577635 2.323719 -0.577635
v -0.816899 2.323719 -0.000000
v -0.577635 2.323719 0.577635
v 0.000000 2.323719 0.816899
v 0.577635 2.323719 0.577635
v 0.000000 0.000000 0.000000
v -0.610436 2.323719 -0.610436
v -0.863287 2.323719 -0.000000
v -0.610436 2.323719 0.610436
v 0.000000 2.323719 -0.863287
v 0.000000 2.323719 0.863287
v 0.610436 2.323719 0.610436
v 0.863287 2.323719 0.000000
v 0.610436 2.323719 -0.610436
v 0.816899 2.252272 0.000000
v 0.000000 2.252272 0.000000
v 0.577635 2.252272 -0.577635
v 0.000000 2.252272 -0.816899
v -0.577635 2.252272 -0.577635
v -0.816899 2.252272 -0.000000
v -0.577635 2.252272 0.577635
v 0.000000 2.252272 0.816899
v 0.577635 2.252272 0.577635
vt 0.750032 0.000000
vt 0.875016 0.000000
vt 0.875016 0.546316
vt 0.750032 0.546316
vt 1.000000 0.000000
vt 1.000000 0.546316
vt 0.000129 0.000000
vt 0.125113 0.000000
vt 0.125113 0.546316
vt 0.000129 0.546316
vt 0.250097 0.000000
vt 0.250097 0.546316
vt 0.375081 0.000000
vt 0.375081 0.546316
vt 0.500064 0.000000
vt 0.500064 0.546316
vt 0.625048 0.000000
vt 0.625048 0.546316
vt 0.635517 0.966482
vt 0.707697 0.792224
vt 0.779877 0.966482
vt 0.000129 0.557222
vt 0.125113 0.557222
vt 0.125113 0.574019
vt 0.000129 0.574019
vt 0.881955 0.864404
vt 0.500064 0.557222
vt 0.625048 0.557222
vt 0.625048 0.574019
vt 0.500064 0.574019
vt 0.881955 0.720044
vt 0.750032 0.557222
vt 0.875016 0.557222
vt 0.875016 0.574019
vt 0.750032 0.574019
vt 0.779877 0.617966
vt 0.250097 0.557222
vt 0.375081 0.557222
vt 0.375081 0.574019
vt 0.250097 0.574019
vt 0.635517 0.617966
vt 0.533439 0.720044
vt 0.533439 0.864404
vt 1.000000 0.557222
vt 1.000000 0.574019
vt 0.160184 0.973558
vt 0.056419 0.869792
vt 0.233557 0.796419
vt 0.056419 0.723045
vt 0.160184 0.619280
vt 0.306931 0.619280
vt 0.410696 0.723045
vt 0.410696 0.869792
vt 0.306931 0.973558
vn 1.0000 0.0000 -0.0000
vn 0.7071 0.0000 -0.7071
vn -0.0000 0.0000 -1.0000
vn -0.7071 0.0000 -0.7071
vn -1.0000 0.0000 -0.0000
vn -0.7071 0.0000 0.7071
vn 0.0000 0.0000 1.0000
vn 0.7071 0.0000 0.7071
vn 0.0000 -1.0000 0.0000
vn 0.0000 1.0000 0.0000
usemtl Black_Barrel
s 1
f 1/1/1 2/2/2 25/3/2 24/4/1
f 2/2/2 3/5/3 21/6/3 25/3/2
f 3/7/3 4/8/4 18/9/4 21/10/3
f 4/8/4 5/11/5 19/12/5 18/9/4
f 5/11/5 6/13/6 20/14/6 19/12/5
f 6/13/6 7/15/7 22/16/7 20/14/6
f 7/15/7 8/17/8 23/18/8 22/16/7
f 8/17/8 1/1/1 24/4/1 23/18/8
f 1/19/9 17/20/9 2/21/9
f 11/22/7 12/23/8 30/24/8 29/25/7
f 2/21/9 17/20/9 3/26/9
f 15/27/3 16/28/4 34/29/4 33/30/3
f 3/26/9 17/20/9 4/31/9
f 9/32/5 10/33/6 28/34/6 26/35/5
f 4/31/9 17/20/9 5/36/9
f 13/37/1 14/38/2 32/39/2 31/40/1
f 5/36/9 17/20/9 6/41/9
f 14/38/2 15/27/3 33/30/3 32/39/2
f 6/41/9 17/20/9 7/42/9
f 16/28/4 9/32/5 26/35/5 34/29/4
f 7/42/9 17/20/9 8/43/9
f 10/33/6 11/44/7 29/45/7 28/34/6
f 8/43/9 17/20/9 1/19/9
f 12/23/8 13/37/1 31/40/1 30/24/8
f 13/37/10 12/23/10 18/9/10 19/12/10
f 14/38/10 13/37/10 19/12/10 20/14/10
f 12/23/10 11/22/10 21/10/10 18/9/10
f 15/27/10 14/38/10 20/14/10 22/16/10
f 16/28/10 15/27/10 22/16/10 23/18/10
f 9/32/10 16/28/10 23/18/10 24/4/10
f 10/33/10 9/32/10 24/4/10 25/3/10
f 11/44/10 10/33/10 25/3/10 21/6/10
f 26/46/10 28/47/10 27/48/10
f 28/47/10 29/49/10 27/48/10
f 29/49/10 30/50/10 27/48/10
f 30/50/10 31/51/10 27/48/10
f 31/51/10 32/52/10 27/48/10
f 32/52/10 33/53/10 27/48/10
f 33/53/10 34/54/10 27/48/10
f 34/54/10 26/46/10 27/48/10
