# Blender v2.93.3 OBJ File: 'expansion_bay_extension.blend'
# www.blender.org
o Cube
v -0.721793 -0.593658 -0.282742
v -0.850022 -0.308600 -0.276145
v 0.721793 -0.593658 -0.282743
v 0.850022 -0.308599 -0.276145
v -0.721793 -2.023541 -0.282742
v -0.850022 -2.308600 -0.276145
v 0.721793 -2.023541 -0.282743
v 0.850022 -2.308599 -0.276145
v -0.730601 -0.308600 0.190874
v 0.730601 -0.308599 0.190874
v -0.730601 -2.308599 0.190874
v 0.730601 -2.308599 0.190874
v -0.000000 -0.593658 -0.282742
v -0.000000 -0.008599 -0.259784
v -0.000000 -2.023541 -0.282742
v -0.000000 -2.608600 -0.259784
v 0.000000 -0.132547 0.365599
v 0.000000 -2.484652 0.365599
v 0.000000 -0.408599 0.504523
v 0.563340 -0.591933 0.410984
v 0.563341 -2.025266 0.410984
v 0.000000 -2.208600 0.504523
v -0.563340 -2.025266 0.410985
v -0.563340 -0.591933 0.410985
v 0.936388 -0.647561 -0.170807
v 0.936388 -1.969638 -0.170807
v -0.936388 -1.969638 -0.170806
v -0.936389 -0.647561 -0.170806
v 0.798600 -0.647561 0.113415
v 0.798601 -1.969638 0.113415
v -0.798600 -1.969638 0.113416
v -0.798600 -0.647561 0.113416
v -0.000000 -0.000183 -0.173534
v 0.297942 -0.000183 -0.173534
v 0.000000 -2.617016 -0.173534
v -0.297942 -2.617016 -0.173533
v 0.000000 -0.000183 0.228966
v 0.275765 -0.000183 0.228966
v 0.000000 -2.617016 0.228966
v -0.275765 -2.617016 0.228967
v 0.275765 -2.617016 0.228966
v 0.297942 -2.617016 -0.173534
v -0.297942 -0.000183 -0.173533
v -0.275765 -0.000183 0.228967
v 0.121590 -0.739155 0.488933
v 0.469450 -0.800266 0.426574
v 0.469451 -1.816933 0.426574
v 0.121590 -1.878044 0.488933
v -0.121589 -1.878044 0.488933
v -0.469450 -1.816933 0.426575
v -0.469450 -0.800266 0.426575
v -0.121589 -0.739155 0.488933
v 0.121590 -0.739155 0.451530
v 0.469450 -0.800266 0.389171
v 0.469450 -1.816933 0.389171
v 0.121590 -1.878044 0.451530
v -0.121589 -1.878044 0.451530
v -0.469450 -1.816933 0.389172
v -0.469450 -0.800266 0.389172
v -0.121589 -0.739155 0.451530
v -0.000000 -0.760747 -0.257147
v -0.553103 -0.760747 -0.257147
v 0.553102 -1.856452 -0.257147
v 0.553102 -0.760747 -0.257147
v -0.000000 -1.856451 -0.257147
v -0.553103 -1.856451 -0.257147
vt 0.193708 0.000287
vt 0.272381 0.195129
vt 0.193421 0.195300
vt 0.388386 0.479327
vt 0.274303 0.351812
vt 0.194965 0.547580
vt 0.116292 0.352739
vt 0.195252 0.352568
vt 0.000287 0.068540
vt 0.114370 0.196056
vt 0.272381 0.195129
vt 0.356248 0.961920
vt 0.233757 0.883532
vt 0.325205 0.884606
vt 0.000287 0.744685
vt 0.053681 0.691684
vt 0.051576 0.744620
vt 0.870054 0.701959
vt 0.839987 0.639166
vt 0.872673 0.505758
vt 0.932295 0.414052
vt 0.809804 0.335665
vt 0.901252 0.336739
vt 0.686618 0.702288
vt 0.740640 0.754113
vt 0.714430 0.873848
vt 0.713480 0.529867
vt 0.740012 0.649288
vt 0.116292 0.352739
vt 0.388961 0.542895
vt 0.413718 0.791040
vt 0.388961 0.833241
vt 0.686044 0.542895
vt 0.562259 0.572718
vt 0.537502 0.505758
vt 0.236559 0.628155
vt 0.326139 0.625785
vt 0.812606 0.080288
vt 0.902186 0.077917
vt 0.356248 0.548155
vt 0.932295 0.000287
vt 0.763488 0.003636
vt 0.187441 0.551504
vt 0.762964 0.413211
vt 0.186917 0.961078
vt 0.497672 0.934762
vt 0.388961 0.990092
vt 0.388961 0.934762
vt 0.498246 0.934762
vt 0.606957 0.879431
vt 0.606957 0.934762
vt 0.606957 0.990092
vt 0.498246 0.998570
vt 0.388961 0.879431
vt 0.497672 0.870953
vt 0.183723 0.744356
vt 0.153656 0.681563
vt 0.186342 0.548155
vt 0.028099 0.916245
vt 0.153518 0.808146
vt 0.186342 0.940942
vt 0.027149 0.572264
vt 0.839849 0.765749
vt 0.844526 0.701815
vt 0.872673 0.898545
vt 0.054309 0.796510
vt 0.737908 0.702223
vt 0.158195 0.744212
vt 0.686044 0.833241
vt 0.661287 0.585097
vt 0.537502 0.870378
vt 0.562259 0.803419
vt 0.661287 0.791040
vt 0.512745 0.572718
vt 0.512745 0.803419
vt 0.413718 0.585097
vt 0.195252 0.352568
vt 0.114370 0.196056
vt 0.193421 0.195300
vt 0.274303 0.351812
vt 0.388386 0.069895
vt 0.000287 0.477972
vt 0.497672 0.998570
vt 0.498246 0.870953
vt 0.888295 0.536972
vt 0.987019 0.727764
vt 0.883620 0.723113
vt 0.989660 0.751718
vt 0.883620 0.957077
vt 0.888295 0.770936
vt 0.989660 0.517754
vt 0.987019 0.961728
vt 0.579806 0.000287
vt 0.436754 0.115785
vt 0.395570 0.046801
vt 0.722222 0.117276
vt 0.579446 0.072732
vt 0.574531 0.505183
vt 0.720051 0.390326
vt 0.762389 0.459924
vt 0.430038 0.388549
vt 0.388961 0.457486
vt 0.574941 0.431381
vt 0.762389 0.048862
vt 0.873248 0.971344
vt 0.999713 0.973111
vt 0.875409 0.523709
vt 0.873248 0.737381
vt 0.875409 0.757672
vt 0.999713 0.739147
vt 0.999713 0.739722
vt 0.999713 0.505758
vn -0.0000 0.0392 -0.9992
vn 0.0514 0.0000 -0.9987
vn -0.0000 -0.0392 -0.9992
vn -0.0514 0.0000 -0.9987
vn -0.1500 0.0000 -0.9887
vn 0.8453 0.3427 0.4098
vn 0.0000 0.7182 0.6958
vn -0.2029 -0.6163 -0.7609
vn -0.8453 -0.3427 0.4098
vn 0.2927 -0.3203 0.9010
vn -0.5627 -0.8261 0.0310
vn 0.1500 0.0000 -0.9887
vn -0.1638 -0.0000 0.9865
vn 0.1687 -0.0156 0.9855
vn 0.8998 0.0000 0.4362
vn -0.8998 0.0000 0.4362
vn 0.7733 0.0000 -0.6340
vn -0.9598 0.1365 0.2454
vn 0.9598 -0.1365 0.2454
vn -0.7515 0.0000 0.6597
vn 0.7515 0.0000 0.6597
vn -0.7733 -0.0000 -0.6340
vn 0.0000 -1.0000 0.0000
vn -0.0000 1.0000 0.0000
vn 0.2029 0.6163 -0.7609
vn -0.5017 0.8555 0.1283
vn 0.5627 0.8261 0.0310
vn 0.0000 -0.9953 -0.0971
vn 0.5017 -0.8555 0.1283
vn -0.2927 0.3203 0.9010
vn 0.0000 -0.7182 0.6958
vn -0.0000 0.9953 -0.0971
vn 0.1638 0.0000 0.9865
vn 0.1272 0.0000 0.9919
vn 0.1755 -0.0054 0.9845
vn -0.1272 -0.0000 0.9919
vn -0.1687 0.0156 0.9855
vn -0.1755 0.0054 0.9845
vn -0.0000 0.0000 -1.0000
vn -0.0000 0.1514 -0.9885
vn -0.0000 -0.1514 -0.9885
vn -0.0096 0.0274 -0.9996
vn 0.0096 -0.0274 -0.9996
vn 0.9598 0.1365 0.2454
vn 0.2927 0.3203 0.9010
vn -0.9598 -0.1365 0.2454
vn -0.5017 -0.8555 0.1283
vn -0.0096 -0.0274 -0.9996
vn 0.0096 0.0274 -0.9996
vn 0.1755 0.0054 0.9845
vn -0.8453 0.3427 0.4098
vn 0.8453 -0.3427 0.4098
vn -0.5627 0.8261 0.0310
vn 0.5017 0.8555 0.1283
vn 0.2029 -0.6163 -0.7609
vn 0.5627 -0.8261 0.0310
vn -0.2927 -0.3203 0.9010
vn -0.2029 0.6163 -0.7609
vn 0.1687 0.0156 0.9855
vn -0.1755 -0.0054 0.9845
vn -0.1687 -0.0156 0.9855
vn 0.1765 0.0000 0.9843
vn -0.1765 0.0000 0.9843
vn -0.3101 -0.4623 0.8307
vn 0.2826 -0.4312 0.8568
vn 0.3101 0.4623 0.8307
vn -0.7962 -0.0000 0.6050
vn -0.2826 0.4312 0.8568
vn 0.7962 0.0000 0.6050
vn -0.2826 -0.4312 0.8568
vn 0.3101 -0.4623 0.8307
vn 0.2826 0.4312 0.8568
vn -0.3101 0.4623 0.8307
vn 0.1730 -0.9849 0.0000
vn -1.0000 0.0000 0.0000
vn 0.1730 0.9849 -0.0000
vn -0.1730 0.9849 0.0000
vn -0.1730 -0.9849 0.0000
vn 1.0000 0.0000 0.0000
s off
f 14/1/1 3/2/1 13/3/1
f 3/2/2 8/4/2 7/5/2
f 16/6/3 5/7/3 15/8/3
f 5/7/4 2/9/4 1/10/4
f 7/5/5 64/11/5 3/2/5
f 4/12/6 29/13/6 25/14/6
f 17/15/7 38/16/7 37/17/7
f 16/18/8 36/19/8 6/20/8
f 6/21/9 31/22/9 27/23/9
f 18/24/10 41/25/10 12/26/10
f 11/27/11 36/19/11 40/28/11
f 1/10/12 66/29/12 5/7/12
f 7/5/3 16/6/3 15/8/3
f 1/10/1 14/1/1 13/3/1
f 23/30/13 51/31/13 24/32/13
f 21/33/14 48/34/14 22/35/14
f 25/14/15 30/36/15 26/37/15
f 27/23/16 32/38/16 28/39/16
f 8/40/17 25/14/17 26/37/17
f 2/41/18 32/38/18 9/42/18
f 8/40/19 30/36/19 12/43/19
f 9/42/20 31/22/20 11/44/20
f 12/43/21 29/13/21 10/45/21
f 6/21/22 28/39/22 2/41/22
f 35/46/23 41/47/23 39/48/23
f 33/49/24 44/50/24 37/51/24
f 33/49/24 38/52/24 34/53/24
f 35/46/23 40/54/23 36/55/23
f 14/56/25 34/57/25 4/58/25
f 9/59/26 43/60/26 2/61/26
f 10/62/27 34/57/27 38/16/27
f 16/18/28 42/63/28 35/64/28
f 12/26/29 42/63/29 8/65/29
f 17/15/30 44/66/30 9/59/30
f 18/24/31 40/28/31 39/67/31
f 14/56/32 43/60/32 33/68/32
f 20/69/33 47/70/33 21/33/33
f 19/71/34 48/34/34 45/72/34
f 20/69/35 45/72/35 46/73/35
f 19/71/36 49/74/36 22/35/36
f 24/32/37 52/75/37 19/71/37
f 23/30/38 49/74/38 50/76/38
f 65/77/39 62/78/39 61/79/39
f 63/80/39 61/79/39 64/11/39
f 15/8/40 66/29/40 65/77/40
f 13/3/41 62/78/41 1/10/41
f 13/3/41 64/11/41 61/79/41
f 15/8/40 63/80/40 7/5/40
f 14/1/42 4/81/42 3/2/42
f 3/2/2 4/81/2 8/4/2
f 16/6/43 6/82/43 5/7/43
f 5/7/4 6/82/4 2/9/4
f 7/5/5 63/80/5 64/11/5
f 4/12/44 10/45/44 29/13/44
f 17/15/45 10/62/45 38/16/45
f 16/18/28 35/64/28 36/19/28
f 6/21/46 11/44/46 31/22/46
f 18/24/31 39/67/31 41/25/31
f 11/27/47 6/20/47 36/19/47
f 1/10/12 62/78/12 66/29/12
f 7/5/48 8/4/48 16/6/48
f 1/10/49 2/9/49 14/1/49
f 23/30/13 50/76/13 51/31/13
f 21/33/50 47/70/50 48/34/50
f 25/14/15 29/13/15 30/36/15
f 27/23/16 31/22/16 32/38/16
f 8/40/17 4/12/17 25/14/17
f 2/41/51 28/39/51 32/38/51
f 8/40/52 26/37/52 30/36/52
f 9/42/20 32/38/20 31/22/20
f 12/43/21 30/36/21 29/13/21
f 6/21/22 27/23/22 28/39/22
f 35/46/23 42/83/23 41/47/23
f 33/49/24 43/84/24 44/50/24
f 33/49/24 37/51/24 38/52/24
f 35/46/23 39/48/23 40/54/23
f 14/56/32 33/68/32 34/57/32
f 9/59/53 44/66/53 43/60/53
f 10/62/54 4/58/54 34/57/54
f 16/18/55 8/65/55 42/63/55
f 12/26/56 41/25/56 42/63/56
f 17/15/7 37/17/7 44/66/7
f 18/24/57 11/27/57 40/28/57
f 14/56/58 2/61/58 43/60/58
f 20/69/33 46/73/33 47/70/33
f 19/71/34 22/35/34 48/34/34
f 20/69/59 19/71/59 45/72/59
f 19/71/36 52/75/36 49/74/36
f 24/32/60 51/31/60 52/75/60
f 23/30/61 22/35/61 49/74/61
f 65/77/39 66/29/39 62/78/39
f 63/80/39 65/77/39 61/79/39
f 15/8/40 5/7/40 66/29/40
f 13/3/41 61/79/41 62/78/41
f 13/3/41 3/2/41 64/11/41
f 15/8/40 65/77/40 63/80/40
f 54/85/62 56/86/62 55/87/62
f 57/88/63 59/89/63 58/90/63
f 54/85/62 53/91/62 56/86/62
f 57/88/63 60/92/63 59/89/63
f 18/93/64 23/94/64 11/95/64
f 18/93/65 21/96/65 22/97/65
f 17/98/66 20/99/66 10/100/66
f 11/95/67 24/101/67 9/102/67
f 17/98/68 24/101/68 19/103/68
f 10/100/69 21/96/69 12/104/69
f 18/93/70 22/97/70 23/94/70
f 18/93/71 12/104/71 21/96/71
f 17/98/72 19/103/72 20/99/72
f 11/95/67 23/94/67 24/101/67
f 17/98/73 9/102/73 24/101/73
f 10/100/69 20/99/69 21/96/69
f 51/105/74 60/92/74 52/106/74
f 46/107/75 55/87/75 47/108/75
f 50/109/76 57/88/76 58/90/76
f 47/108/77 56/86/77 48/110/77
f 52/106/75 57/88/75 49/111/75
f 46/107/78 53/91/78 54/85/78
f 50/109/79 59/89/79 51/105/79
f 48/110/79 53/91/79 45/112/79
f 51/105/74 59/89/74 60/92/74
f 46/107/75 54/85/75 55/87/75
f 50/109/76 49/111/76 57/88/76
f 47/108/77 55/87/77 56/86/77
f 52/106/75 60/92/75 57/88/75
f 46/107/78 45/112/78 53/91/78
f 50/109/79 58/90/79 59/89/79
f 48/110/79 56/86/79 53/91/79
