{
    "asset" : {
        "generator" : "Khronos glTF Blender I/O v1.6.16",
        "version" : "2.0"
    },
    "scene" : 0,
    "scenes" : [
        {
            "name" : "Scene",
            "nodes" : [
                0,
                4
            ]
        }
    ],
    "nodes" : [
        {
            "mesh" : 0,
            "name" : "Cylinder"
        },
        {
            "name" : "Bone.001",
            "rotation" : [
                5.960464477539063e-08,
                0,
                -1.1383407915290314e-14,
                1
            ],
            "translation" : [
                0,
                1,
                -9.211483301390516e-21
            ]
        },
        {
            "children" : [
                1
            ],
            "name" : "Bone",
            "rotation" : [
                1,
                2.220446049250313e-16,
                -1.9470718370939721e-07,
                5.960464477539063e-08
            ],
            "translation" : [
                0,
                1,
                0
            ]
        },
        {
            "mesh" : 1,
            "name" : "Circle",
            "skin" : 0
        },
        {
            "children" : [
                3,
                2
            ],
            "name" : "Armature"
        }
    ],
    "animations" : [
        {
            "channels" : [
                {
                    "sampler" : 0,
                    "target" : {
                        "node" : 2,
                        "path" : "translation"
                    }
                },
                {
                    "sampler" : 1,
                    "target" : {
                        "node" : 2,
                        "path" : "rotation"
                    }
                },
                {
                    "sampler" : 2,
                    "target" : {
                        "node" : 2,
                        "path" : "scale"
                    }
                },
                {
                    "sampler" : 3,
                    "target" : {
                        "node" : 1,
                        "path" : "translation"
                    }
                },
                {
                    "sampler" : 4,
                    "target" : {
                        "node" : 1,
                        "path" : "rotation"
                    }
                },
                {
                    "sampler" : 5,
                    "target" : {
                        "node" : 1,
                        "path" : "scale"
                    }
                }
            ],
            "name" : "ArmatureAction",
            "samplers" : [
                {
                    "input" : 11,
                    "interpolation" : "LINEAR",
                    "output" : 12
                },
                {
                    "input" : 11,
                    "interpolation" : "LINEAR",
                    "output" : 13
                },
                {
                    "input" : 11,
                    "interpolation" : "LINEAR",
                    "output" : 14
                },
                {
                    "input" : 11,
                    "interpolation" : "LINEAR",
                    "output" : 15
                },
                {
                    "input" : 11,
                    "interpolation" : "LINEAR",
                    "output" : 16
                },
                {
                    "input" : 11,
                    "interpolation" : "LINEAR",
                    "output" : 17
                }
            ]
        }
    ],
    "meshes" : [
        {
            "name" : "Cylinder",
            "primitives" : [
                {
                    "attributes" : {
                        "POSITION" : 0,
                        "NORMAL" : 1,
                        "TEXCOORD_0" : 2
                    },
                    "indices" : 3
                }
            ]
        },
        {
            "name" : "Circle.001",
            "primitives" : [
                {
                    "attributes" : {
                        "POSITION" : 4,
                        "NORMAL" : 5,
                        "TEXCOORD_0" : 6,
                        "JOINTS_0" : 7,
                        "WEIGHTS_0" : 8
                    },
                    "indices" : 9
                }
            ]
        }
    ],
    "skins" : [
        {
            "inverseBindMatrices" : 10,
            "joints" : [
                2,
                1
            ],
            "name" : "Armature"
        }
    ],
    "accessors" : [
        {
            "bufferView" : 0,
            "componentType" : 5126,
            "count" : 1130,
            "max" : [
                2.579231023788452,
                0.44716206192970276,
                2.579231023788452
            ],
            "min" : [
                -2.5792315006256104,
                -0.44716137647628784,
                -2.5792315006256104
            ],
            "type" : "VEC3"
        },
        {
            "bufferView" : 1,
            "componentType" : 5126,
            "count" : 1130,
            "type" : "VEC3"
        },
        {
            "bufferView" : 2,
            "componentType" : 5126,
            "count" : 1130,
            "type" : "VEC2"
        },
        {
            "bufferView" : 3,
            "componentType" : 5123,
            "count" : 1728,
            "type" : "SCALAR"
        },
        {
            "bufferView" : 4,
            "componentType" : 5126,
            "count" : 192,
            "max" : [
                2.200000047683716,
                1.3113022134803032e-07,
                2.200000047683716
            ],
            "min" : [
                -2.200000047683716,
                -1.3113022134803032e-07,
                -2.200000047683716
            ],
            "type" : "VEC3"
        },
        {
            "bufferView" : 5,
            "componentType" : 5126,
            "count" : 192,
            "type" : "VEC3"
        },
        {
            "bufferView" : 6,
            "componentType" : 5126,
            "count" : 192,
            "type" : "VEC2"
        },
        {
            "bufferView" : 7,
            "componentType" : 5121,
            "count" : 192,
            "type" : "VEC4"
        },
        {
            "bufferView" : 8,
            "componentType" : 5126,
            "count" : 192,
            "type" : "VEC4"
        },
        {
            "bufferView" : 9,
            "componentType" : 5123,
            "count" : 1050,
            "type" : "SCALAR"
        },
        {
            "bufferView" : 10,
            "componentType" : 5126,
            "count" : 2,
            "type" : "MAT4"
        },
        {
            "bufferView" : 11,
            "componentType" : 5126,
            "count" : 51,
            "max" : [
                2.0833333333333335
            ],
            "min" : [
                0
            ],
            "type" : "SCALAR"
        },
        {
            "bufferView" : 12,
            "componentType" : 5126,
            "count" : 51,
            "type" : "VEC3"
        },
        {
            "bufferView" : 13,
            "componentType" : 5126,
            "count" : 51,
            "type" : "VEC4"
        },
        {
            "bufferView" : 14,
            "componentType" : 5126,
            "count" : 51,
            "type" : "VEC3"
        },
        {
            "bufferView" : 15,
            "componentType" : 5126,
            "count" : 51,
            "type" : "VEC3"
        },
        {
            "bufferView" : 16,
            "componentType" : 5126,
            "count" : 51,
            "type" : "VEC4"
        },
        {
            "bufferView" : 17,
            "componentType" : 5126,
            "count" : 51,
            "type" : "VEC3"
        }
    ],
    "bufferViews" : [
        {
            "buffer" : 0,
            "byteLength" : 13560,
            "byteOffset" : 0
        },
        {
            "buffer" : 0,
            "byteLength" : 13560,
            "byteOffset" : 13560
        },
        {
            "buffer" : 0,
            "byteLength" : 9040,
            "byteOffset" : 27120
        },
        {
            "buffer" : 0,
            "byteLength" : 3456,
            "byteOffset" : 36160
        },
        {
            "buffer" : 0,
            "byteLength" : 2304,
            "byteOffset" : 39616
        },
        {
            "buffer" : 0,
            "byteLength" : 2304,
            "byteOffset" : 41920
        },
        {
            "buffer" : 0,
            "byteLength" : 1536,
            "byteOffset" : 44224
        },
        {
            "buffer" : 0,
            "byteLength" : 768,
            "byteOffset" : 45760
        },
        {
            "buffer" : 0,
            "byteLength" : 3072,
            "byteOffset" : 46528
        },
        {
            "buffer" : 0,
            "byteLength" : 2100,
            "byteOffset" : 49600
        },
        {
            "buffer" : 0,
            "byteLength" : 128,
            "byteOffset" : 51700
        },
        {
            "buffer" : 0,
            "byteLength" : 204,
            "byteOffset" : 51828
        },
        {
            "buffer" : 0,
            "byteLength" : 612,
            "byteOffset" : 52032
        },
        {
            "buffer" : 0,
            "byteLength" : 816,
            "byteOffset" : 52644
        },
        {
            "buffer" : 0,
            "byteLength" : 612,
            "byteOffset" : 53460
        },
        {
            "buffer" : 0,
            "byteLength" : 612,
            "byteOffset" : 54072
        },
        {
            "buffer" : 0,
            "byteLength" : 816,
            "byteOffset" : 54684
        },
        {
            "buffer" : 0,
            "byteLength" : 612,
            "byteOffset" : 55500
        }
    ],
    "buffers" : [
        {
            "byteLength" : 56112,
            "uri" : "data:application/octet-stream;base64,"
        }
    ]
}
