# Blender v2.93.3 OBJ File: 'solar_collector_single.blend'
# www.blender.org
o Cylinder
v -0.762020 -1.500000 0.523246
v -0.299724 -0.000000 -0.299502
v -0.342298 -1.500000 0.930215
v 0.299724 -0.000000 -0.299502
v 0.342298 -1.500000 0.930215
v 0.299724 0.000000 -0.000000
v 0.762020 -1.500000 -0.523245
v 0.299724 0.000000 0.299502
v 0.342298 -1.500000 -0.930214
v -0.299724 0.000000 0.299502
v -0.342298 -1.500000 -0.930215
v -0.299724 -0.000000 0.000000
v -0.565633 -1.200000 -1.224631
v -0.565633 -0.700000 -1.224632
v 0.565633 -1.200000 -1.224631
v 0.565633 -0.700000 -1.224632
v 1.003203 -1.200000 -0.303647
v 1.003203 -0.800000 -0.303647
v 0.565633 -1.200000 1.224632
v 0.565633 -0.700000 1.224631
v -0.565633 -1.200000 1.224632
v -0.565633 -0.700000 1.224631
v -1.003203 -1.200000 0.303648
v -1.003203 -0.800000 0.303648
v -0.338193 -0.570800 -0.905162
v 0.338193 -0.570800 -0.905163
v 0.591838 -0.570800 0.000000
v 0.338193 -0.570800 0.905162
v -0.338193 -0.570800 0.905162
v -0.591838 -0.570800 0.000000
v 0.250579 -0.999999 -1.487990
v -0.250579 -0.999999 -1.487990
v -0.474238 -0.990330 -2.148268
v -0.200859 -0.975825 -5.371262
v 0.200857 -0.975825 -5.371264
v 0.474236 -0.990330 -2.148268
v 0.300694 -1.103307 -1.378214
v -0.300695 -1.103307 -1.378213
v -0.569085 -1.072976 -1.927455
v -0.282506 -0.997148 -5.496943
v 0.282504 -0.997148 -5.496942
v 0.569084 -1.072976 -1.927456
v -0.250579 -0.903308 -1.487990
v 0.250579 -0.903307 -1.487990
v 0.474237 -0.912976 -2.148268
v 0.200858 -0.927479 -5.371262
v -0.200859 -0.927479 -5.371264
v -0.474237 -0.912977 -2.148268
v -0.300695 -0.800000 -1.378213
v 0.300695 -0.800000 -1.378213
v 0.569084 -0.830330 -1.927455
v 0.282504 -0.906156 -5.496943
v -0.282505 -0.906156 -5.496942
v -0.569085 -0.830330 -1.927456
v -0.393769 -1.057812 1.222296
v 0.745233 -0.830331 1.871114
v 0.393769 -1.057812 1.222296
v 0.358659 -0.906158 5.593486
v 0.745233 -1.072977 1.871113
v -0.358660 -0.906158 5.593486
v 0.358660 -0.997150 5.593486
v -0.745233 -0.830331 1.871113
v -0.358659 -0.997150 5.593486
v -0.393769 -0.845496 1.222296
v -0.745233 -1.072977 1.871114
v 0.393769 -0.845496 1.222296
v 0.569084 -0.830331 1.927456
v 0.282505 -0.906158 5.496942
v -0.282505 -0.906158 5.496942
v -0.569084 -0.830331 1.927455
v -0.300695 -0.800000 1.378213
v 0.300695 -0.800000 1.378213
v 0.474237 -0.912977 2.148268
v 0.200858 -0.927481 5.371263
v -0.200859 -0.927481 5.371262
v -0.474237 -0.912977 2.148267
v -0.250579 -0.903308 1.487990
v 0.250579 -0.903308 1.487989
v 0.760116 -1.500000 0.523246
v -0.760115 -1.500000 -0.523245
v -1.000695 -0.800000 -0.303647
v -1.000695 -1.200000 -0.303647
v 1.000695 -0.800000 0.303648
v 1.000695 -1.200000 0.303648
v 0.425750 -0.500000 -0.921775
v -0.425750 -0.500000 -0.921775
v 0.755107 -0.500000 -0.518498
v 0.753219 -0.500000 0.518499
v -0.425750 -0.500000 0.921775
v 0.425750 -0.500000 0.921775
v -0.755107 -0.500000 0.518499
v -0.753219 -0.500000 -0.518498
v -0.569084 -1.072977 1.927456
v -0.282505 -0.997150 5.496942
v 0.282505 -0.997150 5.496942
v 0.569084 -1.072977 1.927455
v 0.300695 -1.103308 1.378213
v -0.300695 -1.103308 1.378213
v -0.474237 -0.990331 2.148268
v -0.200858 -0.975827 5.371263
v 0.200858 -0.975827 5.371262
v 0.474237 -0.990331 2.148267
v 0.250579 -1.000000 1.487990
v -0.250579 -1.000000 1.487989
v -0.393769 -0.845496 -1.222297
v 0.745233 -1.072976 -1.871114
v 0.393769 -0.845496 -1.222297
v 0.358659 -0.997148 -5.593487
v 0.745233 -0.830330 -1.871114
v -0.358661 -0.997148 -5.593487
v 0.358659 -0.906156 -5.593487
v -0.745233 -1.072977 -1.871113
v -0.358660 -0.906156 -5.593487
v -0.393769 -1.057811 -1.222297
v -0.745233 -0.830330 -1.871114
v 0.393769 -1.057811 -1.222297
v -0.666827 -1.500000 0.457881
v -0.299538 -1.500000 0.814011
v 0.299538 -1.500000 0.814011
v 0.666827 -1.500000 -0.457881
v 0.299538 -1.500000 -0.814010
v -0.299538 -1.500000 -0.814010
v 0.665160 -1.500000 0.457881
v -0.665160 -1.500000 -0.457881
v -0.598737 -1.464132 0.411127
v -0.268952 -1.464131 0.730892
v 0.268952 -1.464131 0.730892
v 0.598737 -1.464131 -0.411126
v 0.268952 -1.464132 -0.730891
v -0.268952 -1.464132 -0.730891
v 0.597241 -1.464131 0.411127
v -0.597240 -1.464132 -0.411126
v -0.499343 -1.464132 0.342877
v -0.224304 -1.464131 0.609559
v 0.224304 -1.464131 0.609559
v 0.499343 -1.464131 -0.342877
v 0.224304 -1.464132 -0.609559
v -0.224304 -1.464132 -0.609559
v 0.498095 -1.464131 0.342877
v -0.498095 -1.464132 -0.342877
v -0.405566 -1.518789 0.272055
v -0.182180 -1.518788 0.489940
v 0.182180 -1.518788 0.489940
v 0.405567 -1.518788 -0.284915
v 0.182180 -1.518789 -0.500228
v -0.182180 -1.518789 -0.500228
v 0.404553 -1.518788 0.272055
v -0.404553 -1.518789 -0.284915
vt 0.069324 0.857899
vt 0.000000 0.784882
vt 0.069324 0.780479
vt 0.670220 0.753792
vt 0.602485 0.780004
vt 0.604741 0.686799
vt 0.670220 0.820217
vt 0.604741 0.887551
vt 0.227830 0.786435
vt 0.297155 0.713418
vt 0.297155 0.790838
vt 0.262112 0.790838
vt 0.296393 0.859451
vt 0.262112 0.859451
vt 0.154429 0.569649
vt 0.086158 0.605555
vt 0.088975 0.500339
vt 0.154429 0.638077
vt 0.088975 0.707141
vt 0.000000 0.853495
vt 0.670220 0.787004
vt 0.227830 0.717821
vt 0.227830 0.859451
vt 0.227830 0.790838
vt 0.296393 0.790838
vt 0.154429 0.603863
vt 0.122516 0.986932
vt 0.086179 0.907992
vt 0.117684 0.884837
vt 0.227830 0.842904
vt 0.170600 0.713418
vt 0.227830 0.713418
vt 0.521361 0.687901
vt 0.563114 0.776779
vt 0.517468 0.777661
vt 0.563136 0.844195
vt 0.521361 0.959506
vt 0.517491 0.845076
vt 0.494782 0.711521
vt 0.437551 0.841007
vt 0.437551 0.711521
vt 0.061820 0.500688
vt 0.082500 0.582848
vt 0.045568 0.608958
vt 0.004860 0.500339
vt 0.000000 0.608679
vt 0.045596 0.678314
vt 0.004860 0.780130
vt 0.000028 0.678035
vt 0.509461 0.841007
vt 0.495292 0.923210
vt 0.471889 0.860519
vt 0.156704 0.906583
vt 0.122516 0.823217
vt 0.155283 0.792097
vt 0.122516 0.707141
vt 0.086158 0.788460
vt 0.090820 0.738966
vt 0.379490 0.824932
vt 0.413828 0.928855
vt 0.379490 0.954418
vt 0.117656 0.815481
vt 0.124983 0.707141
vt 0.156704 0.724696
vt 0.471889 0.970492
vt 0.437551 0.866570
vt 0.471889 0.841007
vt 0.382607 0.500330
vt 0.480070 0.500507
vt 0.517468 0.546735
vt 0.344824 0.824932
vt 0.379490 0.938407
vt 0.344824 0.954418
vt 0.061820 0.780479
vt 0.082521 0.701296
vt 0.086158 0.745020
vt 0.578418 0.958404
vt 0.599572 0.874355
vt 0.602485 0.928334
vt 0.599555 0.759307
vt 0.297155 0.842904
vt 0.331820 0.729429
vt 0.331820 0.826893
vt 0.578418 0.686799
vt 0.517468 0.646113
vt 0.563066 0.677284
vt 0.559583 0.686799
vt 0.662144 0.640503
vt 0.650782 0.554220
vt 0.662144 0.546388
vt 0.627814 0.500330
vt 0.562762 0.509968
vt 0.559243 0.500455
vt 0.669928 0.645835
vt 0.624635 0.677172
vt 0.517468 0.541294
vt 0.525252 0.640753
vt 0.628153 0.686674
vt 0.525252 0.546637
vt 0.669928 0.541016
vt 0.624330 0.509856
vt 0.568151 0.663387
vt 0.614655 0.650780
vt 0.619499 0.663294
vt 0.567897 0.523847
vt 0.650782 0.632712
vt 0.536615 0.632920
vt 0.536615 0.554428
vt 0.619245 0.523753
vt 0.572744 0.537521
vt 0.547336 0.562506
vt 0.614449 0.537445
vt 0.640063 0.562337
vt 0.572950 0.650856
vt 0.640063 0.626089
vt 0.547336 0.626257
vt 0.090820 0.951491
vt 0.170600 0.842904
vt 0.494782 0.841007
vt 0.086158 0.534423
vt 0.509461 0.957716
vt 0.125013 0.880225
vt 0.413828 0.850495
vt 0.437551 0.944929
vt 0.517468 0.665430
vt 0.479686 0.711521
vt 0.344824 0.665116
vt 0.382223 0.711344
vt 0.344824 0.546421
vt 0.379490 0.840943
vt 0.297155 0.713418
vt 0.602485 0.723897
vt 0.999525 0.401722
vt 0.989415 0.000059
vt 0.999801 0.000000
vt 0.971768 0.499876
vt 0.942951 0.576733
vt 0.947581 0.500044
vt 0.971768 0.998967
vt 0.970593 0.576542
vt 0.975568 0.483789
vt 0.971830 0.401878
vt 0.000000 0.074262
vt 0.050882 0.017839
vt 0.020162 0.080711
vt 0.154429 0.664549
vt 0.164844 0.582444
vt 0.164844 0.664549
vt 0.296952 0.000000
vt 0.223564 0.011051
vt 0.214847 0.000000
vt 0.040229 0.000000
vt 0.119718 0.017839
vt 0.341200 0.426066
vt 0.290318 0.482483
vt 0.321038 0.419617
vt 0.288236 0.011051
vt 0.682400 0.074266
vt 0.629435 0.489269
vt 0.662238 0.080715
vt 0.642171 0.000000
vt 0.562682 0.017854
vt 0.552029 0.000000
vt 0.556047 0.500319
vt 0.638152 0.500319
vt 0.511800 0.074264
vt 0.460918 0.017846
vt 0.471571 0.000000
vt 0.631517 0.017854
vt 0.511800 0.074266
vt 0.564764 0.489269
vt 0.531962 0.080715
vt 0.385447 0.500330
vt 0.458836 0.489279
vt 0.467552 0.500330
vt 0.392082 0.017846
vt 0.381429 0.000000
vt 0.341200 0.074264
vt 0.394164 0.489279
vt 0.491638 0.080713
vt 0.361362 0.080713
vt 0.164844 0.500339
vt 0.154429 0.582444
vt 0.154429 0.500339
vt 0.970589 0.428263
vt 0.961466 0.000000
vt 0.971830 0.000199
vt 0.999448 0.561869
vt 0.989620 0.986123
vt 0.971768 0.562781
vt 1.000000 0.499876
vt 0.975780 0.500674
vt 0.947647 0.499413
vt 0.942951 0.427732
vt 0.170600 0.074262
vt 0.117635 0.489288
vt 0.150438 0.080711
vt 0.130371 0.000000
vt 0.052964 0.489288
vt 0.044247 0.500339
vt 0.126352 0.500339
vt 0.170600 0.426066
vt 0.221482 0.482483
vt 0.210829 0.500330
vt 0.190762 0.419617
vt 0.300971 0.500330
vt 0.961402 0.999039
vt 0.999801 0.483652
vt 0.154429 0.582444
vt 0.164844 0.582444
vt 1.000000 0.985781
vt 0.971830 0.499876
vt 0.693256 0.383290
vt 0.724547 0.014382
vt 0.801819 0.383290
vt 0.779873 0.000000
vt 0.770528 0.014382
vt 0.715202 0.471449
vt 0.770528 0.485835
vt 0.724547 0.485835
vt 0.715202 0.000000
vt 0.812675 0.408578
vt 0.776219 0.458868
vt 0.693256 0.854742
vt 0.682400 0.880016
vt 0.682400 0.408578
vt 0.718856 0.458868
vt 0.713120 0.471449
vt 0.718856 0.930317
vt 0.713120 0.942883
vt 0.776219 0.930317
vt 0.781955 0.942883
vt 0.843395 0.471450
vt 0.906495 0.483998
vt 0.849132 0.483998
vt 0.912231 0.000000
vt 0.849132 0.012565
vt 0.843395 0.000000
vt 0.932095 0.088141
vt 0.900804 0.457047
vt 0.823532 0.088141
vt 0.910149 0.471433
vt 0.942951 0.062867
vt 0.845478 0.471433
vt 0.854823 0.457048
vt 0.812675 0.062867
vt 0.906495 0.012565
vt 0.932095 0.559572
vt 0.900804 0.928476
vt 0.823532 0.559572
vt 0.910149 0.942865
vt 0.942951 0.534311
vt 0.845478 0.942865
vt 0.854823 0.928476
vt 0.812675 0.534311
vt 0.912231 0.471449
vt 0.781955 0.471449
vt 0.801819 0.854741
vt 0.812675 0.880016
vt 0.779873 0.471449
vt 0.177578 0.551926
vt 0.226017 0.521223
vt 0.187588 0.558790
vt 0.293575 0.508864
vt 0.221493 0.508995
vt 0.337847 0.661822
vt 0.327836 0.558535
vt 0.337847 0.551634
vt 0.221849 0.704884
vt 0.289407 0.692526
vt 0.293932 0.704753
vt 0.187588 0.655213
vt 0.177578 0.662114
vt 0.226329 0.692640
vt 0.289095 0.521108
vt 0.327836 0.654958
vt 0.431905 0.740288
vt 0.431905 0.796276
vt 0.350470 0.740436
vt 0.409591 0.817960
vt 0.372965 0.818027
vt 0.350470 0.796424
vt 0.372784 0.718493
vt 0.409410 0.718427
vn -0.0000 0.7277 -0.6859
vn 0.9085 0.3314 -0.2546
vn 0.9085 0.3314 0.2546
vn -0.0000 0.7277 0.6859
vn -0.0000 1.0000 -0.0000
vn -0.9085 0.3314 0.2546
vn -0.9085 0.3314 -0.2546
vn 0.8902 0.4556 -0.0000
vn -0.8902 0.4556 -0.0000
vn -0.8359 -0.3813 -0.3949
vn 0.0000 -0.0000 -1.0000
vn 0.9032 0.0000 -0.4291
vn 0.9042 0.0000 0.4271
vn 0.0000 0.0000 1.0000
vn -0.8296 0.4378 0.3466
vn -0.9032 -0.0000 0.4291
vn -0.9042 -0.0000 -0.4271
vn 0.4407 -0.7741 -0.4545
vn 0.8359 -0.3813 0.3949
vn -0.4407 -0.7741 0.4545
vn 0.0000 -0.7004 -0.7137
vn -0.7782 -0.6280 -0.0032
vn 0.7782 -0.6280 0.0032
vn -1.0000 -0.0000 -0.0041
vn 1.0000 0.0000 0.0041
vn 0.0000 -0.7004 0.7137
vn -0.0000 0.8345 -0.5511
vn -0.4311 0.8316 -0.3501
vn 0.4311 0.8316 0.3501
vn 0.7719 0.6357 0.0014
vn -0.7719 0.6357 -0.0014
vn -0.0000 0.8345 0.5511
vn 0.8296 0.4378 -0.3466
vn -0.2820 -0.9143 0.2908
vn 0.0000 -1.0000 0.0000
vn 0.0000 -0.9182 -0.3962
vn 0.2829 -0.9141 0.2904
vn -0.4665 -0.8845 -0.0008
vn -0.0000 -0.9182 0.3962
vn -0.2829 -0.9141 -0.2904
vn 0.2820 -0.9143 -0.2908
vn 0.4665 -0.8845 0.0008
vn 0.0000 -0.8945 -0.4472
vn 0.2982 -0.9047 0.3043
vn -0.2984 -0.9035 0.3077
vn -0.5041 -0.8637 -0.0009
vn 0.3148 -0.8919 -0.3246
vn 0.0000 -0.9095 0.4156
vn -0.3171 -0.8900 -0.3275
vn 0.5040 -0.8637 0.0009
vn -0.4418 -0.7740 -0.4536
vn -0.4297 0.8320 0.3509
vn 0.8351 -0.3810 -0.3968
vn 0.4418 -0.7740 0.4536
vn -0.8351 -0.3810 0.3968
vn -0.7806 -0.6250 -0.0014
vn 0.7806 -0.6250 0.0014
vn -0.8303 0.4381 -0.3446
vn 0.8303 0.4381 0.3446
vn 0.7695 0.6386 0.0032
vn -0.7695 0.6386 -0.0032
vn 0.4297 0.8320 -0.3509
vn 0.2993 -0.9033 0.3073
vn -0.2972 -0.9049 0.3047
vn 0.3161 -0.8902 -0.3280
vn -0.3157 -0.8918 -0.3242
vn 0.9947 -0.0000 -0.1033
vn -0.8793 0.0000 0.4763
vn -0.9947 0.0000 -0.1033
vn 0.8793 -0.0000 0.4763
vn 0.0153 -0.9987 -0.0477
vn 0.0000 -0.9600 0.2801
vn -0.0153 0.9987 -0.0477
vn 0.0228 0.9996 -0.0180
vn 0.0070 -0.9997 0.0218
vn -0.0000 -0.9600 -0.2801
vn -0.2270 0.9630 -0.1455
vn 0.2270 -0.9630 -0.1455
vn 0.0228 -0.9996 0.0180
vn -0.0153 -0.9987 0.0477
vn 0.0000 0.9600 -0.2801
vn -0.0228 0.9996 0.0180
vn -0.0070 0.9997 0.0218
vn 0.0153 0.9987 0.0477
vn -0.9947 -0.0000 0.1033
vn 0.9947 0.0000 0.1033
vn 0.8793 0.0000 -0.4763
vn -0.8793 -0.0000 -0.4763
vn -0.0070 -0.9997 -0.0218
vn -0.2270 -0.9630 0.1455
vn -0.0228 -0.9996 -0.0180
vn 0.2270 0.9630 0.1455
vn 0.0070 0.9997 -0.0218
vn -0.0000 0.9600 0.2801
vn 0.2270 -0.9630 0.1455
vn -0.2270 0.9630 0.1455
vn -0.0070 0.9997 -0.0218
vn -0.0228 -0.9996 0.0180
vn -0.0153 0.9987 0.0477
vn 0.0153 -0.9987 0.0477
vn -0.0070 -0.9997 0.0218
vn -0.2270 -0.9630 -0.1455
vn 0.0070 0.9997 0.0218
vn 0.0228 0.9996 0.0180
vn 0.2270 0.9630 -0.1455
vn 0.0228 -0.9996 -0.0180
vn -0.0153 -0.9987 -0.0477
vn 0.0070 -0.9997 -0.0218
vn 0.0153 0.9987 -0.0477
vn -0.0228 0.9996 -0.0180
vn 0.0000 -1.0000 -0.0045
vn -0.2307 -0.9729 0.0152
vn -0.0000 0.9859 0.1673
vn 0.0000 -0.9859 0.1673
vn -0.4188 -0.8947 -0.1550
vn -0.7103 0.7027 0.0421
vn 0.6404 -0.6833 -0.3507
vn -0.6404 0.6833 -0.3507
vn 0.0000 0.7282 -0.6853
vn 0.7103 -0.7027 0.0421
vn -0.0000 -0.7282 0.6853
vn -0.0000 0.7282 0.6853
vn 0.0000 1.0000 0.0045
vn 0.7103 0.7027 -0.0421
vn -0.2307 0.9729 -0.0152
vn -0.4188 0.8947 0.1550
vn 0.6404 0.6833 0.3507
vn 0.0000 0.9859 -0.1673
vn 0.0000 -1.0000 0.0045
vn -0.7103 -0.7027 -0.0421
vn 0.2307 -0.9729 -0.0152
vn 0.4188 -0.8947 0.1550
vn -0.6404 -0.6833 0.3507
vn -0.0000 -0.9859 -0.1673
vn -0.0000 -0.7282 -0.6853
vn -0.0000 1.0000 -0.0045
vn 0.4188 0.8947 -0.1550
vn 0.2307 0.9729 0.0152
vn 0.0000 -0.9999 -0.0146
vn -0.7103 -0.7027 0.0421
vn -0.6404 -0.6833 -0.3507
vn -0.2307 0.9729 0.0152
vn 0.4188 -0.8947 -0.1550
vn -0.4188 0.8947 -0.1550
vn 0.2307 -0.9729 0.0152
vn 0.0000 0.9999 0.0146
vn 0.2307 0.9729 -0.0152
vn -0.7103 0.7027 -0.0421
vn -0.6404 0.6833 0.3507
vn 0.4188 0.8947 0.1550
vn -0.0000 -0.9999 0.0146
vn -0.2307 -0.9729 -0.0152
vn 0.7103 -0.7027 -0.0421
vn 0.6404 -0.6833 0.3507
vn -0.4188 -0.8947 0.1550
vn -0.0000 0.9999 -0.0146
vn 0.6404 0.6833 -0.3507
vn 0.7103 0.7027 0.0421
s off
f 25/1/1 4/2/1 26/3/1
f 4/4/2 27/5/2 26/6/2
f 27/5/3 8/7/3 28/8/3
f 8/9/4 29/10/4 28/11/4
f 12/12/5 8/13/5 6/14/5
f 10/15/6 30/16/6 29/17/6
f 30/16/7 2/18/7 25/19/7
f 25/1/1 2/20/1 4/2/1
f 4/4/8 6/21/8 27/5/8
f 27/5/8 6/21/8 8/7/8
f 8/9/4 10/22/4 29/10/4
f 6/14/5 4/23/5 2/24/5
f 12/12/5 10/25/5 8/13/5
f 6/14/5 2/24/5 12/12/5
f 10/15/9 12/26/9 30/16/9
f 30/16/9 12/26/9 2/18/9
f 13/27/10 80/28/10 82/29/10
f 13/30/11 16/31/11 15/32/11
f 15/33/12 18/34/12 17/35/12
f 83/36/13 19/37/13 84/38/13
f 20/39/14 21/40/14 19/41/14
f 22/42/15 91/43/15 24/44/15
f 21/45/16 24/44/16 23/46/16
f 81/47/17 13/48/17 82/49/17
f 15/50/18 7/51/18 9/52/18
f 19/53/19 79/54/19 84/55/19
f 21/56/20 1/57/20 3/58/20
f 15/59/21 11/60/21 13/61/21
f 82/29/22 1/57/22 23/62/22
f 84/55/23 7/63/23 17/64/23
f 23/46/24 81/47/24 82/49/24
f 18/34/25 84/38/25 17/35/25
f 21/65/26 5/66/26 19/67/26
f 89/68/5 90/69/5 88/70/5
f 14/71/27 85/72/27 16/73/27
f 14/74/28 92/75/28 86/76/28
f 20/77/29 88/78/29 90/79/29
f 83/36/30 87/80/30 88/78/30
f 81/47/31 91/43/31 92/75/31
f 22/81/32 90/82/32 89/83/32
f 16/84/33 87/80/33 18/34/33
f 120/85/34 129/86/34 121/87/34
f 132/88/35 133/89/35 125/90/35
f 118/91/36 127/92/36 119/93/36
f 124/94/37 130/95/37 132/88/37
f 123/96/38 128/97/38 120/85/38
f 121/87/39 130/95/39 122/98/39
f 123/96/40 127/92/40 131/99/40
f 117/100/41 126/101/41 118/91/41
f 124/94/42 125/90/42 117/100/42
f 137/102/43 146/103/43 138/104/43
f 128/97/35 137/102/35 129/86/35
f 126/101/35 135/105/35 127/92/35
f 132/88/35 138/104/35 140/106/35
f 131/99/35 136/107/35 128/97/35
f 129/86/35 138/104/35 130/95/35
f 131/99/35 135/105/35 139/108/35
f 125/90/35 134/109/35 126/101/35
f 139/108/44 143/110/44 147/111/44
f 133/89/45 142/112/45 134/109/45
f 140/106/46 141/113/46 133/89/46
f 136/107/47 145/114/47 137/102/47
f 134/109/48 143/110/48 135/105/48
f 140/106/49 146/103/49 148/115/49
f 136/107/50 147/111/50 144/116/50
f 13/27/51 11/117/51 80/28/51
f 13/30/11 14/118/11 16/31/11
f 15/33/12 16/84/12 18/34/12
f 83/36/13 20/77/13 19/37/13
f 20/39/14 22/119/14 21/40/14
f 22/42/52 89/120/52 91/43/52
f 21/45/16 22/42/16 24/44/16
f 81/47/17 14/74/17 13/48/17
f 15/50/53 17/121/53 7/51/53
f 19/53/54 5/122/54 79/54/54
f 21/56/55 23/62/55 1/57/55
f 15/59/21 9/123/21 11/60/21
f 82/29/56 80/28/56 1/57/56
f 84/55/57 79/54/57 7/63/57
f 23/46/24 24/44/24 81/47/24
f 18/34/25 83/36/25 84/38/25
f 21/65/26 3/124/26 5/66/26
f 87/125/5 85/126/5 92/127/5
f 85/126/5 86/128/5 92/127/5
f 92/127/5 91/129/5 88/70/5
f 87/125/5 92/127/5 88/70/5
f 91/129/5 89/68/5 88/70/5
f 14/71/27 86/130/27 85/72/27
f 14/74/58 81/47/58 92/75/58
f 20/77/59 83/36/59 88/78/59
f 83/36/60 18/34/60 87/80/60
f 81/47/61 24/44/61 91/43/61
f 22/81/32 20/131/32 90/82/32
f 16/84/62 85/132/62 87/80/62
f 120/85/34 128/97/34 129/86/34
f 132/88/35 140/106/35 133/89/35
f 118/91/36 126/101/36 127/92/36
f 124/94/37 122/98/37 130/95/37
f 123/96/38 131/99/38 128/97/38
f 121/87/39 129/86/39 130/95/39
f 123/96/40 119/93/40 127/92/40
f 117/100/41 125/90/41 126/101/41
f 124/94/42 132/88/42 125/90/42
f 137/102/43 145/114/43 146/103/43
f 128/97/35 136/107/35 137/102/35
f 126/101/35 134/109/35 135/105/35
f 132/88/35 130/95/35 138/104/35
f 131/99/35 139/108/35 136/107/35
f 129/86/35 137/102/35 138/104/35
f 131/99/35 127/92/35 135/105/35
f 125/90/35 133/89/35 134/109/35
f 139/108/63 135/105/63 143/110/63
f 133/89/64 141/113/64 142/112/64
f 140/106/46 148/115/46 141/113/46
f 136/107/65 144/116/65 145/114/65
f 134/109/48 142/112/48 143/110/48
f 140/106/66 138/104/66 146/103/66
f 136/107/50 139/108/50 147/111/50
f 109/133/67 108/134/67 111/135/67
f 105/136/68 112/137/68 114/138/68
f 113/139/69 112/137/69 115/140/69
f 109/133/70 116/141/70 106/142/70
f 106/143/71 37/144/71 42/145/71
f 113/146/11 108/147/11 110/148/11
f 113/149/5 52/150/5 111/151/5
f 116/152/72 38/153/72 37/144/72
f 115/154/73 49/155/73 54/156/73
f 115/154/74 53/157/74 113/149/74
f 59/158/75 95/159/75 96/160/75
f 57/161/76 98/162/76 55/163/76
f 63/164/35 95/159/35 61/165/35
f 62/166/77 71/167/77 64/168/77
f 59/158/78 97/169/78 57/161/78
f 65/170/79 94/171/79 63/164/79
f 65/170/80 98/162/80 93/172/80
f 58/173/5 69/174/5 60/175/5
f 64/168/81 72/176/81 66/177/81
f 56/178/82 68/179/82 58/173/82
f 62/166/83 69/174/83 70/180/83
f 56/178/84 72/176/84 67/181/84
f 58/182/14 63/183/14 61/184/14
f 62/185/85 63/186/85 60/187/85
f 56/188/86 61/189/86 59/190/86
f 66/191/87 59/190/87 57/192/87
f 62/185/88 55/193/88 65/194/88
f 112/195/89 40/196/89 39/197/89
f 112/195/90 38/153/90 114/198/90
f 106/143/91 41/199/91 108/200/91
f 108/200/35 40/196/35 110/201/35
f 109/202/92 50/203/92 107/204/92
f 109/202/93 52/150/93 51/205/93
f 107/204/94 49/155/94 105/206/94
f 109/133/67 106/142/67 108/134/67
f 105/136/68 115/140/68 112/137/68
f 113/139/69 110/207/69 112/137/69
f 109/133/70 107/208/70 116/141/70
f 106/143/95 116/152/95 37/144/95
f 113/146/11 111/209/11 108/147/11
f 113/149/5 53/157/5 52/150/5
f 116/152/72 114/198/72 38/153/72
f 115/154/96 105/206/96 49/155/96
f 115/154/97 54/156/97 53/157/97
f 59/158/98 61/165/98 95/159/98
f 57/161/76 97/169/76 98/162/76
f 63/164/35 94/171/35 95/159/35
f 62/166/99 70/180/99 71/167/99
f 59/158/100 96/160/100 97/169/100
f 65/170/101 93/172/101 94/171/101
f 65/170/102 55/163/102 98/162/102
f 58/173/5 68/179/5 69/174/5
f 64/168/81 71/167/81 72/176/81
f 56/178/103 67/181/103 68/179/103
f 62/166/104 60/175/104 69/174/104
f 56/178/105 66/177/105 72/176/105
f 58/182/14 60/210/14 63/183/14
f 62/185/85 65/194/85 63/186/85
f 56/188/86 58/211/86 61/189/86
f 66/191/87 56/188/87 59/190/87
f 62/185/88 64/212/88 55/193/88
f 112/195/106 110/201/106 40/196/106
f 112/195/107 39/197/107 38/153/107
f 106/143/108 42/145/108 41/199/108
f 108/200/35 41/199/35 40/196/35
f 109/202/109 51/205/109 50/203/109
f 109/202/110 111/151/110 52/150/110
f 107/204/94 50/203/94 49/155/94
f 33/213/111 34/214/111 36/215/111
f 41/216/112 36/215/112 35/217/112
f 52/218/113 47/219/113 46/220/113
f 40/221/114 35/217/114 34/214/114
f 42/222/115 31/223/115 36/215/115
f 52/218/116 45/224/116 51/225/116
f 39/226/117 32/227/117 38/228/117
f 51/225/118 44/229/118 50/230/118
f 50/230/119 43/231/119 49/232/119
f 40/221/120 33/213/120 39/226/120
f 98/233/121 103/234/121 104/235/121
f 71/236/122 78/237/122 72/238/122
f 76/239/123 75/240/123 73/241/123
f 69/242/124 76/239/124 70/243/124
f 68/244/125 73/241/125 74/245/125
f 67/246/126 78/237/126 73/241/126
f 70/243/127 77/247/127 71/236/127
f 69/242/128 74/245/128 75/240/128
f 102/248/129 101/249/129 99/250/129
f 95/251/130 102/248/130 96/252/130
f 94/253/131 99/250/131 100/254/131
f 93/255/132 104/235/132 99/250/132
f 96/252/133 103/234/133 97/256/133
f 95/251/134 100/254/134 101/249/134
f 37/257/135 32/227/135 31/223/135
f 45/224/136 46/220/136 48/258/136
f 54/259/137 43/231/137 48/258/137
f 53/260/138 48/258/138 47/219/138
f 34/214/111 35/217/111 36/215/111
f 36/215/139 31/223/139 32/227/139
f 32/227/139 33/213/139 36/215/139
f 41/216/140 42/222/140 36/215/140
f 52/218/113 53/260/113 47/219/113
f 40/221/114 41/216/114 35/217/114
f 42/222/141 37/257/141 31/223/141
f 52/218/142 46/220/142 45/224/142
f 39/226/143 33/213/143 32/227/143
f 51/225/144 45/224/144 44/229/144
f 50/230/119 44/229/119 43/231/119
f 40/221/145 34/214/145 33/213/145
f 98/233/121 97/256/121 103/234/121
f 71/236/122 77/247/122 78/237/122
f 75/240/123 74/245/123 73/241/123
f 73/241/146 78/237/146 77/247/146
f 77/247/146 76/239/146 73/241/146
f 69/242/147 75/240/147 76/239/147
f 68/244/148 67/246/148 73/241/148
f 67/246/149 72/238/149 78/237/149
f 70/243/150 76/239/150 77/247/150
f 69/242/128 68/244/128 74/245/128
f 101/249/129 100/254/129 99/250/129
f 99/250/151 104/235/151 103/234/151
f 103/234/151 102/248/151 99/250/151
f 95/251/152 101/249/152 102/248/152
f 94/253/153 93/255/153 99/250/153
f 93/255/154 98/233/154 104/235/154
f 96/252/155 102/248/155 103/234/155
f 95/251/134 94/253/134 100/254/134
f 37/257/135 38/228/135 32/227/135
f 46/220/136 47/219/136 48/258/136
f 48/258/156 43/231/156 44/229/156
f 44/229/156 45/224/156 48/258/156
f 54/259/157 49/232/157 43/231/157
f 53/260/158 54/259/158 48/258/158
f 79/261/35 119/262/35 123/263/35
f 3/264/35 119/262/35 5/265/35
f 80/266/35 117/267/35 1/268/35
f 9/269/35 122/270/35 11/271/35
f 79/261/35 120/272/35 7/273/35
f 7/273/35 121/274/35 9/269/35
f 1/268/35 118/275/35 3/264/35
f 80/266/35 122/270/35 124/276/35
f 141/277/35 148/278/35 147/279/35
f 79/261/35 5/265/35 119/262/35
f 3/264/35 118/275/35 119/262/35
f 80/266/35 124/276/35 117/267/35
f 9/269/35 121/274/35 122/270/35
f 79/261/35 123/263/35 120/272/35
f 7/273/35 120/272/35 121/274/35
f 1/268/35 117/267/35 118/275/35
f 80/266/35 11/271/35 122/270/35
f 148/278/35 146/280/35 145/281/35
f 145/281/35 144/282/35 148/278/35
f 144/282/35 147/279/35 148/278/35
f 147/279/35 143/283/35 142/284/35
f 142/284/35 141/277/35 147/279/35
