# Blender v2.93.3 OBJ File: 'solar_collector_single.blend'
# www.blender.org
o Cylinder.001
v -0.762020 -1.253151 0.523246
v -0.299724 -0.000000 -0.299502
v -0.342298 -1.253150 0.930215
v 0.299724 -0.000000 -0.299502
v 0.342298 -1.253150 0.930215
v 0.299724 0.000000 -0.000000
v 0.762020 -1.253150 -0.523245
v 0.299724 0.000000 0.299502
v 0.342298 -1.253151 -0.930214
v -0.299724 0.000000 0.299502
v -0.342298 -1.253151 -0.930215
v -0.299724 -0.000000 0.000000
v -0.565633 -1.153151 -1.224631
v -0.565633 -0.784330 -1.224632
v 0.565633 -1.153150 -1.224631
v 0.565633 -0.784329 -1.224632
v 1.003203 -1.200000 -0.303647
v 1.003203 -0.800000 -0.303647
v 0.565633 -1.153150 1.224632
v 0.565633 -0.784329 1.224631
v -0.565633 -1.153150 1.224632
v -0.565633 -0.784329 1.224631
v -1.003203 -1.200000 0.303648
v -1.003203 -0.800000 0.303648
v -0.338193 -0.775130 -0.905162
v 0.338193 -0.775129 -0.905163
v 0.591838 -0.737650 0.000000
v 0.338193 -0.775129 0.905162
v -0.338193 -0.775129 0.905162
v -0.591838 -0.737650 0.000000
v 0.200463 -0.990330 -1.431970
v -0.200463 -0.990330 -1.431970
v -0.379390 -0.982595 -1.960192
v -0.160688 -0.970991 -4.538588
v 0.160686 -0.970991 -4.538589
v 0.379389 -0.982595 -1.960193
v 0.240555 -1.072977 -1.344149
v -0.240556 -1.072977 -1.344149
v -0.455268 -1.048712 -1.783543
v -0.226005 -0.988049 -4.639132
v 0.226003 -0.988049 -4.639132
v 0.455267 -1.048712 -1.783543
v -0.200463 -0.912977 -1.431970
v 0.200463 -0.912977 -1.431970
v 0.379389 -0.920712 -1.960192
v 0.160686 -0.932314 -4.538588
v -0.160687 -0.932314 -4.538589
v -0.379390 -0.920712 -1.960193
v -0.240556 -0.830330 -1.344149
v 0.240556 -0.830330 -1.344149
v 0.455267 -0.854595 -1.783543
v 0.226003 -0.915255 -4.639132
v -0.226004 -0.915255 -4.639132
v -0.455268 -0.854595 -1.783543
v -0.315015 -1.036580 1.219415
v 0.596187 -0.854596 1.738469
v 0.315015 -1.036580 1.219415
v 0.286927 -0.915257 4.716367
v 0.596187 -1.048712 1.738469
v -0.286928 -0.915257 4.716367
v 0.286928 -0.988051 4.716367
v -0.596186 -0.854595 1.738469
v -0.286928 -0.988051 4.716367
v -0.315015 -0.866728 1.219415
v -0.596186 -1.048712 1.738469
v 0.315015 -0.866728 1.219415
v 0.455267 -0.854596 1.783543
v 0.226004 -0.915257 4.639132
v -0.226004 -0.915257 4.639132
v -0.455267 -0.854595 1.783542
v -0.240556 -0.830331 1.344149
v 0.240556 -0.830331 1.344149
v 0.379389 -0.920713 1.960192
v 0.160686 -0.932315 4.538589
v -0.160687 -0.932316 4.538588
v -0.379390 -0.920712 1.960192
v -0.200463 -0.912977 1.431970
v 0.200463 -0.912977 1.431970
v 0.760116 -1.253150 0.523246
v -0.760115 -1.253151 -0.523245
v -1.000695 -0.800000 -0.303647
v -1.000695 -1.200000 -0.303647
v 1.000695 -0.800000 0.303648
v 1.000695 -1.200000 0.303648
v 0.425750 -0.704329 -0.921775
v -0.425750 -0.704330 -0.921775
v 0.755107 -0.704329 -0.518498
v 0.753219 -0.704329 0.518499
v -0.425750 -0.704329 0.921775
v 0.425750 -0.704329 0.921775
v -0.755107 -0.704329 0.518499
v -0.753219 -0.704329 -0.518498
v -0.455267 -1.048712 1.783543
v -0.226004 -0.988051 4.639132
v 0.226004 -0.988051 4.639132
v 0.455268 -1.048712 1.783542
v 0.240556 -1.072977 1.344149
v -0.240556 -1.072977 1.344149
v -0.379389 -0.982595 1.960192
v -0.160687 -0.970992 4.538589
v 0.160687 -0.970992 4.538588
v 0.379390 -0.982595 1.960192
v 0.200463 -0.990331 1.431970
v -0.200463 -0.990331 1.431970
v -0.315015 -0.866727 -1.219416
v 0.596186 -1.048712 -1.738470
v 0.315015 -0.866727 -1.219416
v 0.286927 -0.988049 -4.716368
v 0.596186 -0.854595 -1.738469
v -0.286929 -0.988049 -4.716368
v 0.286927 -0.915255 -4.716368
v -0.596187 -1.048712 -1.738469
v -0.286928 -0.915255 -4.716368
v -0.315015 -1.036580 -1.219416
v -0.596187 -0.854595 -1.738470
v 0.315015 -1.036580 -1.219416
v -0.666827 -1.253151 0.457881
v -0.299538 -1.253150 0.814011
v 0.299538 -1.253150 0.814011
v 0.666827 -1.253150 -0.457881
v 0.299538 -1.253151 -0.814010
v -0.299538 -1.253151 -0.814010
v 0.665160 -1.253150 0.457881
v -0.665160 -1.253151 -0.457881
v -0.598737 -1.217282 0.411127
v -0.268952 -1.217282 0.730892
v 0.268952 -1.217282 0.730892
v 0.598737 -1.217282 -0.411126
v 0.268952 -1.217282 -0.730891
v -0.268952 -1.217282 -0.730891
v 0.597241 -1.217282 0.411127
v -0.597240 -1.217282 -0.411126
v -0.499343 -1.217282 0.342877
v -0.224304 -1.217282 0.609559
v 0.224304 -1.217282 0.609559
v 0.499343 -1.217282 -0.342877
v 0.224304 -1.217282 -0.609559
v -0.224304 -1.217282 -0.609559
v 0.498095 -1.217282 0.342877
v -0.498095 -1.217282 -0.342877
v -0.405566 -1.271939 0.272055
v -0.182180 -1.271939 0.489940
v 0.182180 -1.271938 0.489940
v 0.405567 -1.271939 -0.284915
v 0.182180 -1.271939 -0.500228
v -0.182180 -1.271939 -0.500228
v 0.404553 -1.271938 0.272055
v -0.404553 -1.271939 -0.284915
vt 0.000000 0.853495
vt 0.069324 0.780479
vt 0.069324 0.857899
vt 0.670220 0.753792
vt 0.602485 0.780004
vt 0.604741 0.686799
vt 0.670220 0.820217
vt 0.604741 0.887551
vt 0.297155 0.790838
vt 0.227830 0.717821
vt 0.297155 0.713418
vt 0.262112 0.790838
vt 0.296393 0.859451
vt 0.262112 0.859451
vt 0.154429 0.569649
vt 0.086158 0.605555
vt 0.088975 0.500339
vt 0.154429 0.638077
vt 0.088975 0.707141
vt 0.000000 0.784882
vt 0.670220 0.787004
vt 0.227830 0.786435
vt 0.227830 0.859451
vt 0.227830 0.790838
vt 0.296393 0.790838
vt 0.154429 0.603863
vt 0.122516 0.986932
vt 0.086179 0.907992
vt 0.117684 0.884837
vt 0.170600 0.842904
vt 0.227830 0.713418
vt 0.227830 0.842904
vt 0.521361 0.687901
vt 0.563114 0.776779
vt 0.517468 0.777661
vt 0.563136 0.844195
vt 0.521361 0.959506
vt 0.517491 0.845076
vt 0.494782 0.711521
vt 0.437551 0.841007
vt 0.437551 0.711521
vt 0.061820 0.500688
vt 0.082500 0.582848
vt 0.045568 0.608958
vt 0.004860 0.500339
vt 0.000000 0.608679
vt 0.045596 0.678314
vt 0.004860 0.780130
vt 0.000028 0.678035
vt 0.509461 0.841007
vt 0.495292 0.923210
vt 0.471889 0.860519
vt 0.156704 0.906583
vt 0.122516 0.823217
vt 0.155283 0.792097
vt 0.122516 0.707141
vt 0.086158 0.788460
vt 0.090820 0.738966
vt 0.379490 0.824932
vt 0.413828 0.928855
vt 0.379490 0.954418
vt 0.117656 0.815481
vt 0.124983 0.707141
vt 0.156704 0.724696
vt 0.471889 0.841007
vt 0.437551 0.944929
vt 0.437551 0.866570
vt 0.382607 0.500330
vt 0.480070 0.500507
vt 0.517468 0.546735
vt 0.344824 0.824932
vt 0.379490 0.938407
vt 0.344824 0.954418
vt 0.061820 0.780479
vt 0.082521 0.701296
vt 0.086158 0.745020
vt 0.578418 0.958404
vt 0.599572 0.874355
vt 0.602485 0.928334
vt 0.599555 0.759307
vt 0.297155 0.842904
vt 0.331820 0.729429
vt 0.331820 0.826893
vt 0.578418 0.686799
vt 0.517468 0.646113
vt 0.563066 0.677284
vt 0.559583 0.686799
vt 0.662144 0.640503
vt 0.650782 0.554220
vt 0.662144 0.546388
vt 0.559243 0.500455
vt 0.624330 0.509856
vt 0.562762 0.509968
vt 0.669928 0.645835
vt 0.624635 0.677172
vt 0.517468 0.541294
vt 0.525252 0.640753
vt 0.628153 0.686674
vt 0.525252 0.546637
vt 0.669928 0.541016
vt 0.627814 0.500330
vt 0.568151 0.663387
vt 0.614655 0.650780
vt 0.619499 0.663294
vt 0.567897 0.523847
vt 0.650782 0.632712
vt 0.536615 0.632920
vt 0.536615 0.554428
vt 0.619245 0.523753
vt 0.572744 0.537521
vt 0.547336 0.562506
vt 0.614449 0.537445
vt 0.640063 0.562337
vt 0.572950 0.650856
vt 0.640063 0.626089
vt 0.547336 0.626257
vt 0.090820 0.951491
vt 0.170600 0.713418
vt 0.494782 0.841007
vt 0.086158 0.534423
vt 0.509461 0.957716
vt 0.125013 0.880225
vt 0.413828 0.850495
vt 0.471889 0.970492
vt 0.517468 0.665430
vt 0.479686 0.711521
vt 0.344824 0.665116
vt 0.382223 0.711344
vt 0.344824 0.546421
vt 0.379490 0.840943
vt 0.297155 0.713418
vt 0.602485 0.723897
vt 0.999801 0.000000
vt 0.971830 0.401878
vt 0.989415 0.000059
vt 0.971768 0.499876
vt 0.942951 0.576733
vt 0.947581 0.500044
vt 0.970593 0.576542
vt 0.961402 0.999039
vt 0.999525 0.401722
vt 0.975568 0.483789
vt 0.000000 0.074262
vt 0.050882 0.017839
vt 0.020162 0.080711
vt 0.154429 0.664549
vt 0.164844 0.582444
vt 0.164844 0.664549
vt 0.296952 0.000000
vt 0.223564 0.011051
vt 0.214847 0.000000
vt 0.040229 0.000000
vt 0.119718 0.017839
vt 0.341200 0.426066
vt 0.290318 0.482483
vt 0.321038 0.419617
vt 0.288236 0.011051
vt 0.682400 0.074266
vt 0.629435 0.489269
vt 0.662238 0.080715
vt 0.552029 0.000000
vt 0.631517 0.017854
vt 0.562682 0.017854
vt 0.556047 0.500319
vt 0.638152 0.500319
vt 0.511800 0.074264
vt 0.460918 0.017846
vt 0.471571 0.000000
vt 0.642171 0.000000
vt 0.511800 0.074266
vt 0.564764 0.489269
vt 0.531962 0.080715
vt 0.385447 0.500330
vt 0.458836 0.489279
vt 0.467552 0.500330
vt 0.381429 0.000000
vt 0.392082 0.017846
vt 0.341200 0.074264
vt 0.394164 0.489279
vt 0.491638 0.080713
vt 0.361362 0.080713
vt 0.164844 0.500339
vt 0.154429 0.582444
vt 0.154429 0.500339
vt 0.971830 0.000199
vt 0.942951 0.427732
vt 0.961466 0.000000
vt 0.999448 0.561869
vt 0.989620 0.986123
vt 0.971768 0.562781
vt 1.000000 0.499876
vt 0.975780 0.500674
vt 0.970589 0.428263
vt 0.947647 0.499413
vt 0.170600 0.074262
vt 0.117635 0.489288
vt 0.150438 0.080711
vt 0.130371 0.000000
vt 0.052964 0.489288
vt 0.044247 0.500339
vt 0.126352 0.500339
vt 0.170600 0.426066
vt 0.221482 0.482483
vt 0.210829 0.500330
vt 0.190762 0.419617
vt 0.300971 0.500330
vt 0.971768 0.998967
vt 0.999801 0.483652
vt 0.154429 0.582444
vt 0.164844 0.582444
vt 1.000000 0.985781
vt 0.971830 0.499876
vt 0.693256 0.383290
vt 0.724547 0.014382
vt 0.801819 0.383290
vt 0.779873 0.000000
vt 0.770528 0.014382
vt 0.715202 0.471449
vt 0.770528 0.485835
vt 0.724547 0.485835
vt 0.715202 0.000000
vt 0.812675 0.408578
vt 0.776219 0.458868
vt 0.693256 0.854742
vt 0.682400 0.880016
vt 0.682400 0.408578
vt 0.718856 0.458868
vt 0.713120 0.471449
vt 0.718856 0.930317
vt 0.713120 0.942883
vt 0.781955 0.942883
vt 0.776219 0.930317
vt 0.912231 0.471449
vt 0.849132 0.483998
vt 0.843395 0.471450
vt 0.912231 0.000000
vt 0.849132 0.012565
vt 0.843395 0.000000
vt 0.932095 0.088141
vt 0.900804 0.457047
vt 0.823532 0.088141
vt 0.910149 0.471433
vt 0.942951 0.062867
vt 0.845478 0.471433
vt 0.854823 0.457048
vt 0.812675 0.062867
vt 0.906495 0.012565
vt 0.932095 0.559572
vt 0.900804 0.928476
vt 0.823532 0.559572
vt 0.910149 0.942865
vt 0.942951 0.534311
vt 0.845478 0.942865
vt 0.854823 0.928476
vt 0.812675 0.534311
vt 0.906495 0.483998
vt 0.781955 0.471449
vt 0.801819 0.854741
vt 0.812675 0.880016
vt 0.779873 0.471449
vt 0.177578 0.551926
vt 0.226017 0.521223
vt 0.187588 0.558790
vt 0.293575 0.508864
vt 0.221493 0.508995
vt 0.337847 0.661822
vt 0.327836 0.558535
vt 0.337847 0.551634
vt 0.221849 0.704884
vt 0.289407 0.692526
vt 0.293932 0.704753
vt 0.187588 0.655213
vt 0.177578 0.662114
vt 0.226329 0.692640
vt 0.289095 0.521108
vt 0.327836 0.654958
vt 0.431905 0.740288
vt 0.431905 0.796276
vt 0.350470 0.740436
vt 0.409591 0.817960
vt 0.372965 0.818027
vt 0.350470 0.796424
vt 0.372784 0.718493
vt 0.409410 0.718427
vn -0.0000 0.6157 -0.7880
vn 0.9276 0.2575 -0.2706
vn 0.9276 0.2575 0.2706
vn -0.0000 0.6157 0.7880
vn -0.0000 1.0000 -0.0000
vn -0.9276 0.2575 0.2706
vn -0.9276 0.2575 -0.2706
vn 0.9298 0.3682 -0.0000
vn -0.9298 0.3682 -0.0000
vn -0.4130 -0.8786 -0.2398
vn 0.0000 -0.0000 -1.0000
vn 0.9032 0.0000 -0.4291
vn 0.9042 0.0000 0.4271
vn 0.0000 0.0000 1.0000
vn -0.5185 0.8229 0.2324
vn -0.9032 -0.0000 0.4291
vn -0.9042 -0.0000 -0.4271
vn 0.1831 -0.9648 -0.1888
vn 0.4130 -0.8786 0.2398
vn -0.1831 -0.9648 0.1888
vn 0.0000 -0.9469 -0.3216
vn -0.2144 -0.9767 -0.0009
vn 0.2144 -0.9767 0.0009
vn -1.0000 -0.0000 -0.0041
vn 1.0000 0.0000 0.0041
vn 0.0000 -0.9469 0.3216
vn -0.0000 0.9668 -0.2554
vn -0.2003 0.9661 -0.1627
vn 0.2003 0.9661 0.1627
vn 0.3611 0.9325 0.0007
vn -0.3611 0.9325 -0.0007
vn -0.0000 0.9668 0.2554
vn 0.5185 0.8229 -0.2324
vn -0.2820 -0.9143 0.2908
vn 0.0000 -1.0000 0.0000
vn 0.0000 -0.9182 -0.3962
vn 0.2829 -0.9141 0.2904
vn -0.4665 -0.8845 -0.0008
vn -0.0000 -0.9182 0.3962
vn -0.2829 -0.9141 -0.2904
vn 0.2820 -0.9143 -0.2908
vn 0.4665 -0.8845 0.0008
vn 0.0000 -0.8945 -0.4472
vn 0.2982 -0.9047 0.3043
vn -0.2984 -0.9035 0.3077
vn -0.5041 -0.8637 -0.0009
vn 0.3148 -0.8919 -0.3246
vn 0.0000 -0.9096 0.4156
vn -0.3171 -0.8900 -0.3275
vn 0.5040 -0.8637 0.0009
vn -0.1836 -0.9648 -0.1884
vn -0.1996 0.9662 0.1630
vn 0.4129 -0.8784 -0.2408
vn 0.1836 -0.9648 0.1885
vn -0.4129 -0.8784 0.2408
vn -0.2161 -0.9764 -0.0004
vn 0.2161 -0.9764 0.0004
vn -0.5188 0.8231 -0.2311
vn 0.5188 0.8231 0.2311
vn 0.3587 0.9335 0.0015
vn -0.3587 0.9335 -0.0015
vn 0.1996 0.9662 -0.1630
vn 0.2993 -0.9033 0.3073
vn -0.2972 -0.9049 0.3047
vn 0.3161 -0.8902 -0.3280
vn 0.0000 -0.9095 0.4156
vn -0.3157 -0.8918 -0.3242
vn 0.9947 -0.0000 -0.1033
vn -0.8793 0.0000 0.4763
vn -0.9947 0.0000 -0.1033
vn 0.8793 -0.0000 0.4763
vn 0.0153 -0.9987 -0.0477
vn 0.0000 -0.9600 0.2801
vn -0.0153 0.9987 -0.0477
vn 0.0228 0.9996 -0.0180
vn 0.0070 -0.9997 0.0218
vn -0.0000 -0.9600 -0.2801
vn -0.2270 0.9630 -0.1455
vn 0.2270 -0.9630 -0.1455
vn 0.0228 -0.9996 0.0180
vn -0.0153 -0.9987 0.0477
vn 0.0000 0.9600 -0.2801
vn -0.0228 0.9996 0.0180
vn -0.0070 0.9997 0.0218
vn 0.0153 0.9987 0.0477
vn -0.9947 -0.0000 0.1033
vn 0.9947 -0.0000 0.1033
vn 0.8793 0.0000 -0.4763
vn -0.8793 -0.0000 -0.4763
vn -0.0070 -0.9997 -0.0218
vn -0.2270 -0.9630 0.1455
vn -0.0228 -0.9996 -0.0180
vn 0.2270 0.9630 0.1455
vn 0.0070 0.9997 -0.0218
vn -0.0000 0.9600 0.2801
vn 0.2270 -0.9630 0.1455
vn -0.2270 0.9630 0.1455
vn -0.0070 0.9997 -0.0218
vn -0.0228 -0.9996 0.0180
vn -0.0153 0.9987 0.0477
vn 0.0153 -0.9987 0.0477
vn -0.0070 -0.9997 0.0218
vn -0.2270 -0.9630 -0.1455
vn 0.0070 0.9997 0.0218
vn 0.0228 0.9996 0.0180
vn 0.2270 0.9630 -0.1455
vn 0.0228 -0.9996 -0.0180
vn -0.0153 -0.9987 -0.0477
vn 0.0070 -0.9997 -0.0218
vn 0.0153 0.9987 -0.0477
vn -0.0228 0.9996 -0.0180
vn 0.0000 -1.0000 -0.0045
vn -0.2307 -0.9729 0.0152
vn -0.0000 0.9859 0.1673
vn 0.0000 -0.9859 0.1673
vn -0.4188 -0.8947 -0.1550
vn -0.7103 0.7027 0.0421
vn 0.6404 -0.6833 -0.3507
vn -0.6404 0.6833 -0.3507
vn -0.0000 0.7282 -0.6853
vn 0.7103 -0.7027 0.0421
vn 0.0000 -0.7282 0.6853
vn -0.0000 0.7282 0.6853
vn 0.0000 1.0000 0.0045
vn 0.7103 0.7027 -0.0421
vn -0.2307 0.9729 -0.0152
vn -0.4188 0.8947 0.1550
vn 0.6404 0.6833 0.3507
vn 0.0000 0.9859 -0.1673
vn 0.0000 -1.0000 0.0045
vn -0.7103 -0.7027 -0.0421
vn 0.2307 -0.9729 -0.0152
vn 0.4188 -0.8947 0.1550
vn -0.6404 -0.6833 0.3507
vn -0.0000 -0.9859 -0.1673
vn -0.0000 -0.7282 -0.6853
vn -0.0000 1.0000 -0.0045
vn 0.4188 0.8947 -0.1550
vn 0.2307 0.9729 0.0152
vn 0.0000 -0.9999 -0.0146
vn -0.7103 -0.7027 0.0421
vn -0.6404 -0.6833 -0.3507
vn -0.2307 0.9729 0.0152
vn 0.4188 -0.8947 -0.1550
vn -0.4188 0.8947 -0.1550
vn 0.2307 -0.9729 0.0152
vn 0.0000 0.9999 0.0146
vn 0.2307 0.9729 -0.0152
vn -0.7103 0.7027 -0.0421
vn -0.6404 0.6833 0.3507
vn 0.4188 0.8947 0.1550
vn -0.0000 -0.9999 0.0146
vn -0.2307 -0.9729 -0.0152
vn 0.7103 -0.7027 -0.0421
vn 0.6404 -0.6833 0.3507
vn -0.4188 -0.8947 0.1550
vn -0.0000 0.9999 -0.0146
vn 0.6404 0.6833 -0.3507
vn 0.7103 0.7027 0.0421
s off
f 2/1/1 26/2/1 25/3/1
f 4/4/2 27/5/2 26/6/2
f 27/5/3 8/7/3 28/8/3
f 28/9/4 10/10/4 29/11/4
f 12/12/5 8/13/5 6/14/5
f 10/15/6 30/16/6 29/17/6
f 30/16/7 2/18/7 25/19/7
f 2/1/1 4/20/1 26/2/1
f 4/4/8 6/21/8 27/5/8
f 27/5/8 6/21/8 8/7/8
f 28/9/4 8/22/4 10/10/4
f 6/14/5 4/23/5 2/24/5
f 12/12/5 10/25/5 8/13/5
f 6/14/5 2/24/5 12/12/5
f 10/15/9 12/26/9 30/16/9
f 30/16/9 12/26/9 2/18/9
f 13/27/10 80/28/10 82/29/10
f 14/30/11 15/31/11 13/32/11
f 15/33/12 18/34/12 17/35/12
f 83/36/13 19/37/13 84/38/13
f 20/39/14 21/40/14 19/41/14
f 22/42/15 91/43/15 24/44/15
f 21/45/16 24/44/16 23/46/16
f 81/47/17 13/48/17 82/49/17
f 15/50/18 7/51/18 9/52/18
f 19/53/19 79/54/19 84/55/19
f 21/56/20 1/57/20 3/58/20
f 15/59/21 11/60/21 13/61/21
f 82/29/22 1/57/22 23/62/22
f 84/55/23 7/63/23 17/64/23
f 23/46/24 81/47/24 82/49/24
f 18/34/25 84/38/25 17/35/25
f 19/65/26 3/66/26 5/67/26
f 89/68/5 90/69/5 88/70/5
f 14/71/27 85/72/27 16/73/27
f 14/74/28 92/75/28 86/76/28
f 20/77/29 88/78/29 90/79/29
f 83/36/30 87/80/30 88/78/30
f 81/47/31 91/43/31 92/75/31
f 22/81/32 90/82/32 89/83/32
f 16/84/33 87/80/33 18/34/33
f 120/85/34 129/86/34 121/87/34
f 132/88/35 133/89/35 125/90/35
f 119/91/36 126/92/36 127/93/36
f 124/94/37 130/95/37 132/88/37
f 123/96/38 128/97/38 120/85/38
f 121/87/39 130/95/39 122/98/39
f 123/96/40 127/93/40 131/99/40
f 117/100/41 126/92/41 118/101/41
f 124/94/42 125/90/42 117/100/42
f 137/102/43 146/103/43 138/104/43
f 128/97/35 137/102/35 129/86/35
f 126/92/35 135/105/35 127/93/35
f 132/88/35 138/104/35 140/106/35
f 131/99/35 136/107/35 128/97/35
f 129/86/35 138/104/35 130/95/35
f 131/99/35 135/105/35 139/108/35
f 125/90/35 134/109/35 126/92/35
f 139/108/44 143/110/44 147/111/44
f 133/89/45 142/112/45 134/109/45
f 140/106/46 141/113/46 133/89/46
f 136/107/47 145/114/47 137/102/47
f 134/109/48 143/110/48 135/105/48
f 140/106/49 146/103/49 148/115/49
f 136/107/50 147/111/50 144/116/50
f 13/27/51 11/117/51 80/28/51
f 14/30/11 16/118/11 15/31/11
f 15/33/12 16/84/12 18/34/12
f 83/36/13 20/77/13 19/37/13
f 20/39/14 22/119/14 21/40/14
f 22/42/52 89/120/52 91/43/52
f 21/45/16 22/42/16 24/44/16
f 81/47/17 14/74/17 13/48/17
f 15/50/53 17/121/53 7/51/53
f 19/53/54 5/122/54 79/54/54
f 21/56/55 23/62/55 1/57/55
f 15/59/21 9/123/21 11/60/21
f 82/29/56 80/28/56 1/57/56
f 84/55/57 79/54/57 7/63/57
f 23/46/24 24/44/24 81/47/24
f 18/34/25 83/36/25 84/38/25
f 19/65/26 21/124/26 3/66/26
f 87/125/5 85/126/5 92/127/5
f 85/126/5 86/128/5 92/127/5
f 92/127/5 91/129/5 88/70/5
f 87/125/5 92/127/5 88/70/5
f 91/129/5 89/68/5 88/70/5
f 14/71/27 86/130/27 85/72/27
f 14/74/58 81/47/58 92/75/58
f 20/77/59 83/36/59 88/78/59
f 83/36/60 18/34/60 87/80/60
f 81/47/61 24/44/61 91/43/61
f 22/81/32 20/131/32 90/82/32
f 16/84/62 85/132/62 87/80/62
f 120/85/34 128/97/34 129/86/34
f 132/88/35 140/106/35 133/89/35
f 119/91/36 118/101/36 126/92/36
f 124/94/37 122/98/37 130/95/37
f 123/96/38 131/99/38 128/97/38
f 121/87/39 129/86/39 130/95/39
f 123/96/40 119/91/40 127/93/40
f 117/100/41 125/90/41 126/92/41
f 124/94/42 132/88/42 125/90/42
f 137/102/43 145/114/43 146/103/43
f 128/97/35 136/107/35 137/102/35
f 126/92/35 134/109/35 135/105/35
f 132/88/35 130/95/35 138/104/35
f 131/99/35 139/108/35 136/107/35
f 129/86/35 137/102/35 138/104/35
f 131/99/35 127/93/35 135/105/35
f 125/90/35 133/89/35 134/109/35
f 139/108/63 135/105/63 143/110/63
f 133/89/64 141/113/64 142/112/64
f 140/106/46 148/115/46 141/113/46
f 136/107/65 144/116/65 145/114/65
f 134/109/66 142/112/66 143/110/66
f 140/106/67 138/104/67 146/103/67
f 136/107/50 139/108/50 147/111/50
f 111/133/68 106/134/68 108/135/68
f 105/136/69 112/137/69 114/138/69
f 115/139/70 110/140/70 112/137/70
f 109/141/71 116/142/71 106/134/71
f 106/143/72 37/144/72 42/145/72
f 113/146/11 108/147/11 110/148/11
f 113/149/5 52/150/5 111/151/5
f 116/152/73 38/153/73 37/144/73
f 115/154/74 49/155/74 54/156/74
f 115/154/75 53/157/75 113/149/75
f 59/158/76 95/159/76 96/160/76
f 55/161/77 97/162/77 98/163/77
f 63/164/35 95/159/35 61/165/35
f 62/166/78 71/167/78 64/168/78
f 59/158/79 97/162/79 57/169/79
f 65/170/80 94/171/80 63/164/80
f 65/170/81 98/163/81 93/172/81
f 58/173/5 69/174/5 60/175/5
f 66/176/82 71/167/82 72/177/82
f 56/178/83 68/179/83 58/173/83
f 62/166/84 69/174/84 70/180/84
f 56/178/85 72/177/85 67/181/85
f 58/182/14 63/183/14 61/184/14
f 60/185/86 65/186/86 63/187/86
f 56/188/87 61/189/87 59/190/87
f 66/191/88 59/190/88 57/192/88
f 62/193/89 55/194/89 65/186/89
f 112/195/90 40/196/90 39/197/90
f 112/195/91 38/153/91 114/198/91
f 106/143/92 41/199/92 108/200/92
f 108/200/35 40/196/35 110/201/35
f 109/202/93 50/203/93 107/204/93
f 109/202/94 52/150/94 51/205/94
f 107/204/95 49/155/95 105/206/95
f 111/133/68 109/141/68 106/134/68
f 105/136/69 115/139/69 112/137/69
f 115/139/70 113/207/70 110/140/70
f 109/141/71 107/208/71 116/142/71
f 106/143/96 116/152/96 37/144/96
f 113/146/11 111/209/11 108/147/11
f 113/149/5 53/157/5 52/150/5
f 116/152/73 114/198/73 38/153/73
f 115/154/97 105/206/97 49/155/97
f 115/154/98 54/156/98 53/157/98
f 59/158/99 61/165/99 95/159/99
f 55/161/77 57/169/77 97/162/77
f 63/164/35 94/171/35 95/159/35
f 62/166/100 70/180/100 71/167/100
f 59/158/101 96/160/101 97/162/101
f 65/170/102 93/172/102 94/171/102
f 65/170/103 55/161/103 98/163/103
f 58/173/5 68/179/5 69/174/5
f 66/176/82 64/168/82 71/167/82
f 56/178/104 67/181/104 68/179/104
f 62/166/105 60/175/105 69/174/105
f 56/178/106 66/176/106 72/177/106
f 58/182/14 60/210/14 63/183/14
f 60/185/86 62/193/86 65/186/86
f 56/188/87 58/211/87 61/189/87
f 66/191/88 56/188/88 59/190/88
f 62/193/89 64/212/89 55/194/89
f 112/195/107 110/201/107 40/196/107
f 112/195/108 39/197/108 38/153/108
f 106/143/109 42/145/109 41/199/109
f 108/200/35 41/199/35 40/196/35
f 109/202/110 51/205/110 50/203/110
f 109/202/111 111/151/111 52/150/111
f 107/204/95 50/203/95 49/155/95
f 33/213/112 34/214/112 36/215/112
f 41/216/113 36/215/113 35/217/113
f 52/218/114 47/219/114 46/220/114
f 40/221/115 35/217/115 34/214/115
f 42/222/116 31/223/116 36/215/116
f 52/218/117 45/224/117 51/225/117
f 39/226/118 32/227/118 38/228/118
f 51/225/119 44/229/119 50/230/119
f 49/231/120 44/229/120 43/232/120
f 40/221/121 33/213/121 39/226/121
f 97/233/122 104/234/122 98/235/122
f 71/236/123 78/237/123 72/238/123
f 76/239/124 75/240/124 73/241/124
f 69/242/125 76/239/125 70/243/125
f 68/244/126 73/241/126 74/245/126
f 67/246/127 78/237/127 73/241/127
f 70/243/128 77/247/128 71/236/128
f 69/242/129 74/245/129 75/240/129
f 102/248/130 101/249/130 99/250/130
f 95/251/131 102/248/131 96/252/131
f 94/253/132 99/250/132 100/254/132
f 93/255/133 104/234/133 99/250/133
f 96/252/134 103/256/134 97/233/134
f 95/251/135 100/254/135 101/249/135
f 38/228/136 31/223/136 37/257/136
f 45/224/137 46/220/137 48/258/137
f 54/259/138 43/232/138 48/258/138
f 53/260/139 48/258/139 47/219/139
f 34/214/112 35/217/112 36/215/112
f 36/215/140 31/223/140 32/227/140
f 32/227/140 33/213/140 36/215/140
f 41/216/141 42/222/141 36/215/141
f 52/218/114 53/260/114 47/219/114
f 40/221/115 41/216/115 35/217/115
f 42/222/142 37/257/142 31/223/142
f 52/218/143 46/220/143 45/224/143
f 39/226/144 33/213/144 32/227/144
f 51/225/145 45/224/145 44/229/145
f 49/231/120 50/230/120 44/229/120
f 40/221/146 34/214/146 33/213/146
f 97/233/122 103/256/122 104/234/122
f 71/236/123 77/247/123 78/237/123
f 75/240/124 74/245/124 73/241/124
f 73/241/147 78/237/147 77/247/147
f 77/247/147 76/239/147 73/241/147
f 69/242/148 75/240/148 76/239/148
f 68/244/149 67/246/149 73/241/149
f 67/246/150 72/238/150 78/237/150
f 70/243/151 76/239/151 77/247/151
f 69/242/129 68/244/129 74/245/129
f 101/249/130 100/254/130 99/250/130
f 99/250/152 104/234/152 103/256/152
f 103/256/152 102/248/152 99/250/152
f 95/251/153 101/249/153 102/248/153
f 94/253/154 93/255/154 99/250/154
f 93/255/155 98/235/155 104/234/155
f 96/252/156 102/248/156 103/256/156
f 95/251/135 94/253/135 100/254/135
f 38/228/136 32/227/136 31/223/136
f 46/220/137 47/219/137 48/258/137
f 48/258/157 43/232/157 44/229/157
f 44/229/157 45/224/157 48/258/157
f 54/259/158 49/231/158 43/232/158
f 53/260/159 54/259/159 48/258/159
f 79/261/35 119/262/35 123/263/35
f 3/264/35 119/262/35 5/265/35
f 80/266/35 117/267/35 1/268/35
f 9/269/35 122/270/35 11/271/35
f 79/261/35 120/272/35 7/273/35
f 7/273/35 121/274/35 9/269/35
f 1/268/35 118/275/35 3/264/35
f 80/266/35 122/270/35 124/276/35
f 141/277/35 148/278/35 147/279/35
f 79/261/35 5/265/35 119/262/35
f 3/264/35 118/275/35 119/262/35
f 80/266/35 124/276/35 117/267/35
f 9/269/35 121/274/35 122/270/35
f 79/261/35 123/263/35 120/272/35
f 7/273/35 120/272/35 121/274/35
f 1/268/35 117/267/35 118/275/35
f 80/266/35 11/271/35 122/270/35
f 148/278/35 146/280/35 145/281/35
f 145/281/35 144/282/35 148/278/35
f 144/282/35 147/279/35 148/278/35
f 147/279/35 143/283/35 142/284/35
f 142/284/35 141/277/35 147/279/35
