# Blender v2.93.3 OBJ File: 'solar_collector_double.blend'
# www.blender.org
o Cylinder.001
v -0.762020 -1.390187 0.335924
v -0.384262 -0.000000 -0.665561
v -0.671324 -1.390187 0.746497
v 0.384262 -0.000000 -0.665561
v 0.671325 -1.390187 0.746497
v 0.768523 0.000000 -0.000000
v 0.762021 -1.390187 -0.335924
v 0.384262 0.000000 0.665561
v 0.671325 -1.390187 -0.746497
v -0.384262 0.000000 0.665560
v -0.671325 -1.390187 -0.746497
v -0.768523 -0.000000 0.000000
v -0.707041 -1.158489 -0.982767
v -0.707041 -0.700000 -0.982767
v 0.707042 -1.158489 -0.982767
v 0.707041 -0.700000 -0.982767
v 1.003203 -1.158489 -0.442245
v 1.003203 -0.700000 -0.442245
v 0.707041 -1.158489 0.982767
v 0.707041 -0.700000 0.982767
v -0.707041 -1.158489 0.982767
v -0.707042 -0.700000 0.982767
v -1.003203 -1.158489 0.442245
v -1.003203 -0.700000 0.442245
v -0.653244 -1.000000 -0.678872
v 0.653245 -1.000000 -0.678872
v 0.914543 -1.000000 0.000000
v 0.653244 -1.000000 0.678872
v -0.653245 -1.000000 0.678872
v -0.914542 -1.000000 0.000000
v 0.313223 -0.999999 -1.259987
v -0.313224 -0.999999 -1.259987
v -0.592797 -0.990330 -2.085334
v -0.448346 -0.975825 -6.114077
v 0.448343 -0.975825 -6.114079
v 0.592795 -0.990330 -2.085335
v 0.375868 -1.103307 -1.122767
v -0.375869 -1.103307 -1.122767
v -0.711356 -1.072976 -1.809319
v -0.504475 -0.997148 -6.271178
v 0.504472 -0.997148 -6.271177
v 0.711355 -1.072976 -1.809320
v -0.313224 -0.903308 -1.259987
v 0.313223 -0.903307 -1.259987
v 0.592796 -0.912976 -2.085334
v 0.448344 -0.927479 -6.114077
v -0.448345 -0.927479 -6.114079
v -0.592797 -0.912977 -2.085335
v -0.375869 -0.800000 -1.122767
v 0.375868 -0.800000 -1.122767
v 0.711355 -0.830330 -1.809319
v 0.504472 -0.906156 -6.271178
v -0.504474 -0.906156 -6.271177
v -0.711356 -0.830330 -1.809320
v -0.492211 -1.057812 0.943303
v 0.931541 -0.830331 1.738892
v 0.492211 -1.057812 0.943303
v 0.640463 -0.906158 6.391858
v 0.931541 -1.072977 1.738891
v -0.640465 -0.906158 6.391858
v 0.640465 -0.997150 6.391858
v -0.931541 -0.830331 1.738891
v -0.640463 -0.997150 6.391858
v -0.492211 -0.845496 0.943303
v -0.931541 -1.072977 1.738892
v 0.492211 -0.845496 0.943303
v 0.711355 -0.830331 1.809320
v 0.504473 -0.906158 6.271177
v -0.504473 -0.906158 6.271178
v -0.711355 -0.830331 1.809319
v -0.375869 -0.800000 1.122766
v 0.375868 -0.800000 1.122767
v 0.592796 -0.912977 2.085335
v 0.448344 -0.927481 6.114079
v -0.448345 -0.927481 6.114077
v -0.592796 -0.912977 2.085334
v -0.313224 -0.903308 1.259987
v 0.313224 -0.903308 1.259987
v 0.760116 -1.390187 0.335924
v -0.760115 -1.390187 -0.335924
v -1.000695 -0.700000 -0.442245
v -1.000695 -1.158489 -0.442245
v 1.000695 -0.700000 0.442245
v 1.000695 -1.158489 0.442245
v 0.665234 -0.400000 -0.739725
v -0.665234 -0.400000 -0.739725
v 0.755106 -0.400000 -0.332876
v 0.753219 -0.400000 0.332876
v -0.665234 -0.400000 0.739724
v 0.665234 -0.400000 0.739725
v -0.755107 -0.400000 0.332876
v -0.753219 -0.400000 -0.332876
v -0.711355 -1.072977 1.809320
v -0.504473 -0.997150 6.271177
v 0.504474 -0.997150 6.271178
v 0.711356 -1.072977 1.809319
v 0.375869 -1.103308 1.122766
v -0.375868 -1.103308 1.122767
v -0.592796 -0.990331 2.085335
v -0.448344 -0.975827 6.114079
v 0.448345 -0.975827 6.114077
v 0.592797 -0.990331 2.085334
v 0.313224 -1.000000 1.259987
v -0.313223 -1.000000 1.259987
v -0.492211 -0.845496 -0.943304
v 0.931541 -1.072976 -1.738893
v 0.492211 -0.845496 -0.943304
v 0.640462 -0.997148 -6.391859
v 0.931541 -0.830330 -1.738892
v -0.640466 -0.997148 -6.391858
v 0.640463 -0.906156 -6.391859
v -0.931542 -1.072977 -1.738891
v -0.640464 -0.906156 -6.391858
v -0.492211 -1.057811 -0.943304
v -0.931542 -0.830330 -1.738892
v 0.492211 -1.057811 -0.943304
vt 0.700618 0.719096
vt 0.795570 0.610610
vt 0.795570 0.778336
vt 0.649542 0.650059
vt 0.648757 0.544933
vt 0.506058 0.609723
vt 0.606860 0.723149
vt 0.506058 0.777448
vt 0.796190 0.580558
vt 0.919596 0.580558
vt 0.857893 0.687431
vt 0.652086 0.737999
vt 0.652871 0.843125
vt 0.694769 0.664909
vt 0.601011 0.668962
vt 0.796190 0.651806
vt 0.857893 0.544933
vt 0.919596 0.651806
vt 0.751428 0.082390
vt 0.799544 0.042818
vt 0.789053 0.101258
vt 0.000310 0.984328
vt 0.164182 0.891619
vt 0.164182 0.984328
vt 0.750808 0.005767
vt 0.666160 0.093192
vt 0.670346 0.000998
vt 0.538898 0.000310
vt 0.463296 0.101143
vt 0.456860 0.004767
vt 0.960062 0.780759
vt 0.796190 0.688050
vt 0.960062 0.688050
vt 0.541508 0.274978
vt 0.462468 0.267781
vt 0.541508 0.274978
vt 0.462468 0.267781
vt 0.537322 0.367171
vt 0.456860 0.362402
vt 0.666133 0.274192
vt 0.750809 0.363403
vt 0.668770 0.367860
vt 0.965434 0.082324
vt 0.916729 0.044679
vt 0.941145 0.000398
vt 0.965434 0.218462
vt 0.917319 0.258034
vt 0.927810 0.199594
vt 0.788280 0.199307
vt 0.751428 0.218529
vt 0.800134 0.256173
vt 0.775717 0.300455
vt 0.774105 0.000310
vt 0.928583 0.101546
vt 0.000310 0.864016
vt 0.431679 0.718277
vt 0.000310 0.745261
vt 0.505437 0.759006
vt 0.431679 0.891000
vt 0.505437 0.850270
vt 0.431679 0.718277
vt 0.000310 0.864016
vt 0.431679 0.891000
vt 0.505437 0.759006
vt 0.488799 0.769792
vt 0.425150 0.738690
vt 0.000310 0.745261
vt 0.011498 0.851408
vt 0.488799 0.839484
vt 0.488799 0.769792
vt 0.425150 0.738690
vt 0.988204 0.981602
vt 0.431679 0.891000
vt 0.011498 0.851408
vt 0.425150 0.870587
vt 0.505437 0.850270
vt 0.488799 0.769792
vt 0.505437 0.759006
vt 0.000310 0.745261
vt 0.000310 0.864016
vt 0.431679 0.891000
vt 0.488799 0.839484
vt 0.505437 0.850270
vt 0.488799 0.839484
vt 0.431679 0.718277
vt 0.011498 0.757869
vt 0.425150 0.738690
vt 0.000310 0.745261
vt 0.011498 0.851408
vt 0.000310 0.864016
vt 0.488799 0.769792
vt 0.505437 0.759006
vt 0.431679 0.718277
vt 0.988204 0.981602
vt 0.425150 0.870587
vt 0.425150 0.738690
vt 0.942758 0.300542
vt 0.463296 0.101143
vt 0.541535 0.093978
vt 0.000310 0.891619
vt 0.164182 0.891619
vt 0.744372 0.267026
vt 0.744372 0.267026
vt 0.541535 0.093978
vt 0.666160 0.093192
vt 0.666133 0.274192
vt 0.796190 0.780759
vt 0.796190 0.780759
vt 0.745201 0.100388
vt 0.011498 0.851408
vt 0.425150 0.870587
vt 0.011498 0.757869
vt 0.488799 0.839484
vt 0.505437 0.850270
vt 0.425150 0.870587
vt 0.745201 0.100388
vt 0.011498 0.757869
vt 0.011498 0.757869
vt 0.000310 0.891619
vt 0.960062 0.780759
vt 0.608253 0.863654
vt 0.966921 0.888597
vt 0.605302 0.980412
vt 0.576304 0.999690
vt 0.964700 0.966175
vt 0.988204 0.981602
vt 0.988204 0.874120
vt 0.964700 0.966175
vt 0.966921 0.888597
vt 0.988204 0.874120
vt 0.526970 0.950479
vt 0.580125 0.843744
vt 0.608253 0.863654
vt 0.580125 0.843744
vt 0.530045 0.892224
vt 0.508289 0.881444
vt 0.530045 0.892224
vt 0.508289 0.881444
vt 0.506058 0.960708
vt 0.526970 0.950479
vt 0.508289 0.881444
vt 0.526970 0.950479
vt 0.506058 0.960708
vt 0.508289 0.881444
vt 0.526970 0.950479
vt 0.506058 0.960708
vt 0.608253 0.863654
vt 0.966921 0.888597
vt 0.605302 0.980412
vt 0.580125 0.843744
vt 0.576304 0.999690
vt 0.964700 0.966175
vt 0.530045 0.892224
vt 0.988204 0.874120
vt 0.608253 0.863654
vt 0.966921 0.888597
vt 0.605302 0.980412
vt 0.580125 0.843744
vt 0.576304 0.999690
vt 0.964700 0.966175
vt 0.988204 0.981602
vt 0.530045 0.892224
vt 0.988204 0.874120
vt 0.506058 0.960708
vt 0.605302 0.980412
vt 0.576304 0.999690
vn -0.0000 0.0133 -0.9999
vn 0.9247 0.1350 -0.3559
vn 0.9247 0.1350 0.3559
vn -0.0000 0.0133 0.9999
vn -0.0000 1.0000 -0.0000
vn -0.9247 0.1350 0.3559
vn -0.9247 0.1350 -0.3559
vn 0.8422 0.2330 -0.4862
vn 0.8422 0.2330 0.4862
vn -0.8422 0.2330 0.4862
vn -0.8422 0.2330 -0.4862
vn -0.6536 -0.7435 -0.1413
vn 0.0000 -0.0000 -1.0000
vn 0.8770 0.0000 -0.4805
vn 0.8787 0.0000 0.4774
vn 0.0000 0.0000 1.0000
vn -0.7308 0.6632 0.1614
vn -0.8770 0.0000 0.4805
vn -0.8787 -0.0000 -0.4774
vn 0.7436 -0.5301 -0.4074
vn 0.6536 -0.7435 0.1413
vn 0.0000 -1.0000 0.0000
vn -0.7436 -0.5301 0.4074
vn 0.0000 -0.7140 -0.7002
vn -0.6932 -0.7207 -0.0020
vn 0.6932 -0.7207 0.0020
vn 0.9980 -0.0000 -0.0624
vn -0.8754 -0.0000 0.4834
vn -0.9980 -0.0000 -0.0624
vn 0.8754 -0.0000 0.4834
vn 0.0122 -0.9992 -0.0382
vn 0.0000 -0.9693 0.2457
vn -0.0122 0.9992 -0.0382
vn 0.0137 0.9998 -0.0154
vn 0.0055 -0.9998 0.0172
vn -0.0000 -0.9693 -0.2457
vn -0.1902 0.9739 -0.1236
vn 0.1902 -0.9739 -0.1236
vn 0.0137 -0.9998 0.0154
vn -0.0122 -0.9992 0.0382
vn 0.0000 0.9693 -0.2457
vn -0.0137 0.9998 0.0154
vn -0.0055 0.9998 0.0172
vn 0.0122 0.9992 0.0382
vn -1.0000 -0.0000 -0.0028
vn 1.0000 0.0000 0.0028
vn 0.0000 -0.7140 0.7002
vn 0.0000 0.6295 -0.7770
vn -0.7830 0.4538 -0.4254
vn 0.7830 0.4538 0.4254
vn 0.7710 0.6368 0.0022
vn -0.7710 0.6368 -0.0022
vn -0.0000 0.6295 0.7770
vn 0.7308 0.6632 -0.1614
vn -0.9980 -0.0000 0.0624
vn 0.9980 -0.0000 0.0624
vn 0.8754 0.0000 -0.4834
vn -0.8754 -0.0000 -0.4834
vn -0.0055 -0.9998 -0.0172
vn -0.1902 -0.9739 0.1236
vn -0.0137 -0.9998 -0.0154
vn 0.1902 0.9739 0.1236
vn 0.0055 0.9998 -0.0172
vn -0.0000 0.9693 0.2457
vn -0.7461 -0.5283 -0.4053
vn -0.7808 0.4554 0.4278
vn 0.6518 -0.7446 -0.1440
vn 0.7461 -0.5283 0.4053
vn -0.6518 -0.7446 0.1440
vn 0.1902 -0.9739 0.1236
vn -0.1902 0.9739 0.1236
vn -0.0055 0.9998 -0.0172
vn -0.0137 -0.9998 0.0154
vn -0.0122 0.9992 0.0382
vn 0.0122 -0.9992 0.0382
vn -0.0055 -0.9998 0.0172
vn -0.1902 -0.9739 -0.1236
vn 0.0055 0.9998 0.0172
vn 0.0137 0.9998 0.0154
vn 0.1902 0.9739 -0.1236
vn -0.7325 0.6620 -0.1584
vn 0.7325 0.6620 0.1584
vn 0.7808 0.4554 -0.4278
vn 0.0137 -0.9998 -0.0154
vn -0.0122 -0.9992 -0.0382
vn 0.0055 -0.9998 -0.0172
vn 0.0122 0.9992 -0.0382
vn -0.0137 0.9998 -0.0154
vn 0.0000 -1.0000 -0.0036
vn -0.3539 -0.9353 0.0005
vn -0.0000 0.9909 0.1345
vn 0.0000 -0.9909 0.1345
vn -0.3478 -0.9287 -0.1287
vn -0.6006 0.7993 0.0187
vn 0.5699 -0.7601 -0.3121
vn -0.5699 0.7601 -0.3121
vn -0.0000 0.7989 -0.6015
vn 0.6006 -0.7993 0.0187
vn 0.0000 -0.7989 0.6015
vn 0.0000 0.7989 0.6015
vn 0.0000 1.0000 0.0036
vn 0.6006 0.7993 -0.0187
vn -0.3539 0.9353 -0.0005
vn -0.3478 0.9287 0.1287
vn 0.5699 0.7601 0.3121
vn 0.0000 0.9909 -0.1345
vn 0.0000 -1.0000 0.0036
vn -0.6006 -0.7993 -0.0187
vn 0.3539 -0.9353 -0.0005
vn 0.3478 -0.9287 0.1287
vn -0.5699 -0.7601 0.3121
vn -0.0000 -0.9909 -0.1345
vn -0.0000 -0.7989 -0.6015
vn -0.0000 1.0000 -0.0036
vn 0.3478 0.9287 -0.1287
vn 0.3539 0.9353 0.0005
vn 0.0000 -0.9999 -0.0117
vn -0.6006 -0.7993 0.0187
vn -0.5699 -0.7601 -0.3121
vn -0.3539 0.9353 0.0005
vn 0.3478 -0.9287 -0.1287
vn -0.3478 0.9287 -0.1287
vn 0.3539 -0.9353 0.0005
vn 0.0000 0.9999 0.0117
vn 0.3539 0.9353 -0.0005
vn -0.6006 0.7993 -0.0187
vn -0.5699 0.7601 0.3121
vn 0.3478 0.9287 0.1287
vn -0.0000 -0.9999 0.0117
vn -0.3539 -0.9353 -0.0005
vn 0.6006 -0.7993 -0.0187
vn 0.5699 -0.7601 0.3121
vn -0.3478 -0.9287 0.1287
vn -0.0000 0.9999 -0.0117
vn 0.5699 0.7601 -0.3121
vn 0.6006 0.7993 0.0187
s off
f 2/1/1 26/2/1 25/3/1
f 26/2/2 6/4/2 27/5/2
f 6/4/3 28/6/3 27/5/3
f 28/6/4 10/7/4 29/8/4
f 2/9/5 10/10/5 6/11/5
f 29/8/6 12/12/6 30/13/6
f 12/12/7 25/3/7 30/13/7
f 2/1/1 4/14/1 26/2/1
f 26/2/8 4/14/8 6/4/8
f 6/4/9 8/15/9 28/6/9
f 28/6/4 8/15/4 10/7/4
f 6/11/5 4/16/5 2/9/5
f 2/9/5 12/17/5 10/10/5
f 10/10/5 8/18/5 6/11/5
f 29/8/10 10/7/10 12/12/10
f 12/12/11 2/1/11 25/3/11
f 82/19/12 11/20/12 80/21/12
f 13/22/13 16/23/13 15/24/13
f 15/25/14 18/26/14 17/27/14
f 84/28/15 20/29/15 19/30/15
f 20/31/16 21/32/16 19/33/16
f 24/34/17 89/35/17 91/36/17
f 22/37/18 23/38/18 21/39/18
f 81/40/19 13/41/19 82/42/19
f 17/43/20 9/44/20 15/45/20
f 84/46/21 5/47/21 79/48/21
f 1/49/22 80/21/22 79/48/22
f 23/50/23 3/51/23 21/52/23
f 13/53/24 9/44/24 11/20/24
f 82/19/25 1/49/25 23/50/25
f 84/46/26 7/54/26 17/43/26
f 111/55/27 106/56/27 108/57/27
f 105/58/28 112/59/28 114/60/28
f 115/61/29 110/62/29 112/59/29
f 109/63/30 116/64/30 106/56/30
f 106/56/31 37/65/31 42/66/31
f 113/67/13 108/57/13 110/62/13
f 113/67/5 52/68/5 111/55/5
f 116/64/32 38/69/32 37/65/32
f 115/61/33 49/70/33 54/71/33
f 115/61/34 53/72/34 113/67/34
f 59/73/35 95/74/35 96/75/35
f 57/76/36 98/77/36 55/78/36
f 63/79/22 95/74/22 61/80/22
f 62/81/37 71/82/37 64/83/37
f 59/73/38 97/84/38 57/76/38
f 65/85/39 94/86/39 63/79/39
f 65/85/40 98/77/40 93/87/40
f 58/88/5 69/89/5 60/90/5
f 64/83/41 72/91/41 66/92/41
f 56/93/42 68/94/42 58/88/42
f 62/81/43 69/89/43 70/95/43
f 56/93/44 72/91/44 67/96/44
f 23/38/45 81/40/45 82/42/45
f 18/26/46 84/28/46 17/27/46
f 19/97/47 3/51/47 5/47/47
f 89/35/5 90/98/5 88/99/5
f 14/100/48 85/101/48 16/23/48
f 81/40/49 86/102/49 14/103/49
f 83/104/50 90/98/50 20/29/50
f 83/104/51 87/105/51 88/99/51
f 81/40/52 91/36/52 92/106/52
f 20/31/53 89/107/53 22/108/53
f 18/26/54 85/109/54 87/105/54
f 58/88/16 63/79/16 61/80/16
f 60/90/55 65/85/55 63/79/55
f 56/93/56 61/80/56 59/73/56
f 66/92/57 59/73/57 57/76/57
f 62/81/58 55/78/58 65/85/58
f 112/59/59 40/110/59 39/111/59
f 112/59/60 38/69/60 114/60/60
f 106/56/61 41/112/61 108/57/61
f 108/57/22 40/110/22 110/62/22
f 109/63/62 50/113/62 107/114/62
f 109/63/63 52/68/63 51/115/63
f 107/114/64 49/70/64 105/58/64
f 82/19/65 13/53/65 11/20/65
f 13/22/13 14/100/13 16/23/13
f 15/25/14 16/116/14 18/26/14
f 84/28/15 83/104/15 20/29/15
f 20/31/16 22/108/16 21/32/16
f 24/34/66 22/37/66 89/35/66
f 22/37/18 24/34/18 23/38/18
f 81/40/19 14/103/19 13/41/19
f 17/43/67 7/54/67 9/44/67
f 84/46/68 19/97/68 5/47/68
f 80/21/22 11/20/22 9/44/22
f 9/44/22 7/54/22 80/21/22
f 7/54/22 79/48/22 80/21/22
f 79/48/22 5/47/22 3/51/22
f 3/51/22 1/49/22 79/48/22
f 23/50/69 1/49/69 3/51/69
f 13/53/24 15/45/24 9/44/24
f 82/19/25 80/21/25 1/49/25
f 84/46/26 79/48/26 7/54/26
f 111/55/27 109/63/27 106/56/27
f 105/58/28 115/61/28 112/59/28
f 115/61/29 113/67/29 110/62/29
f 109/63/30 107/114/30 116/64/30
f 106/56/70 116/64/70 37/65/70
f 113/67/13 111/55/13 108/57/13
f 113/67/5 53/117/5 52/68/5
f 116/64/32 114/60/32 38/69/32
f 115/61/71 105/58/71 49/70/71
f 115/61/72 54/71/72 53/72/72
f 59/73/73 61/80/73 95/74/73
f 57/76/36 97/84/36 98/77/36
f 63/79/22 94/86/22 95/74/22
f 62/81/74 70/95/74 71/82/74
f 59/73/75 96/75/75 97/84/75
f 65/85/76 93/87/76 94/86/76
f 65/85/77 55/78/77 98/77/77
f 58/88/5 68/118/5 69/89/5
f 64/83/41 71/82/41 72/91/41
f 56/93/78 67/96/78 68/94/78
f 62/81/79 60/90/79 69/89/79
f 56/93/80 66/92/80 72/91/80
f 23/38/45 24/34/45 81/40/45
f 18/26/46 83/104/46 84/28/46
f 19/97/47 21/52/47 3/51/47
f 87/105/5 85/109/5 92/106/5
f 85/109/5 86/102/5 92/106/5
f 92/106/5 91/36/5 88/99/5
f 87/105/5 92/106/5 88/99/5
f 91/36/5 89/35/5 88/99/5
f 14/100/48 86/119/48 85/101/48
f 81/40/81 92/106/81 86/102/81
f 83/104/82 88/99/82 90/98/82
f 83/104/51 18/26/51 87/105/51
f 81/40/52 24/34/52 91/36/52
f 20/31/53 90/120/53 89/107/53
f 18/26/83 16/116/83 85/109/83
f 58/88/16 60/90/16 63/79/16
f 60/90/55 62/81/55 65/85/55
f 56/93/56 58/88/56 61/80/56
f 66/92/57 56/93/57 59/73/57
f 62/81/58 64/83/58 55/78/58
f 112/59/84 110/62/84 40/110/84
f 112/59/85 39/111/85 38/69/85
f 106/56/86 42/66/86 41/112/86
f 108/57/22 41/112/22 40/110/22
f 109/63/87 51/115/87 50/113/87
f 109/63/88 111/55/88 52/68/88
f 107/114/64 50/113/64 49/70/64
f 33/121/89 34/122/89 36/123/89
f 42/124/90 35/125/90 41/126/90
f 52/127/91 47/128/91 46/129/91
f 40/130/92 35/125/92 34/122/92
f 42/124/93 31/131/93 36/123/93
f 51/132/94 46/129/94 45/133/94
f 39/134/95 32/135/95 38/136/95
f 51/132/96 44/137/96 50/138/96
f 49/139/97 44/137/97 43/140/97
f 39/134/98 34/122/98 33/121/98
f 97/141/99 104/142/99 98/143/99
f 71/144/100 78/145/100 72/146/100
f 76/147/101 75/148/101 73/149/101
f 70/150/102 75/148/102 76/147/102
f 67/151/103 74/152/103 68/94/103
f 67/151/104 78/145/104 73/149/104
f 70/150/105 77/153/105 71/144/105
f 69/154/106 74/152/106 75/148/106
f 102/155/107 101/156/107 99/157/107
f 96/158/108 101/156/108 102/155/108
f 93/159/109 100/160/109 94/161/109
f 93/159/110 104/142/110 99/157/110
f 96/158/111 103/162/111 97/141/111
f 95/163/112 100/160/112 101/156/112
f 38/136/113 31/131/113 37/164/113
f 45/133/114 46/129/114 48/165/114
f 54/166/115 43/140/115 48/165/115
f 54/166/116 47/128/116 53/72/116
f 34/122/89 35/125/89 36/123/89
f 36/123/117 31/131/117 32/135/117
f 32/135/117 33/121/117 36/123/117
f 42/124/118 36/123/118 35/125/118
f 52/127/91 53/72/91 47/128/91
f 40/130/92 41/126/92 35/125/92
f 42/124/119 37/164/119 31/131/119
f 51/132/120 52/127/120 46/129/120
f 39/134/121 33/121/121 32/135/121
f 51/132/122 45/133/122 44/137/122
f 49/139/97 50/138/97 44/137/97
f 39/134/123 40/130/123 34/122/123
f 97/141/99 103/162/99 104/142/99
f 71/144/100 77/153/100 78/145/100
f 75/148/101 74/152/101 73/149/101
f 73/149/124 78/145/124 77/153/124
f 77/153/124 76/147/124 73/149/124
f 70/150/125 69/154/125 75/148/125
f 67/151/126 73/149/126 74/152/126
f 67/151/127 72/146/127 78/145/127
f 70/150/128 76/147/128 77/153/128
f 69/154/106 68/94/106 74/152/106
f 101/156/107 100/160/107 99/157/107
f 99/157/129 104/142/129 103/162/129
f 103/162/129 102/155/129 99/157/129
f 96/158/130 95/163/130 101/156/130
f 93/159/131 99/157/131 100/160/131
f 93/159/132 98/143/132 104/142/132
f 96/158/133 102/155/133 103/162/133
f 95/163/112 94/161/112 100/160/112
f 38/136/113 32/135/113 31/131/113
f 46/129/114 47/128/114 48/165/114
f 48/165/134 43/140/134 44/137/134
f 44/137/134 45/133/134 48/165/134
f 54/166/135 49/139/135 43/140/135
f 54/166/136 48/165/136 47/128/136
