# Blender v2.93.3 OBJ File: 'station_core.blend'
# www.blender.org
o Cylinder
v -0.000000 0.996000 0.288000
v -0.000000 -0.996000 0.288000
v 0.249415 0.996000 0.144000
v 0.249415 -0.996000 0.144000
v 0.249415 0.996000 -0.144000
v 0.249415 -0.996000 -0.144000
v -0.000000 0.996000 -0.288000
v -0.000000 -0.996000 -0.288000
v -0.249415 0.996000 -0.144000
v -0.249415 -0.996000 -0.144000
v -0.249415 0.996000 0.144000
v -0.249415 -0.996000 0.144000
v -0.000000 0.880000 0.345600
v -0.000000 -0.880000 0.345600
v 0.299298 -0.880000 0.172800
v 0.299298 0.880000 0.172800
v 0.299298 -0.880000 -0.172800
v 0.299298 0.880000 -0.172800
v -0.000000 -0.880000 -0.345600
v -0.000000 0.880000 -0.345600
v -0.299298 -0.880000 -0.172800
v -0.299298 0.880000 -0.172800
v -0.299298 -0.880000 0.172800
v -0.299298 0.880000 0.172800
v 1.012017 -0.420000 0.584289
v 0.952735 -0.835208 0.550062
v 0.809614 -0.955002 0.467431
v 0.666493 -0.835208 0.384800
v 0.607210 -0.420000 0.350573
v -0.000000 -0.420000 1.168577
v -0.000000 -0.835208 1.100123
v -0.000000 -0.955002 0.934861
v -0.000000 -0.835208 0.769600
v -0.000000 -0.420000 0.701146
v -1.012017 -0.420000 0.584289
v -0.952734 -0.835208 0.550062
v -0.809614 -0.955002 0.467431
v -0.666493 -0.835208 0.384800
v -0.607210 -0.420000 0.350573
v -1.012017 -0.420000 -0.584288
v -0.952735 -0.835208 -0.550061
v -0.809614 -0.955002 -0.467431
v -0.666493 -0.835208 -0.384800
v -0.607210 -0.420000 -0.350573
v 0.000000 -0.420000 -1.168577
v 0.000000 -0.835208 -1.100123
v 0.000000 -0.955002 -0.934861
v 0.000000 -0.835208 -0.769600
v 0.000000 -0.420000 -0.701146
v 1.012017 -0.420000 -0.584288
v 0.952734 -0.835208 -0.550062
v 0.809614 -0.955002 -0.467431
v 0.666493 -0.835208 -0.384800
v 0.607210 -0.420000 -0.350573
v 1.012017 0.420000 0.584289
v 0.607210 0.420000 0.350573
v 0.666493 0.835208 0.384800
v 0.809614 0.955002 0.467431
v 0.952735 0.835208 0.550062
v 0.000000 0.420000 1.168577
v -0.000000 0.420000 0.701146
v -0.000000 0.835208 0.769600
v 0.000000 0.955002 0.934862
v -0.000000 0.835208 1.100123
v -1.012017 0.420000 0.584289
v -0.607210 0.420000 0.350573
v -0.666493 0.835208 0.384800
v -0.809614 0.955002 0.467431
v -0.952734 0.835208 0.550062
v -1.012017 0.420000 -0.584288
v -0.607210 0.420000 -0.350573
v -0.666493 0.835208 -0.384800
v -0.809614 0.955002 -0.467431
v -0.952735 0.835208 -0.550061
v 0.000000 0.420000 -1.168577
v 0.000000 0.420000 -0.701146
v 0.000000 0.835208 -0.769600
v 0.000000 0.955002 -0.934861
v 0.000000 0.835208 -1.100123
v 1.012017 0.420000 -0.584288
v 0.607210 0.420000 -0.350573
v 0.666493 0.835208 -0.384800
v 0.809614 0.955002 -0.467431
v 0.952734 0.835208 -0.550062
v -0.640000 -0.358400 -0.160000
v -0.640000 -0.358400 0.160000
v -0.640000 0.358400 -0.160000
v -0.640000 0.358400 0.160000
v -0.240000 -0.358400 -0.120000
v -0.240000 -0.358400 0.120000
v -0.240000 0.358400 -0.120000
v -0.240000 0.358400 0.120000
v -0.458564 -0.358400 0.474256
v -0.181436 -0.358400 0.634256
v -0.458564 0.358400 0.474256
v -0.181436 0.358400 0.634256
v -0.223923 -0.358400 0.147846
v -0.016077 -0.358400 0.267846
v -0.223923 0.358400 0.147846
v -0.016077 0.358400 0.267846
v 0.181436 -0.358400 0.634256
v 0.458564 -0.358400 0.474256
v 0.181436 0.358400 0.634256
v 0.458564 0.358400 0.474256
v 0.016077 -0.358400 0.267846
v 0.223923 -0.358400 0.147846
v 0.016077 0.358400 0.267846
v 0.223923 0.358400 0.147846
v 0.640000 -0.358400 0.160000
v 0.640000 -0.358400 -0.160000
v 0.640000 0.358400 0.160000
v 0.640000 0.358400 -0.160000
v 0.240000 -0.358400 0.120000
v 0.240000 -0.358400 -0.120000
v 0.240000 0.358400 0.120000
v 0.240000 0.358400 -0.120000
v 0.458564 -0.358400 -0.474256
v 0.181436 -0.358400 -0.634256
v 0.458564 0.358400 -0.474256
v 0.181436 0.358400 -0.634256
v 0.223923 -0.358400 -0.147846
v 0.016077 -0.358400 -0.267846
v 0.223923 0.358400 -0.147846
v 0.016077 0.358400 -0.267846
v -0.181436 -0.358400 -0.634256
v -0.458564 -0.358400 -0.474256
v -0.181436 0.358400 -0.634256
v -0.458564 0.358400 -0.474256
v -0.016077 -0.358400 -0.267846
v -0.223923 -0.358400 -0.147846
v -0.016077 0.358400 -0.267846
v -0.223923 0.358400 -0.147846
v 1.499508 -0.278858 0.467431
v -1.499508 -0.278858 0.467431
v -1.499508 -0.278858 -0.467431
v 1.499508 -0.278858 -0.467431
v 1.499508 0.278858 0.467431
v -1.499508 0.278858 0.467431
v -1.499508 0.278858 -0.467431
v 1.499508 0.278858 -0.467431
v 0.506009 -0.294000 1.500000
v -0.000000 -0.294000 1.500000
v -0.506009 -0.294000 1.500000
v 0.000000 -0.294000 -1.500000
v 0.506009 -0.294000 -1.500000
v -0.506009 -0.294000 -1.500000
v 0.506009 0.294000 -1.500000
v -0.506009 0.294000 1.500000
v 0.000000 0.294000 -1.500000
v -0.506009 0.294000 -1.500000
v 0.000000 0.294000 1.500000
v 0.506009 0.294000 1.500000
vt 1.000000 0.916667
vt 0.916667 1.000000
vt 0.916667 0.916667
vt 0.833333 0.916667
vt 0.833333 1.000000
vt 0.750000 0.916667
vt 0.666667 1.000000
vt 0.666667 0.916667
vt 0.625000 0.505000
vt 0.728923 0.565000
vt 0.625000 0.745000
vt 0.583333 0.916667
vt 0.583333 1.000000
vt 0.500000 0.916667
vt 0.875000 0.505000
vt 0.771077 0.565000
vt 0.771077 0.685000
vt 0.583333 0.833333
vt 0.500000 0.750000
vt 0.583333 0.750000
vt 0.500000 0.833333
vt 0.666667 0.833333
vt 0.666667 0.750000
vt 0.750000 0.833333
vt 0.750000 0.750000
vt 0.833333 0.750000
vt 0.833333 0.833333
vt 0.916667 0.833333
vt 0.916667 0.750000
vt 1.000000 0.833333
vt 1.000000 0.750000
vt 1.000000 1.000000
vt 0.750000 1.000000
vt 0.728923 0.685000
vt 0.521077 0.685000
vt 0.521077 0.565000
vt 0.500000 1.000000
vt 0.875000 0.745000
vt 0.978923 0.685000
vt 0.978923 0.565000
vt 0.359404 0.468569
vt 0.469885 0.373749
vt 0.500819 0.390025
vt 0.358400 0.410796
vt 0.450114 0.361716
vt 0.432700 0.350928
vt 0.357881 0.364306
vt 0.410537 0.339417
vt 0.219103 0.388955
vt 0.357947 0.433919
vt 0.248466 0.370043
vt 0.286548 0.348785
vt 0.359000 0.390083
vt 0.220170 0.227395
vt 0.270772 0.255654
vt 0.268637 0.358714
vt 0.288240 0.266507
vt 0.307342 0.334860
vt 0.362367 0.182552
vt 0.251014 0.243625
vt 0.361929 0.205704
vt 0.361369 0.226345
vt 0.310590 0.278263
vt 0.905609 0.228161
vt 0.996672 0.304171
vt 0.905609 0.304171
vt 0.181203 0.648778
vt 0.134780 0.746546
vt 0.144011 0.696358
vt 0.064510 0.788854
vt 0.178868 0.786824
vt 0.905609 0.076140
vt 0.996672 0.152150
vt 0.905609 0.152150
vt 0.500819 0.228584
vt 0.360881 0.147777
vt 0.451339 0.258735
vt 0.433336 0.268672
vt 0.362626 0.251816
vt 0.248372 0.929956
vt 0.164243 0.929561
vt 0.905609 0.380181
vt 0.996672 0.456191
vt 0.905609 0.456191
vt 0.000130 0.934363
vt 0.084192 0.930982
vt 0.029402 0.972755
vt 0.045112 0.497664
vt 0.102036 0.453338
vt 0.095117 0.498579
vt 0.471513 0.247429
vt 0.412235 0.282654
vt 0.203391 0.502336
vt 0.146467 0.546662
vt 0.153386 0.501421
vt 0.996672 0.000130
vt 0.996672 0.076140
vt 0.996672 0.380181
vt 0.996672 0.228161
vt 0.307342 0.655912
vt 0.288240 0.587559
vt 0.310590 0.599315
vt 0.286548 0.669837
vt 0.270772 0.576707
vt 0.268637 0.679767
vt 0.251014 0.564678
vt 0.248466 0.691095
vt 0.220170 0.548448
vt 0.357881 0.685359
vt 0.358400 0.731849
vt 0.357947 0.754972
vt 0.219103 0.710007
vt 0.410537 0.660469
vt 0.359000 0.711136
vt 0.432700 0.671981
vt 0.450114 0.682768
vt 0.469885 0.694802
vt 0.359404 0.789622
vt 0.433335 0.589725
vt 0.451339 0.579788
vt 0.471513 0.568482
vt 0.500819 0.711077
vt 0.362626 0.572869
vt 0.412235 0.603707
vt 0.361369 0.547398
vt 0.361929 0.526757
vt 0.362367 0.503605
vt 0.500819 0.549637
vt 0.360881 0.468830
vt 0.113723 0.253454
vt 0.137568 0.308914
vt 0.104492 0.303642
vt 0.110934 0.691086
vt 0.101703 0.741274
vt 0.067299 0.351222
vt 0.181657 0.349192
vt 0.146799 0.258726
vt 0.183992 0.211146
vt 0.069634 0.213176
vt 0.066846 0.650808
vt 0.096062 0.498614
vt 0.098576 0.544787
vt 0.084260 0.070439
vt 0.163087 0.000130
vt 0.164310 0.069018
vt 0.152440 0.501386
vt 0.165466 0.998449
vt 0.085415 0.999870
vt 0.248372 0.065637
vt 0.219101 0.027245
vt 0.149926 0.455213
vt 0.000130 0.070044
vt 0.220482 0.969364
vt 0.905609 0.000130
vt 0.083037 0.001551
vt 0.028021 0.030637
vt 0.768331 0.000000
vt 0.643331 0.125000
vt 0.643331 0.000000
vt 0.768331 0.125000
vt 0.643331 0.250000
vt 0.768331 0.250000
vt 0.643331 0.375000
vt 0.768331 0.375000
vt 0.643331 0.500000
vt 0.518331 0.375000
vt 0.518331 0.250000
vt 0.893331 0.250000
vt 0.768331 0.000000
vt 0.643331 0.125000
vt 0.643331 0.000000
vt 0.768331 0.125000
vt 0.643331 0.250000
vt 0.768331 0.250000
vt 0.643331 0.375000
vt 0.768331 0.375000
vt 0.643331 0.500000
vt 0.518331 0.375000
vt 0.518331 0.250000
vt 0.893331 0.250000
vt 0.768331 0.000000
vt 0.643331 0.125000
vt 0.643331 0.000000
vt 0.768331 0.250000
vt 0.643331 0.250000
vt 0.643331 0.375000
vt 0.768331 0.375000
vt 0.643331 0.500000
vt 0.518331 0.375000
vt 0.518331 0.250000
vt 0.893331 0.375000
vt 0.643331 0.000000
vt 0.768331 0.125000
vt 0.643331 0.125000
vt 0.643331 0.250000
vt 0.768331 0.250000
vt 0.643331 0.375000
vt 0.768331 0.375000
vt 0.643331 0.500000
vt 0.518331 0.375000
vt 0.518331 0.250000
vt 0.893331 0.250000
vt 0.768331 0.000000
vt 0.643331 0.125000
vt 0.643331 0.000000
vt 0.768331 0.250000
vt 0.643331 0.250000
vt 0.768331 0.375000
vt 0.643331 0.375000
vt 0.768331 0.500000
vt 0.643331 0.500000
vt 0.518331 0.375000
vt 0.518331 0.250000
vt 0.893331 0.250000
vt 0.768331 0.000000
vt 0.643331 0.125000
vt 0.643331 0.000000
vt 0.768331 0.125000
vt 0.643331 0.250000
vt 0.768331 0.250000
vt 0.643331 0.375000
vt 0.768331 0.375000
vt 0.643331 0.500000
vt 0.518331 0.375000
vt 0.518331 0.250000
vt 0.893331 0.250000
vt 0.768331 0.500000
vt 0.893331 0.375000
vt 0.768331 0.500000
vt 0.893331 0.375000
vt 0.768331 0.125000
vt 0.768331 0.500000
vt 0.893331 0.250000
vt 0.768331 0.000000
vt 0.768331 0.500000
vt 0.893331 0.375000
vt 0.768331 0.125000
vt 0.893331 0.375000
vt 0.768331 0.500000
vt 0.893331 0.375000
vn 0.4593 -0.3950 0.7956
vn 0.9187 -0.3950 0.0000
vn 0.4593 -0.3950 -0.7956
vn -0.4593 -0.3950 -0.7956
vn 0.0000 -1.0000 0.0000
vn -0.9187 -0.3950 0.0000
vn -0.4593 -0.3950 0.7956
vn 0.0000 1.0000 0.0000
vn -0.4593 0.3950 0.7956
vn -0.5000 0.0000 0.8660
vn -0.9187 0.3950 0.0000
vn -1.0000 -0.0000 0.0000
vn -0.4593 0.3950 -0.7956
vn -0.5000 -0.0000 -0.8660
vn 0.4593 0.3950 -0.7956
vn 0.5000 0.0000 -0.8660
vn 0.9187 0.3950 0.0000
vn 1.0000 -0.0000 -0.0000
vn 0.4593 0.3950 0.7956
vn 0.5000 0.0000 0.8660
vn 0.4950 -0.1413 0.8573
vn 0.3209 -0.7668 0.5559
vn -0.3209 -0.7668 -0.5559
vn -0.4950 -0.1413 -0.8573
vn -0.4950 -0.1413 0.8573
vn -0.3209 -0.7668 0.5559
vn 0.3209 -0.7668 -0.5559
vn 0.4950 -0.1413 -0.8573
vn -0.9900 -0.1413 0.0000
vn -0.6418 -0.7668 0.0000
vn 0.6418 -0.7668 -0.0000
vn 0.9900 -0.1413 -0.0000
vn 0.2781 0.9606 0.0000
vn 0.2331 0.0000 0.9725
vn 0.1136 0.9738 0.1968
vn 0.0000 -0.9347 0.3554
vn 0.0000 -0.9347 -0.3554
vn 0.0000 0.9347 -0.3554
vn -0.4950 0.1413 -0.8573
vn -0.3209 0.7668 -0.5559
vn 0.3209 0.7668 0.5559
vn 0.4950 0.1413 0.8573
vn 0.4950 0.1413 -0.8573
vn 0.3209 0.7668 -0.5559
vn -0.3209 0.7668 0.5559
vn -0.4950 0.1413 0.8573
vn 0.9900 0.1413 -0.0000
vn 0.6418 0.7668 0.0000
vn -0.6418 0.7668 0.0000
vn -0.9900 0.1413 0.0000
vn -0.2331 0.0000 -0.9725
vn -0.2781 0.9606 0.0000
vn -0.2331 0.0000 0.9725
vn 0.2331 0.0000 -0.9725
vn -0.2781 -0.9606 -0.0000
vn 0.2781 -0.9606 -0.0000
vn 0.0000 0.0000 -1.0000
vn -0.0000 0.0000 1.0000
vn -0.8753 0.0000 0.4837
vn 0.0000 0.9347 0.3554
vn -0.1136 0.9738 -0.1968
vn -0.8753 0.0000 -0.4837
vn -0.1136 -0.9738 0.1968
vn 0.8753 0.0000 0.4837
vn 0.1136 -0.9738 -0.1968
vn 0.8753 0.0000 -0.4837
vn 0.1136 -0.9738 0.1968
vn -0.1136 -0.9738 -0.1968
vn 0.1136 0.9738 -0.1968
vn -0.1136 0.9738 0.1968
vn 0.0995 0.0000 -0.9950
vn 0.0995 0.0000 0.9950
vn -0.8120 0.0000 -0.5837
vn 0.9115 0.0000 0.4113
vn -0.9115 -0.0000 0.4113
vn 0.8120 0.0000 -0.5837
vn -0.0995 -0.0000 0.9950
vn -0.0995 0.0000 -0.9950
vn 0.8120 -0.0000 0.5837
vn -0.9115 0.0000 -0.4113
vn 0.9115 0.0000 -0.4113
vn -0.8120 0.0000 0.5837
s off
f 14/1/1 4/2/1 15/3/1
f 4/2/2 17/4/2 15/3/2
f 6/5/3 19/6/3 17/4/3
f 19/6/4 10/7/4 21/8/4
f 8/9/5 6/10/5 2/11/5
f 10/7/6 23/12/6 21/8/6
f 12/13/7 14/14/7 23/12/7
f 7/15/8 9/16/8 11/17/8
f 24/18/9 1/19/9 11/20/9
f 24/18/10 14/14/10 13/21/10
f 22/22/11 11/20/11 9/23/11
f 22/22/12 23/12/12 24/18/12
f 20/24/13 9/23/13 7/25/13
f 20/24/14 21/8/14 22/22/14
f 5/26/15 20/24/15 7/25/15
f 17/4/16 20/24/16 18/27/16
f 16/28/17 5/26/17 3/29/17
f 15/3/18 18/27/18 16/28/18
f 13/30/19 3/29/19 1/31/19
f 14/1/20 16/28/20 13/30/20
f 14/1/1 2/32/1 4/2/1
f 4/2/2 6/5/2 17/4/2
f 6/5/3 8/33/3 19/6/3
f 19/6/4 8/33/4 10/7/4
f 6/10/5 4/34/5 2/11/5
f 2/11/5 12/35/5 10/36/5
f 10/36/5 8/9/5 2/11/5
f 10/7/6 12/13/6 23/12/6
f 12/13/7 2/37/7 14/14/7
f 11/17/8 1/38/8 3/39/8
f 3/39/8 5/40/8 11/17/8
f 5/40/8 7/15/8 11/17/8
f 24/18/9 13/21/9 1/19/9
f 24/18/10 23/12/10 14/14/10
f 22/22/11 24/18/11 11/20/11
f 22/22/12 21/8/12 23/12/12
f 20/24/13 22/22/13 9/23/13
f 20/24/14 19/6/14 21/8/14
f 5/26/15 18/27/15 20/24/15
f 17/4/16 19/6/16 20/24/16
f 16/28/17 18/27/17 5/26/17
f 15/3/18 17/4/18 18/27/18
f 13/30/19 16/28/19 3/29/19
f 14/1/20 15/3/20 16/28/20
f 30/41/21 26/42/21 25/43/21
f 26/42/22 32/44/22 27/45/22
f 32/44/23 28/46/23 27/45/23
f 28/46/24 34/47/24 29/48/24
f 35/49/25 31/50/25 30/41/25
f 36/51/26 32/44/26 31/50/26
f 32/44/27 38/52/27 33/53/27
f 38/52/28 34/47/28 33/53/28
f 40/54/29 36/51/29 35/49/29
f 36/51/30 42/55/30 37/56/30
f 37/56/31 43/57/31 38/52/31
f 43/57/32 39/58/32 38/52/32
f 40/54/24 46/59/24 41/60/24
f 46/59/23 42/55/23 41/60/23
f 47/61/22 43/57/22 42/55/22
f 48/62/21 44/63/21 43/57/21
f 49/64/20 71/65/20 44/66/20
f 80/67/33 137/68/33 140/69/33
f 25/70/34 137/68/34 55/71/34
f 29/72/12 81/73/12 54/74/12
f 50/75/28 46/59/28 45/76/28
f 46/59/27 52/77/27 47/61/27
f 47/61/26 53/78/26 48/62/26
f 53/78/25 49/79/25 48/62/25
f 60/80/35 152/81/35 55/71/35
f 39/82/16 61/83/16 34/84/16
f 30/85/36 141/86/36 142/87/36
f 45/88/37 146/89/37 144/90/37
f 25/43/32 51/91/32 50/75/32
f 26/42/31 52/77/31 51/91/31
f 52/77/30 28/46/30 53/78/30
f 28/46/29 54/92/29 53/78/29
f 75/93/38 147/94/38 149/95/38
f 29/72/14 61/96/14 56/97/14
f 39/82/18 71/65/18 66/98/18
f 54/74/10 76/99/10 49/64/10
f 61/100/39 57/101/39 56/102/39
f 62/103/40 58/104/40 57/101/40
f 63/105/41 59/106/41 58/104/41
f 64/107/42 55/108/42 59/106/42
f 66/109/43 62/103/43 61/100/43
f 62/103/44 68/110/44 63/105/44
f 63/105/45 69/111/45 64/107/45
f 69/111/46 60/112/46 64/107/46
f 71/113/47 67/114/47 66/109/47
f 72/115/48 68/110/48 67/114/48
f 73/116/49 69/111/49 68/110/49
f 74/117/50 65/118/50 69/111/50
f 71/113/42 77/119/42 72/115/42
f 77/119/41 73/116/41 72/115/41
f 78/120/40 74/117/40 73/116/40
f 79/121/39 70/122/39 74/117/39
f 81/123/46 77/119/46 76/124/46
f 82/125/45 78/120/45 77/119/45
f 83/126/44 79/121/44 78/120/44
f 84/127/43 75/128/43 79/121/43
f 81/123/50 57/101/50 82/125/50
f 82/125/49 58/104/49 83/126/49
f 58/104/48 84/127/48 83/126/48
f 59/106/47 80/129/47 84/127/47
f 134/130/12 139/131/12 135/132/12
f 136/133/18 137/68/18 133/134/18
f 40/135/51 139/131/51 70/136/51
f 70/136/52 138/137/52 65/138/52
f 35/139/53 138/137/53 134/130/53
f 50/140/54 140/69/54 136/133/54
f 35/139/55 135/132/55 40/135/55
f 50/140/56 133/134/56 25/70/56
f 144/141/57 147/94/57 145/142/57
f 143/143/58 151/144/58 148/145/58
f 146/89/57 149/146/57 144/141/57
f 141/86/58 151/147/58 142/148/58
f 35/139/59 148/145/59 65/138/59
f 60/149/60 148/145/60 151/150/60
f 75/93/61 150/151/61 70/136/61
f 40/135/62 150/151/62 146/89/62
f 30/152/63 143/143/63 35/139/63
f 55/71/64 141/86/64 25/70/64
f 45/88/65 145/142/65 50/140/65
f 50/140/66 147/94/66 80/67/66
f 30/41/21 31/50/21 26/42/21
f 26/42/22 31/50/22 32/44/22
f 32/44/23 33/53/23 28/46/23
f 28/46/24 33/53/24 34/47/24
f 35/49/25 36/51/25 31/50/25
f 36/51/26 37/56/26 32/44/26
f 32/44/27 37/56/27 38/52/27
f 38/52/28 39/58/28 34/47/28
f 40/54/29 41/60/29 36/51/29
f 36/51/30 41/60/30 42/55/30
f 37/56/31 42/55/31 43/57/31
f 43/57/32 44/63/32 39/58/32
f 40/54/24 45/76/24 46/59/24
f 46/59/23 47/61/23 42/55/23
f 47/61/22 48/62/22 43/57/22
f 48/62/21 49/79/21 44/63/21
f 49/64/20 76/99/20 71/65/20
f 80/67/33 55/71/33 137/68/33
f 25/70/34 133/134/34 137/68/34
f 29/72/12 56/97/12 81/73/12
f 50/75/28 51/91/28 46/59/28
f 46/59/27 51/91/27 52/77/27
f 47/61/26 52/77/26 53/78/26
f 53/78/25 54/92/25 49/79/25
f 60/80/60 151/153/60 152/81/60
f 39/82/16 66/98/16 61/83/16
f 30/85/67 25/70/67 141/86/67
f 45/88/68 40/135/68 146/89/68
f 25/43/32 26/42/32 51/91/32
f 26/42/31 27/45/31 52/77/31
f 52/77/30 27/45/30 28/46/30
f 28/46/29 29/48/29 54/92/29
f 75/93/69 80/67/69 147/94/69
f 29/72/14 34/154/14 61/96/14
f 39/82/18 44/66/18 71/65/18
f 54/74/10 81/73/10 76/99/10
f 61/100/39 62/103/39 57/101/39
f 62/103/40 63/105/40 58/104/40
f 63/105/41 64/107/41 59/106/41
f 64/107/42 60/112/42 55/108/42
f 66/109/43 67/114/43 62/103/43
f 62/103/44 67/114/44 68/110/44
f 63/105/45 68/110/45 69/111/45
f 69/111/46 65/118/46 60/112/46
f 71/113/47 72/115/47 67/114/47
f 72/115/48 73/116/48 68/110/48
f 73/116/49 74/117/49 69/111/49
f 74/117/50 70/122/50 65/118/50
f 71/113/42 76/124/42 77/119/42
f 77/119/41 78/120/41 73/116/41
f 78/120/40 79/121/40 74/117/40
f 79/121/39 75/128/39 70/122/39
f 81/123/46 82/125/46 77/119/46
f 82/125/45 83/126/45 78/120/45
f 83/126/44 84/127/44 79/121/44
f 84/127/43 80/129/43 75/128/43
f 81/123/50 56/102/50 57/101/50
f 82/125/49 57/101/49 58/104/49
f 58/104/48 59/106/48 84/127/48
f 59/106/47 55/108/47 80/129/47
f 134/130/12 138/137/12 139/131/12
f 136/133/18 140/69/18 137/68/18
f 40/135/51 135/132/51 139/131/51
f 70/136/52 139/131/52 138/137/52
f 35/139/53 65/138/53 138/137/53
f 50/140/54 80/67/54 140/69/54
f 35/139/55 134/130/55 135/132/55
f 50/140/56 136/133/56 133/134/56
f 144/141/57 149/146/57 147/94/57
f 143/143/58 142/155/58 151/144/58
f 146/89/57 150/151/57 149/146/57
f 141/86/58 152/81/58 151/147/58
f 35/139/59 143/143/59 148/145/59
f 60/149/70 65/138/70 148/145/70
f 75/93/38 149/95/38 150/151/38
f 40/135/62 70/136/62 150/151/62
f 30/152/36 142/156/36 143/143/36
f 55/71/64 152/81/64 141/86/64
f 45/88/37 144/90/37 145/142/37
f 50/140/66 145/142/66 147/94/66
f 86/157/12 87/158/12 85/159/12
f 88/160/8 91/161/8 87/158/8
f 92/162/18 89/163/18 91/161/18
f 90/164/5 85/165/5 89/163/5
f 91/161/71 85/166/71 87/167/71
f 88/168/72 90/164/72 92/162/72
f 94/169/10 95/170/10 93/171/10
f 96/172/8 99/173/8 95/170/8
f 100/174/16 97/175/16 99/173/16
f 98/176/5 93/177/5 97/175/5
f 99/173/73 93/178/73 95/179/73
f 96/180/74 98/176/74 100/174/74
f 102/181/20 103/182/20 101/183/20
f 103/182/8 108/184/8 107/185/8
f 108/184/14 105/186/14 107/185/14
f 106/187/5 101/188/5 105/186/5
f 107/185/75 101/189/75 103/190/75
f 108/184/76 102/191/76 106/187/76
f 109/192/18 112/193/18 111/194/18
f 112/193/8 115/195/8 111/194/8
f 116/196/12 113/197/12 115/195/12
f 114/198/5 109/199/5 113/197/5
f 115/195/77 109/200/77 111/201/77
f 112/202/78 114/198/78 116/196/78
f 118/203/16 119/204/16 117/205/16
f 119/204/8 124/206/8 123/207/8
f 123/207/10 122/208/10 121/209/10
f 121/209/5 118/210/5 117/211/5
f 123/207/79 117/212/79 119/213/79
f 120/214/80 122/208/80 124/206/80
f 126/215/14 127/216/14 125/217/14
f 128/218/8 131/219/8 127/216/8
f 132/220/20 129/221/20 131/219/20
f 130/222/5 125/223/5 129/221/5
f 131/219/81 125/224/81 127/225/81
f 128/226/82 130/222/82 132/220/82
f 86/157/12 88/160/12 87/158/12
f 88/160/8 92/162/8 91/161/8
f 92/162/18 90/164/18 89/163/18
f 90/164/5 86/227/5 85/165/5
f 91/161/71 89/163/71 85/166/71
f 88/168/72 86/228/72 90/164/72
f 94/169/10 96/172/10 95/170/10
f 96/172/8 100/174/8 99/173/8
f 100/174/16 98/176/16 97/175/16
f 98/176/5 94/229/5 93/177/5
f 99/173/73 97/175/73 93/178/73
f 96/180/74 94/230/74 98/176/74
f 102/181/20 104/231/20 103/182/20
f 103/182/8 104/231/8 108/184/8
f 108/184/14 106/187/14 105/186/14
f 106/187/5 102/232/5 101/188/5
f 107/185/75 105/186/75 101/189/75
f 108/184/76 104/233/76 102/191/76
f 109/192/18 110/234/18 112/193/18
f 112/193/8 116/196/8 115/195/8
f 116/196/12 114/198/12 113/197/12
f 114/198/5 110/235/5 109/199/5
f 115/195/77 113/197/77 109/200/77
f 112/202/78 110/236/78 114/198/78
f 118/203/16 120/237/16 119/204/16
f 119/204/8 120/237/8 124/206/8
f 123/207/10 124/206/10 122/208/10
f 121/209/5 122/208/5 118/210/5
f 123/207/79 121/209/79 117/212/79
f 120/214/80 118/238/80 122/208/80
f 126/215/14 128/218/14 127/216/14
f 128/218/8 132/220/8 131/219/8
f 132/220/20 130/222/20 129/221/20
f 130/222/5 126/239/5 125/223/5
f 131/219/81 129/221/81 125/224/81
f 128/226/82 126/240/82 130/222/82
