# Blender v2.93.3 OBJ File: 'station_core.blend'
# www.blender.org
o Cylinder
v 1.200000 0.000000 0.288000
v -1.200000 0.000000 0.288000
v 1.200000 -0.249415 0.144000
v -1.200000 -0.249415 0.144000
v 1.200000 -0.249415 -0.144000
v -1.200000 -0.249415 -0.144000
v 1.200000 0.000000 -0.288000
v -1.200000 0.000000 -0.288000
v 1.200000 0.249415 -0.144000
v -1.200000 0.249415 -0.144000
v 1.200000 0.249415 0.144000
v -1.200000 0.249415 0.144000
v 0.880000 0.000000 0.345600
v -0.880000 0.000000 0.345600
v -0.880000 -0.299298 0.172800
v 0.880000 -0.299298 0.172800
v -0.880000 -0.299298 -0.172800
v 0.880000 -0.299298 -0.172800
v -0.880000 0.000000 -0.345600
v 0.880000 0.000000 -0.345600
v -0.880000 0.299298 -0.172800
v 0.880000 0.299298 -0.172800
v -0.880000 0.299298 0.172800
v 0.880000 0.299298 0.172800
v -0.420000 -1.012017 0.584289
v -0.642468 -0.952735 0.550062
v -0.734617 -0.809614 0.467431
v -0.642468 -0.666493 0.384800
v -0.420000 -0.607210 0.350573
v -0.420000 0.000000 1.168577
v -0.642468 0.000000 1.100123
v -0.734617 0.000000 0.934861
v -0.642468 0.000000 0.769600
v -0.420000 0.000000 0.701146
v -0.420000 1.012017 0.584289
v -0.642468 0.952734 0.550062
v -0.734617 0.809614 0.467431
v -0.642468 0.666493 0.384800
v -0.420000 0.607210 0.350573
v -0.420000 1.012017 -0.584288
v -0.642468 0.952735 -0.550061
v -0.734617 0.809614 -0.467431
v -0.642468 0.666493 -0.384800
v -0.420000 0.607210 -0.350573
v -0.420000 -0.000000 -1.168577
v -0.642468 -0.000000 -1.100123
v -0.734617 -0.000000 -0.934861
v -0.642468 -0.000000 -0.769600
v -0.420000 -0.000000 -0.701146
v -0.420000 -1.012017 -0.584288
v -0.642468 -0.952734 -0.550062
v -0.734617 -0.809614 -0.467431
v -0.642468 -0.666493 -0.384800
v -0.420000 -0.607210 -0.350573
v 0.420000 -1.012017 0.584289
v 0.420000 -0.607210 0.350573
v 0.642468 -0.666493 0.384800
v 0.734617 -0.809614 0.467431
v 0.642467 -0.952735 0.550062
v 0.420000 -0.000000 1.168577
v 0.420000 0.000000 0.701146
v 0.642468 0.000000 0.769600
v 0.734617 -0.000000 0.934862
v 0.642467 0.000000 1.100123
v 0.420000 1.012017 0.584289
v 0.420000 0.607210 0.350573
v 0.642468 0.666493 0.384800
v 0.734617 0.809614 0.467431
v 0.642468 0.952734 0.550062
v 0.420000 1.012017 -0.584288
v 0.420000 0.607210 -0.350573
v 0.642468 0.666493 -0.384800
v 0.734617 0.809614 -0.467431
v 0.642468 0.952735 -0.550061
v 0.420000 -0.000000 -1.168577
v 0.420000 -0.000000 -0.701146
v 0.642468 -0.000000 -0.769600
v 0.734617 -0.000000 -0.934861
v 0.642468 -0.000000 -1.100123
v 0.420000 -1.012017 -0.584288
v 0.420000 -0.607210 -0.350573
v 0.642468 -0.666493 -0.384800
v 0.734617 -0.809614 -0.467431
v 0.642468 -0.952734 -0.550062
v -0.358400 0.640000 -0.160000
v -0.358400 0.640000 0.160000
v 0.358400 0.640000 -0.160000
v 0.358400 0.640000 0.160000
v -0.358400 0.240000 -0.120000
v -0.358400 0.240000 0.120000
v 0.358400 0.240000 -0.120000
v 0.358400 0.240000 0.120000
v -0.358400 0.458564 0.474256
v -0.358400 0.181436 0.634256
v 0.358400 0.458564 0.474256
v 0.358400 0.181436 0.634256
v -0.358400 0.223923 0.147846
v -0.358400 0.016077 0.267846
v 0.358400 0.223923 0.147846
v 0.358400 0.016077 0.267846
v -0.358400 -0.181436 0.634256
v -0.358400 -0.458564 0.474256
v 0.358400 -0.181436 0.634256
v 0.358400 -0.458564 0.474256
v -0.358400 -0.016077 0.267846
v -0.358400 -0.223923 0.147846
v 0.358400 -0.016077 0.267846
v 0.358400 -0.223923 0.147846
v -0.358400 -0.640000 0.160000
v -0.358400 -0.640000 -0.160000
v 0.358400 -0.640000 0.160000
v 0.358400 -0.640000 -0.160000
v -0.358400 -0.240000 0.120000
v -0.358400 -0.240000 -0.120000
v 0.358400 -0.240000 0.120000
v 0.358400 -0.240000 -0.120000
v -0.358400 -0.458564 -0.474256
v -0.358400 -0.181436 -0.634256
v 0.358400 -0.458564 -0.474256
v 0.358400 -0.181436 -0.634256
v -0.358400 -0.223923 -0.147846
v -0.358400 -0.016077 -0.267846
v 0.358400 -0.223923 -0.147846
v 0.358400 -0.016077 -0.267846
v -0.358400 0.181436 -0.634256
v -0.358400 0.458564 -0.474256
v 0.358400 0.181436 -0.634256
v 0.358400 0.458564 -0.474256
v -0.358400 0.016077 -0.267846
v -0.358400 0.223923 -0.147846
v 0.358400 0.016077 -0.267846
v 0.358400 0.223923 -0.147846
vt 1.000000 1.000000
vt 0.916667 0.916667
vt 1.000000 0.916667
vt 0.916667 1.000000
vt 0.833333 0.916667
vt 0.833333 1.000000
vt 0.750000 0.916667
vt 0.666667 1.000000
vt 0.666667 0.916667
vt 0.521077 0.565000
vt 0.625000 0.505000
vt 0.728923 0.565000
vt 0.583333 0.916667
vt 0.583333 1.000000
vt 0.500000 0.916667
vt 0.875000 0.505000
vt 0.771077 0.565000
vt 0.771077 0.685000
vt 0.583333 0.750000
vt 0.500000 0.833333
vt 0.500000 0.750000
vt 0.583333 0.833333
vt 0.666667 0.833333
vt 0.666667 0.750000
vt 0.750000 0.833333
vt 0.750000 0.750000
vt 0.833333 0.750000
vt 0.833333 0.833333
vt 0.916667 0.833333
vt 0.916667 0.750000
vt 1.000000 0.833333
vt 1.000000 0.750000
vt 0.750000 1.000000
vt 0.728923 0.685000
vt 0.625000 0.745000
vt 0.521077 0.685000
vt 0.500000 1.000000
vt 0.875000 0.745000
vt 0.978923 0.685000
vt 0.978923 0.565000
vt 0.370073 0.553053
vt 0.279313 0.525461
vt 0.278163 0.500000
vt 0.335315 0.574356
vt 0.279019 0.540752
vt 0.278641 0.554265
vt 0.323524 0.580849
vt 0.279493 0.571930
vt 0.370073 0.659106
vt 0.348642 0.566896
vt 0.347402 0.647254
vt 0.334349 0.639306
vt 0.322957 0.632238
vt 0.308891 0.590529
vt 0.277265 0.710771
vt 0.276137 0.685400
vt 0.276440 0.670130
vt 0.276842 0.656573
vt 0.307624 0.624257
vt 0.185179 0.658476
vt 0.206637 0.644591
vt 0.219958 0.637118
vt 0.231688 0.630631
vt 0.276100 0.638675
vt 0.000142 0.855385
vt 0.125422 0.903543
vt 0.000142 0.903543
vt 0.370215 0.660525
vt 0.498652 0.580262
vt 0.498652 0.660525
vt 0.370215 0.821050
vt 0.498651 0.901312
vt 0.370215 0.901312
vt 0.000142 0.759071
vt 0.125422 0.807228
vt 0.000142 0.807228
vt 0.185781 0.552346
vt 0.208400 0.564165
vt 0.221450 0.572109
vt 0.232880 0.579218
vt 0.246089 0.620996
vt 0.498651 0.740787
vt 0.498651 0.821050
vt 0.000142 0.951700
vt 0.125422 0.999858
vt 0.000142 0.999858
vt 0.370215 0.500000
vt 0.370215 0.580262
vt 0.370215 0.740787
vt 0.248356 0.587382
vt 0.498652 0.981574
vt 0.370215 0.981574
vt 0.125422 0.710913
vt 0.125422 0.759071
vt 0.125422 0.951700
vt 0.125422 0.855385
vt 0.094457 0.571930
vt 0.138487 0.580849
vt 0.123855 0.590529
vt 0.093983 0.540752
vt 0.150279 0.574356
vt 0.163606 0.566896
vt 0.094276 0.525461
vt 0.185036 0.553053
vt 0.063319 0.587382
vt 0.093605 0.554265
vt 0.047844 0.579218
vt 0.036414 0.572109
vt 0.023363 0.564165
vt 0.093127 0.500000
vt 0.061053 0.620996
vt 0.046651 0.630631
vt 0.034921 0.637118
vt 0.021600 0.644591
vt 0.000745 0.552347
vt 0.091064 0.638675
vt 0.091806 0.656573
vt 0.091101 0.685400
vt 0.092228 0.710771
vt 0.000142 0.658476
vt 0.137920 0.632238
vt 0.149313 0.639306
vt 0.091404 0.670130
vt 0.185036 0.659106
vt 0.122588 0.624257
vt 0.162366 0.647254
vt 0.498652 0.500000
vt 0.000142 0.710913
vt 0.312500 0.000000
vt 0.187500 0.125000
vt 0.187500 0.000000
vt 0.312500 0.125000
vt 0.187500 0.250000
vt 0.312500 0.250000
vt 0.187500 0.375000
vt 0.312500 0.375000
vt 0.187500 0.500000
vt 0.062500 0.375000
vt 0.062500 0.250000
vt 0.437500 0.250000
vt 0.312500 0.000000
vt 0.187500 0.125000
vt 0.187500 0.000000
vt 0.312500 0.125000
vt 0.187500 0.250000
vt 0.312500 0.250000
vt 0.187500 0.375000
vt 0.312500 0.375000
vt 0.187500 0.500000
vt 0.062500 0.375000
vt 0.062500 0.250000
vt 0.437500 0.250000
vt 0.312500 0.000000
vt 0.187500 0.125000
vt 0.187500 0.000000
vt 0.312500 0.250000
vt 0.187500 0.250000
vt 0.187500 0.375000
vt 0.312500 0.375000
vt 0.187500 0.500000
vt 0.062500 0.375000
vt 0.062500 0.250000
vt 0.437500 0.375000
vt 0.187500 0.000000
vt 0.312500 0.125000
vt 0.187500 0.125000
vt 0.187500 0.250000
vt 0.312500 0.250000
vt 0.187500 0.375000
vt 0.312500 0.375000
vt 0.187500 0.500000
vt 0.062500 0.375000
vt 0.062500 0.250000
vt 0.437500 0.250000
vt 0.312500 0.000000
vt 0.187500 0.125000
vt 0.187500 0.000000
vt 0.312500 0.250000
vt 0.187500 0.250000
vt 0.312500 0.375000
vt 0.187500 0.375000
vt 0.312500 0.500000
vt 0.187500 0.500000
vt 0.062500 0.375000
vt 0.062500 0.250000
vt 0.437500 0.250000
vt 0.312500 0.000000
vt 0.187500 0.125000
vt 0.187500 0.000000
vt 0.312500 0.125000
vt 0.187500 0.250000
vt 0.312500 0.250000
vt 0.187500 0.375000
vt 0.312500 0.375000
vt 0.187500 0.500000
vt 0.062500 0.375000
vt 0.062500 0.250000
vt 0.437500 0.250000
vt 0.312500 0.500000
vt 0.437500 0.375000
vt 0.312500 0.500000
vt 0.437500 0.375000
vt 0.312500 0.125000
vt 0.312500 0.500000
vt 0.437500 0.250000
vt 0.312500 0.000000
vt 0.312500 0.500000
vt 0.437500 0.375000
vt 0.312500 0.125000
vt 0.437500 0.375000
vt 0.312500 0.500000
vt 0.437500 0.375000
vn -0.1540 -0.4940 0.8557
vn -0.1540 -0.9881 -0.0000
vn -0.1540 -0.4940 -0.8557
vn -0.1540 0.4940 -0.8557
vn -1.0000 0.0000 0.0000
vn -0.1540 0.9881 0.0000
vn -0.1540 0.4940 0.8557
vn 1.0000 0.0000 0.0000
vn 0.1540 0.4940 0.8557
vn 0.0000 0.5000 0.8660
vn 0.1540 0.9881 0.0000
vn 0.0000 1.0000 0.0000
vn 0.1540 0.4940 -0.8557
vn 0.0000 0.5000 -0.8660
vn 0.1540 -0.4940 -0.8557
vn 0.0000 -0.5000 -0.8660
vn 0.1540 -0.9881 -0.0000
vn -0.0000 -1.0000 -0.0000
vn 0.1540 -0.4940 0.8557
vn 0.0000 -0.5000 0.8660
vn -0.2575 -0.4831 0.8368
vn -0.8408 -0.2707 0.4688
vn -0.8408 0.2707 -0.4688
vn -0.2575 0.4831 -0.8368
vn -0.2575 0.4831 0.8368
vn -0.8408 0.2707 0.4688
vn -0.8408 -0.2707 -0.4688
vn -0.2575 -0.4831 -0.8368
vn -0.2575 0.9663 0.0000
vn -0.8408 0.5414 0.0000
vn -0.8408 -0.5414 -0.0000
vn -0.2575 -0.9663 -0.0000
vn 0.2575 0.4831 -0.8368
vn 0.8408 0.2707 -0.4688
vn 0.8408 -0.2707 0.4688
vn 0.2575 -0.4831 0.8368
vn 0.2575 -0.4831 -0.8368
vn 0.8408 -0.2707 -0.4688
vn 0.8408 0.2707 0.4688
vn 0.2575 0.4831 0.8368
vn 0.2575 -0.9663 -0.0000
vn 0.8408 -0.5414 0.0000
vn 0.8408 0.5414 0.0000
vn 0.2575 0.9663 0.0000
vn 0.0000 -0.0995 -0.9950
vn 0.0000 -0.0995 0.9950
vn -0.0000 0.8120 -0.5837
vn 0.0000 -0.9115 0.4113
vn -0.0000 0.9115 0.4113
vn 0.0000 -0.8120 -0.5837
vn -0.0000 0.0995 0.9950
vn 0.0000 0.0995 -0.9950
vn -0.0000 -0.8120 0.5837
vn 0.0000 0.9115 -0.4113
vn 0.0000 -0.9115 -0.4113
vn 0.0000 0.8120 0.5837
s off
f 2/1/1 15/2/1 14/3/1
f 4/4/2 17/5/2 15/2/2
f 6/6/3 19/7/3 17/5/3
f 19/7/4 10/8/4 21/9/4
f 10/10/5 8/11/5 6/12/5
f 10/8/6 23/13/6 21/9/6
f 12/14/7 14/15/7 23/13/7
f 7/16/8 9/17/8 11/18/8
f 11/19/9 13/20/9 1/21/9
f 24/22/10 14/15/10 13/20/10
f 22/23/11 11/19/11 9/24/11
f 22/23/12 23/13/12 24/22/12
f 20/25/13 9/24/13 7/26/13
f 20/25/14 21/9/14 22/23/14
f 5/27/15 20/25/15 7/26/15
f 17/5/16 20/25/16 18/28/16
f 16/29/17 5/27/17 3/30/17
f 15/2/18 18/28/18 16/29/18
f 13/31/19 3/30/19 1/32/19
f 14/3/20 16/29/20 13/31/20
f 2/1/1 4/4/1 15/2/1
f 4/4/2 6/6/2 17/5/2
f 6/6/3 8/33/3 19/7/3
f 19/7/4 8/33/4 10/8/4
f 6/12/5 4/34/5 2/35/5
f 2/35/5 12/36/5 6/12/5
f 12/36/5 10/10/5 6/12/5
f 10/8/6 12/14/6 23/13/6
f 12/14/7 2/37/7 14/15/7
f 11/18/8 1/38/8 3/39/8
f 3/39/8 5/40/8 11/18/8
f 5/40/8 7/16/8 11/18/8
f 11/19/9 24/22/9 13/20/9
f 24/22/10 23/13/10 14/15/10
f 22/23/11 24/22/11 11/19/11
f 22/23/12 21/9/12 23/13/12
f 20/25/13 22/23/13 9/24/13
f 20/25/14 19/7/14 21/9/14
f 5/27/15 18/28/15 20/25/15
f 17/5/16 19/7/16 20/25/16
f 16/29/17 18/28/17 5/27/17
f 15/2/18 17/5/18 18/28/18
f 13/31/19 16/29/19 3/30/19
f 14/3/20 15/2/20 16/29/20
f 30/41/21 26/42/21 25/43/21
f 26/42/22 32/44/22 27/45/22
f 32/44/23 28/46/23 27/45/23
f 33/47/24 29/48/24 28/46/24
f 35/49/25 31/50/25 30/41/25
f 36/51/26 32/44/26 31/50/26
f 37/52/27 33/47/27 32/44/27
f 38/53/28 34/54/28 33/47/28
f 40/55/29 36/51/29 35/49/29
f 41/56/30 37/52/30 36/51/30
f 42/57/31 38/53/31 37/52/31
f 43/58/32 39/59/32 38/53/32
f 45/60/24 41/56/24 40/55/24
f 46/61/23 42/57/23 41/56/23
f 47/62/22 43/58/22 42/57/22
f 48/63/21 44/64/21 43/58/21
f 49/65/20 71/66/20 44/67/20
f 40/68/12 65/69/12 70/70/12
f 50/71/18 55/72/18 25/73/18
f 29/74/12 81/75/12 54/76/12
f 50/77/28 46/61/28 45/60/28
f 51/78/27 47/62/27 46/61/27
f 52/79/26 48/63/26 47/62/26
f 53/80/25 49/81/25 48/63/25
f 50/71/16 75/82/16 80/83/16
f 39/84/16 61/85/16 34/86/16
f 30/87/10 65/69/10 35/88/10
f 40/68/14 75/82/14 45/89/14
f 25/43/32 51/78/32 50/77/32
f 26/42/31 52/79/31 51/78/31
f 27/45/30 53/80/30 52/79/30
f 28/46/29 54/90/29 53/80/29
f 25/73/20 60/91/20 30/92/20
f 29/74/14 61/93/14 56/94/14
f 39/84/18 71/66/18 66/95/18
f 54/76/10 76/96/10 49/65/10
f 61/97/33 57/98/33 56/99/33
f 57/98/34 63/100/34 58/101/34
f 63/100/35 59/102/35 58/101/35
f 64/103/36 55/104/36 59/102/36
f 66/105/37 62/106/37 61/97/37
f 67/107/38 63/100/38 62/106/38
f 68/108/39 64/103/39 63/100/39
f 69/109/40 60/110/40 64/103/40
f 71/111/41 67/107/41 66/105/41
f 72/112/42 68/108/42 67/107/42
f 73/113/43 69/109/43 68/108/43
f 74/114/44 65/115/44 69/109/44
f 76/116/36 72/112/36 71/111/36
f 77/117/35 73/113/35 72/112/35
f 73/113/34 79/118/34 74/114/34
f 74/114/33 75/119/33 70/120/33
f 76/116/40 82/121/40 77/117/40
f 77/117/39 83/122/39 78/123/39
f 83/122/38 79/118/38 78/123/38
f 79/118/37 80/124/37 75/119/37
f 56/99/44 82/121/44 81/125/44
f 57/98/43 83/122/43 82/121/43
f 58/101/42 84/126/42 83/122/42
f 59/102/41 80/124/41 84/126/41
f 30/41/21 31/50/21 26/42/21
f 26/42/22 31/50/22 32/44/22
f 32/44/23 33/47/23 28/46/23
f 33/47/24 34/54/24 29/48/24
f 35/49/25 36/51/25 31/50/25
f 36/51/26 37/52/26 32/44/26
f 37/52/27 38/53/27 33/47/27
f 38/53/28 39/59/28 34/54/28
f 40/55/29 41/56/29 36/51/29
f 41/56/30 42/57/30 37/52/30
f 42/57/31 43/58/31 38/53/31
f 43/58/32 44/64/32 39/59/32
f 45/60/24 46/61/24 41/56/24
f 46/61/23 47/62/23 42/57/23
f 47/62/22 48/63/22 43/58/22
f 48/63/21 49/81/21 44/64/21
f 49/65/20 76/96/20 71/66/20
f 40/68/12 35/88/12 65/69/12
f 50/71/18 80/83/18 55/72/18
f 29/74/12 56/94/12 81/75/12
f 50/77/28 51/78/28 46/61/28
f 51/78/27 52/79/27 47/62/27
f 52/79/26 53/80/26 48/63/26
f 53/80/25 54/90/25 49/81/25
f 50/71/16 45/89/16 75/82/16
f 39/84/16 66/95/16 61/85/16
f 30/87/10 60/127/10 65/69/10
f 40/68/14 70/70/14 75/82/14
f 25/43/32 26/42/32 51/78/32
f 26/42/31 27/45/31 52/79/31
f 27/45/30 28/46/30 53/80/30
f 28/46/29 29/48/29 54/90/29
f 25/73/20 55/72/20 60/91/20
f 29/74/14 34/128/14 61/93/14
f 39/84/18 44/67/18 71/66/18
f 54/76/10 81/75/10 76/96/10
f 61/97/33 62/106/33 57/98/33
f 57/98/34 62/106/34 63/100/34
f 63/100/35 64/103/35 59/102/35
f 64/103/36 60/110/36 55/104/36
f 66/105/37 67/107/37 62/106/37
f 67/107/38 68/108/38 63/100/38
f 68/108/39 69/109/39 64/103/39
f 69/109/40 65/115/40 60/110/40
f 71/111/41 72/112/41 67/107/41
f 72/112/42 73/113/42 68/108/42
f 73/113/43 74/114/43 69/109/43
f 74/114/44 70/120/44 65/115/44
f 76/116/36 77/117/36 72/112/36
f 77/117/35 78/123/35 73/113/35
f 73/113/34 78/123/34 79/118/34
f 74/114/33 79/118/33 75/119/33
f 76/116/40 81/125/40 82/121/40
f 77/117/39 82/121/39 83/122/39
f 83/122/38 84/126/38 79/118/38
f 79/118/37 84/126/37 80/124/37
f 56/99/44 57/98/44 82/121/44
f 57/98/43 58/101/43 83/122/43
f 58/101/42 59/102/42 84/126/42
f 59/102/41 55/104/41 80/124/41
f 86/129/12 87/130/12 85/131/12
f 88/132/8 91/133/8 87/130/8
f 92/134/18 89/135/18 91/133/18
f 90/136/5 85/137/5 89/135/5
f 91/133/45 85/138/45 87/139/45
f 88/140/46 90/136/46 92/134/46
f 94/141/10 95/142/10 93/143/10
f 96/144/8 99/145/8 95/142/8
f 100/146/16 97/147/16 99/145/16
f 98/148/5 93/149/5 97/147/5
f 99/145/47 93/150/47 95/151/47
f 96/152/48 98/148/48 100/146/48
f 102/153/20 103/154/20 101/155/20
f 103/154/8 108/156/8 107/157/8
f 108/156/14 105/158/14 107/157/14
f 106/159/5 101/160/5 105/158/5
f 107/157/49 101/161/49 103/162/49
f 108/156/50 102/163/50 106/159/50
f 109/164/18 112/165/18 111/166/18
f 112/165/8 115/167/8 111/166/8
f 116/168/12 113/169/12 115/167/12
f 114/170/5 109/171/5 113/169/5
f 115/167/51 109/172/51 111/173/51
f 112/174/52 114/170/52 116/168/52
f 118/175/16 119/176/16 117/177/16
f 119/176/8 124/178/8 123/179/8
f 123/179/10 122/180/10 121/181/10
f 121/181/5 118/182/5 117/183/5
f 123/179/53 117/184/53 119/185/53
f 120/186/54 122/180/54 124/178/54
f 126/187/14 127/188/14 125/189/14
f 128/190/8 131/191/8 127/188/8
f 132/192/20 129/193/20 131/191/20
f 130/194/5 125/195/5 129/193/5
f 131/191/55 125/196/55 127/197/55
f 128/198/56 130/194/56 132/192/56
f 86/129/12 88/132/12 87/130/12
f 88/132/8 92/134/8 91/133/8
f 92/134/18 90/136/18 89/135/18
f 90/136/5 86/199/5 85/137/5
f 91/133/45 89/135/45 85/138/45
f 88/140/46 86/200/46 90/136/46
f 94/141/10 96/144/10 95/142/10
f 96/144/8 100/146/8 99/145/8
f 100/146/16 98/148/16 97/147/16
f 98/148/5 94/201/5 93/149/5
f 99/145/47 97/147/47 93/150/47
f 96/152/48 94/202/48 98/148/48
f 102/153/20 104/203/20 103/154/20
f 103/154/8 104/203/8 108/156/8
f 108/156/14 106/159/14 105/158/14
f 106/159/5 102/204/5 101/160/5
f 107/157/49 105/158/49 101/161/49
f 108/156/50 104/205/50 102/163/50
f 109/164/18 110/206/18 112/165/18
f 112/165/8 116/168/8 115/167/8
f 116/168/12 114/170/12 113/169/12
f 114/170/5 110/207/5 109/171/5
f 115/167/51 113/169/51 109/172/51
f 112/174/52 110/208/52 114/170/52
f 118/175/16 120/209/16 119/176/16
f 119/176/8 120/209/8 124/178/8
f 123/179/10 124/178/10 122/180/10
f 121/181/5 122/180/5 118/182/5
f 123/179/53 121/181/53 117/184/53
f 120/186/54 118/210/54 122/180/54
f 126/187/14 128/190/14 127/188/14
f 128/190/8 132/192/8 131/191/8
f 132/192/20 130/194/20 129/193/20
f 130/194/5 126/211/5 125/195/5
f 131/191/55 129/193/55 125/196/55
f 128/198/56 126/212/56 130/194/56
