{
    "asset" : {
        "generator" : "Khronos glTF Blender I/O v1.7.33",
        "version" : "2.0"
    },
    "scene" : 0,
    "scenes" : [
        {
            "name" : "Scene",
            "nodes" : [
                0
            ]
        }
    ],
    "nodes" : [
        {
            "mesh" : 0,
            "name" : "hilt",
            "translation" : [
                -0.024104489013552666,
                -0.05928836017847061,
                -0.12438292056322098
            ]
        }
    ],
    "meshes" : [
        {
            "name" : "Plane",
            "primitives" : [
                {
                    "attributes" : {
                        "POSITION" : 0,
                        "NORMAL" : 1,
                        "TEXCOORD_0" : 2
                    },
                    "indices" : 3
                }
            ]
        }
    ],
    "accessors" : [
        {
            "bufferView" : 0,
            "componentType" : 5126,
            "count" : 3951,
            "max" : [
                1.7470734119415283,
                0.5657534599304199,
                2.2908148765563965
            ],
            "min" : [
                -1.7470734119415283,
                -0.7282838225364685,
                -12.465400695800781
            ],
            "type" : "VEC3"
        },
        {
            "bufferView" : 1,
            "componentType" : 5126,
            "count" : 3951,
            "type" : "VEC3"
        },
        {
            "bufferView" : 2,
            "componentType" : 5126,
            "count" : 3951,
            "type" : "VEC2"
        },
        {
            "bufferView" : 3,
            "componentType" : 5123,
            "count" : 16932,
            "type" : "SCALAR"
        }
    ],
    "bufferViews" : [
        {
            "buffer" : 0,
            "byteLength" : 47412,
            "byteOffset" : 0
        },
        {
            "buffer" : 0,
            "byteLength" : 47412,
            "byteOffset" : 47412
        },
        {
            "buffer" : 0,
            "byteLength" : 31608,
            "byteOffset" : 94824
        },
        {
            "buffer" : 0,
            "byteLength" : 33864,
            "byteOffset" : 126432
        }
    ],
    "buffers" : [
        {
            "byteLength" : 160296,
            "uri" : "data:application/octet-stream;base64,"
        }
    ]
}
