# Blender v2.93.3 OBJ File: 'station_core.blend'
# www.blender.org
o Cylinder_Cylinder.001
v -1.000000 0.000000 -1.000000
v -1.000000 0.000000 1.000000
v -0.866025 0.500000 -1.000000
v -0.866025 0.500000 1.000000
v -0.500000 0.866025 -1.000000
v -0.500000 0.866025 1.000000
v 0.000000 1.000000 -1.000000
v 0.000000 1.000000 1.000000
v 0.500000 0.866025 -1.000000
v 0.500000 0.866025 1.000000
v 0.866025 0.500000 -1.000000
v 0.866025 0.500000 1.000000
v 1.000000 -0.000000 -1.000000
v 1.000000 -0.000000 1.000000
v 0.866025 -0.500000 -1.000000
v 0.866025 -0.500000 1.000000
v 0.500000 -0.866025 -1.000000
v 0.500000 -0.866025 1.000000
v -0.000000 -1.000000 -1.000000
v -0.000000 -1.000000 1.000000
v -0.500000 -0.866025 -1.000000
v -0.500000 -0.866025 1.000000
v -0.866025 -0.500000 -1.000000
v -0.866025 -0.500000 1.000000
v -0.700000 0.000000 1.300000
v -0.606218 0.350000 1.300000
v -0.350000 0.606218 1.300000
v 0.000000 0.700000 1.300000
v 0.350000 0.606218 1.300000
v 0.606218 0.350000 1.300000
v 0.700000 -0.000000 1.300000
v 0.606218 -0.350000 1.300000
v 0.350000 -0.606218 1.300000
v -0.000000 -0.700000 1.300000
v -0.350000 -0.606218 1.300000
v -0.606218 -0.350000 1.300000
v -0.700000 -0.000000 -1.300000
v -0.606218 0.350000 -1.300000
v -0.350000 0.606218 -1.300000
v 0.000000 0.700000 -1.300000
v 0.350000 0.606218 -1.300000
v 0.606218 0.350000 -1.300000
v 0.700000 -0.000000 -1.300000
v 0.606218 -0.350000 -1.300000
v 0.350000 -0.606218 -1.300000
v -0.000000 -0.700000 -1.300000
v -0.350000 -0.606218 -1.300000
v -0.606218 -0.350000 -1.300000
vt 1.000000 1.000000
vt 0.916667 0.500000
vt 1.000000 0.500000
vt 0.916667 1.000000
vt 0.833333 0.500000
vt 0.833333 1.000000
vt 0.750000 0.500000
vt 0.750000 1.000000
vt 0.666667 0.500000
vt 0.666667 1.000000
vt 0.583333 0.500000
vt 0.583333 1.000000
vt 0.500000 0.500000
vt 0.500000 1.000000
vt 0.416667 0.500000
vt 0.416667 1.000000
vt 0.333333 0.500000
vt 0.333333 1.000000
vt 0.250000 0.500000
vt 0.250000 1.000000
vt 0.166667 0.500000
vt 0.833333 1.000000
vt 0.750000 1.000000
vt 0.166667 1.000000
vt 0.083333 0.500000
vt 0.083333 1.000000
vt 0.000000 0.500000
vt 0.333333 0.500000
vt 0.042154 0.370000
vt 0.250000 0.010000
vt 0.457846 0.370000
vt 0.083333 1.000000
vt 0.166667 1.000000
vt 0.250000 1.000000
vt 0.416667 1.000000
vt 0.333333 1.000000
vt 0.500000 1.000000
vt 0.583333 1.000000
vt 0.666667 1.000000
vt 0.000000 1.000000
vt 0.000000 1.000000
vt 0.916667 1.000000
vt 0.630000 0.042154
vt 0.510000 0.250000
vt 0.630000 0.457846
vt 0.416667 0.500000
vt 0.500000 0.500000
vt 0.583333 0.500000
vt 0.666667 0.500000
vt 0.750000 0.500000
vt 0.083333 0.500000
vt 1.000000 0.500000
vt 0.833333 0.500000
vt 0.166667 0.500000
vt 0.916667 0.500000
vt 0.250000 0.500000
vt 0.370000 0.457846
vt 0.250000 0.490000
vt 0.130000 0.457846
vt 0.010000 0.250000
vt 0.042154 0.130000
vt 0.130000 0.042154
vt 0.370000 0.042154
vt 0.457846 0.130000
vt 0.490000 0.250000
vt 1.000000 1.000000
vt 0.750000 0.490000
vt 0.870000 0.457846
vt 0.957846 0.370000
vt 0.990000 0.250000
vt 0.957846 0.130000
vt 0.870000 0.042154
vt 0.750000 0.010000
vt 0.542154 0.130000
vt 0.542154 0.370000
vt 0.000000 0.500000
vn -0.9659 0.2588 0.0000
vn -0.7071 0.7071 0.0000
vn -0.2588 0.9659 0.0000
vn 0.2588 0.9659 0.0000
vn 0.7071 0.7071 0.0000
vn 0.9659 0.2588 0.0000
vn 0.9659 -0.2588 0.0000
vn 0.7071 -0.7071 0.0000
vn 0.2588 -0.9659 0.0000
vn -0.2588 -0.9659 0.0000
vn -0.1862 0.6947 0.6947
vn -0.7071 -0.7071 0.0000
vn -0.9659 -0.2588 0.0000
vn 0.1862 -0.6947 -0.6947
vn 0.0000 0.0000 1.0000
vn -0.5086 -0.5086 0.6947
vn -0.5086 0.5086 0.6947
vn -0.1862 -0.6947 0.6947
vn 0.1862 -0.6947 0.6947
vn 0.5086 -0.5086 0.6947
vn 0.6947 -0.1862 0.6947
vn 0.6947 0.1862 0.6947
vn 0.5086 0.5086 0.6947
vn 0.1862 0.6947 0.6947
vn -0.6947 -0.1862 0.6947
vn -0.6947 0.1862 0.6947
vn -0.0000 0.0000 -1.0000
vn 0.5086 -0.5086 -0.6947
vn 0.6947 -0.1862 -0.6947
vn 0.6947 0.1862 -0.6947
vn 0.5086 0.5086 -0.6947
vn 0.1862 0.6947 -0.6947
vn -0.6947 -0.1862 -0.6947
vn -0.6947 0.1862 -0.6947
vn -0.1862 0.6947 -0.6947
vn -0.5086 -0.5086 -0.6947
vn -0.5086 0.5086 -0.6947
vn -0.1862 -0.6947 -0.6947
s off
f 2/1/1 3/2/1 1/3/1
f 4/4/2 5/5/2 3/2/2
f 6/6/3 7/7/3 5/5/3
f 8/8/4 9/9/4 7/7/4
f 10/10/5 11/11/5 9/9/5
f 12/12/6 13/13/6 11/11/6
f 14/14/7 15/15/7 13/13/7
f 16/16/8 17/17/8 15/15/8
f 18/18/9 19/19/9 17/17/9
f 20/20/10 21/21/10 19/19/10
f 8/8/11 27/22/11 28/23/11
f 22/24/12 23/25/12 21/21/12
f 24/26/13 1/27/13 23/25/13
f 19/19/14 45/28/14 17/17/14
f 35/29/15 31/30/15 27/31/15
f 22/24/16 36/32/16 24/26/16
f 4/4/17 27/22/17 6/6/17
f 20/20/18 35/33/18 22/24/18
f 18/18/19 34/34/19 20/20/19
f 18/18/20 32/35/20 33/36/20
f 14/14/21 32/35/21 16/16/21
f 12/12/22 31/37/22 14/14/22
f 10/10/23 30/38/23 12/12/23
f 10/10/24 28/23/24 29/39/24
f 2/40/25 36/32/25 25/41/25
f 2/1/26 26/42/26 4/4/26
f 44/43/27 46/44/27 48/45/27
f 15/15/28 45/28/28 44/46/28
f 15/15/29 43/47/29 13/13/29
f 13/13/30 42/48/30 11/11/30
f 9/9/31 42/48/31 41/49/31
f 7/7/32 41/49/32 40/50/32
f 1/27/33 48/51/33 23/25/33
f 3/2/34 37/52/34 1/3/34
f 7/7/35 39/53/35 5/5/35
f 23/25/36 47/54/36 21/21/36
f 5/5/37 38/55/37 3/2/37
f 21/21/38 46/56/38 19/19/38
f 2/1/1 4/4/1 3/2/1
f 4/4/2 6/6/2 5/5/2
f 6/6/3 8/8/3 7/7/3
f 8/8/4 10/10/4 9/9/4
f 10/10/5 12/12/5 11/11/5
f 12/12/6 14/14/6 13/13/6
f 14/14/7 16/16/7 15/15/7
f 16/16/8 18/18/8 17/17/8
f 18/18/9 20/20/9 19/19/9
f 20/20/10 22/24/10 21/21/10
f 8/8/11 6/6/11 27/22/11
f 22/24/12 24/26/12 23/25/12
f 24/26/13 2/40/13 1/27/13
f 19/19/14 46/56/14 45/28/14
f 27/31/15 26/57/15 35/29/15
f 26/57/15 25/58/15 35/29/15
f 25/58/15 36/59/15 35/29/15
f 35/29/15 34/60/15 33/61/15
f 33/61/15 32/62/15 31/30/15
f 31/30/15 30/63/15 29/64/15
f 29/64/15 28/65/15 31/30/15
f 28/65/15 27/31/15 31/30/15
f 35/29/15 33/61/15 31/30/15
f 22/24/16 35/33/16 36/32/16
f 4/4/17 26/42/17 27/22/17
f 20/20/18 34/34/18 35/33/18
f 18/18/19 33/36/19 34/34/19
f 18/18/20 16/16/20 32/35/20
f 14/14/21 31/37/21 32/35/21
f 12/12/22 30/38/22 31/37/22
f 10/10/23 29/39/23 30/38/23
f 10/10/24 8/8/24 28/23/24
f 2/40/25 24/26/25 36/32/25
f 2/1/26 25/66/26 26/42/26
f 48/45/27 37/67/27 38/68/27
f 38/68/27 39/69/27 40/70/27
f 40/70/27 41/71/27 42/72/27
f 42/72/27 43/73/27 44/43/27
f 44/43/27 45/74/27 46/44/27
f 46/44/27 47/75/27 48/45/27
f 48/45/27 38/68/27 44/43/27
f 38/68/27 40/70/27 44/43/27
f 40/70/27 42/72/27 44/43/27
f 15/15/28 17/17/28 45/28/28
f 15/15/29 44/46/29 43/47/29
f 13/13/30 43/47/30 42/48/30
f 9/9/31 11/11/31 42/48/31
f 7/7/32 9/9/32 41/49/32
f 1/27/33 37/76/33 48/51/33
f 3/2/34 38/55/34 37/52/34
f 7/7/35 40/50/35 39/53/35
f 23/25/36 48/51/36 47/54/36
f 5/5/37 39/53/37 38/55/37
f 21/21/38 47/54/38 46/56/38
